999
FreeCAD v0.19 
  0
SECTION
  2
HEADER
  9
$ACADVER
  1
AC1014
  9
$ACADMAINTVER
 70
     9
  9
$DWGCODEPAGE
  3
ANSI_1252
  9
$TEXTSTYLE
  7
STANDARD
  9
$DIMSTYLE
  2
STANDARD
  9
$DIMTXSTY
  7
STANDARD
  9
$CMLSTYLE
  2
STANDARD
  9
$PEXTMAX
 10
50
 20
50
 30
50
  9
$PEXTMIN
 10
0
 20
0
 30
0
  9
$HANDSEED
  5
FFFF
  0
ENDSEC
  0
SECTION
  2
CLASSES
  0
CLASS
  1
ACDBDICTIONARYWDFLT
  2
AcDbDictionaryWithDefault
  3
ObjectDBX Classes
 90
        0
280
     0
281
     0
  0
CLASS
  1
XRECORD
  2
AcDbXrecord
  3
ObjectDBX Classes
 90
        0
280
     0
281
     0
  0
CLASS
  1
LWPOLYLINE
  2
AcDbPolyline
  3
ObjectDBX Classes
 90
        0
280
     0
281
     1
  0
ENDSEC
  0
SECTION
  2
TABLES
  0
TABLE
  2
VPORT
  5
20
330
0
100
AcDbSymbolTable
 70
     1
  0
VPORT
  5
21
330
20
100
AcDbSymbolTableRecord
100
AcDbViewportTableRecord
  2
*ACTIVE
 70
     0
  0
ENDTAB
  0
TABLE
  2
LTYPE
  5
22
330
0
100
AcDbSymbolTable
 70
     1
  0
LTYPE
  5
23
330
21
100
AcDbSymbolTableRecord
100
AcDbLinetypeTableRecord
  2
BYBLOCK
 70
     0
  3

 72
    65
 73
     0
 40
0.0
  0
LTYPE
  5
24
330
21
100
AcDbSymbolTableRecord
100
AcDbLinetypeTableRecord
  2
BYLAYER
 70
     0
  3

 72
    65
 73
     0
 40
0.0
  0
LTYPE
  5
25
330
21
100
AcDbSymbolTableRecord
100
AcDbLinetypeTableRecord
  2
CONTINUOUS
 70
     0
  3
Solid line
 72
    65
 73
     0
 40
0.0
  0
ENDTAB
  0
TABLE
  2
LAYER
  5
AA9
330
0
100
AcDbSymbolTable
 70
3
  0
LAYER
  5
AAA
330
AA9
100
AcDbSymbolTableRecord
100
AcDbLayerTableRecord
  2
0
 70
   0
 62
   7
  6
CONTINUOUS
  0
LAYER
  5
AAB
330
AA9
100
AcDbSymbolTableRecord
100
AcDbLayerTableRecord
  2
none
 70
    0
 62
    7
  6
CONTINUOUS
  0
LAYER
  5
AAC
330
AA9
100
AcDbSymbolTableRecord
100
AcDbLayerTableRecord
  2
Shape2DView
 70
    0
 62
    7
  6
CONTINUOUS
  0
ENDTAB
  0
TABLE
  2
STYLE
  5
70
330
0
100
AcDbSymbolTable
 70
     2
  0
STYLE
  5
71
330
70
100
AcDbSymbolTableRecord
100
AcDbTextStyleTableRecord
  2
STANDARD
 70
     0
 40
0.0
 41
1.0
 50
0.0
 71
     0
 42
2.5
  3
arial.ttf
  4

  0
STYLE
  5
72
330
70
100
AcDbSymbolTableRecord
100
AcDbTextStyleTableRecord
  2
ANNOTATIVE
 70
     0
 40
0.0
 41
1.0
 50
0.0
 71
     0
 42
2.5
  3
arial.ttf
  4

  0
ENDTAB
  0
TABLE
  2
VIEW
  5
73
330
0
100
AcDbSymbolTable
 70
     0
  0
ENDTAB
  0
TABLE
  2
UCS
  5
74
330
0
100
AcDbSymbolTable
 70
     0
  0
ENDTAB
  0
TABLE
  2
APPID
  5
75
330
0
100
AcDbSymbolTable
 70
     2
  0
APPID
  5
76
330
75
100
AcDbSymbolTableRecord
100
AcDbRegAppTableRecord
  2
ACAD
 70
     0
  0
APPID
  5
77
330
75
100
AcDbSymbolTableRecord
100
AcDbRegAppTableRecord
  2
ACADANNOTATIVE
 70
     0
  0
ENDTAB
  0
TABLE
  2
DIMSTYLE
  5
78
330
0
100
AcDbSymbolTable
 70
     2
  0
DIMSTYLE
105
79
330
78
100
AcDbSymbolTableRecord
100
AcDbDimStyleTableRecord
  2
STANDARD
 70
     0
  3

  4

  5

  6

  7

 40
0.0
 41
2.5
 42
0.625
 43
3.75
 44
1.25
 45
0.0
 46
0.0
 47
0.0
 48
0.0
140
2.5
141
2.5
142
0.0
143
0.03937007874016
144
1.0
145
0.0
146
1.0
147
0.625
 71
     0
 72
     0
 73
     0
 74
     0
 75
     0
 76
     0
 77
     1
 78
     8
170
     0
171
     3
172
     1
173
     0
174
     0
175
     0
176
     0
177
     0
178
     0
270
     2
271
     2
272
     2
273
     2
274
     3
340
71
275
     0
280
     0
281
     0
282
     0
283
     0
284
     8
285
     0
286
     0
287
     3
288
     0
  0
ENDTAB
  0
TABLE
  2
BLOCK_RECORD
  5
A01
330
0
100
AcDbSymbolTable
  70
5
  0
BLOCK_RECORD
  5
A02
330
A01
100
AcDbSymbolTableRecord
100
AcDbBlockTableRecord
  2
*MODEL_SPACE
  0
BLOCK_RECORD
  5
A03
330
A01
100
AcDbSymbolTableRecord
100
AcDbBlockTableRecord
  2
*PAPER_SPACE
  0
ENDTAB
  0
ENDSEC
  0
SECTION
  2
BLOCKS
  0
BLOCK
  5
A04
330
A02
100
AcDbEntity
  8
0
100
AcDbBlockBegin
  2
*MODEL_SPACE
 70
   0
 10
0
 20
0
 30
0
  3
*MODEL_SPACE
  1
 
  0
ENDBLK
  5
A05
330
A02
100
AcDbEntity
  8
0
100
AcDbBlockEnd
  0
BLOCK
  5
A06
330
A03
100
AcDbEntity
 67
1
  8
0
100
AcDbBlockBegin
  2
*PAPER_SPACE
 70
   0
 10
0
 20
0
 30
0
  3
*PAPER_SPACE
  1
 
  0
ENDBLK
  5
A07
330
A03
100
AcDbEntity
 67
    1
  8
0
100
AcDbBlockEnd
  0
ENDSEC
  0
SECTION
  2
ENTITIES
  0
ARC
  5
A08
330
A02
100
AcDbEntity
  8
Shape2DView
100
AcDbCircle
 10
1016
 20
51.2
 30
0
 40
2
100
AcDbArc
 50
-90
 51
0
  0
LINE
  5
A09
330
A02
100
AcDbEntity
  8
Shape2DView
100
AcDbLine
 10
1018
 20
51.2
 30
0
 11
1018
 21
63.1
 31
0
  0
LINE
  5
A0A
330
A02
100
AcDbEntity
  8
Shape2DView
100
AcDbLine
 10
1016
 20
49.2
 30
0
 11
992.8
 21
49.2
 31
0
  0
LINE
  5
A0B
330
A02
100
AcDbEntity
  8
Shape2DView
100
AcDbLine
 10
992.8
 20
49.2
 30
0
 11
992.8
 21
43.5
 31
0
  0
LINE
  5
A0C
330
A02
100
AcDbEntity
  8
Shape2DView
100
AcDbLine
 10
992.8
 20
43.5
 30
0
 11
1009
 21
43.5
 31
0
  0
LINE
  5
A0D
330
A02
100
AcDbEntity
  8
Shape2DView
100
AcDbLine
 10
1009
 20
3.55271e-15
 30
0
 11
1009
 21
43.5
 31
0
  0
LINE
  5
A0E
330
A02
100
AcDbEntity
  8
Shape2DView
100
AcDbLine
 10
393.5
 20
1.06581e-14
 30
0
 11
1009
 21
4.50314e-15
 31
0
  0
LINE
  5
A0F
330
A02
100
AcDbEntity
  8
Shape2DView
100
AcDbLine
 10
344.4
 20
49.1
 30
0
 11
393.5
 21
0
 31
0
  0
LINE
  5
A10
330
A02
100
AcDbEntity
  8
Shape2DView
100
AcDbLine
 10
2
 20
49.1
 30
0
 11
344.4
 21
49.1
 31
0
  0
ARC
  5
A11
330
A02
100
AcDbEntity
  8
Shape2DView
100
AcDbCircle
 10
2
 20
51.1
 30
0
 40
2
100
AcDbArc
 50
-180
 51
-90
  0
LINE
  5
A12
330
A02
100
AcDbEntity
  8
Shape2DView
100
AcDbLine
 10
0
 20
63.1
 30
0
 11
0
 21
51.1
 31
0
  0
ARC
  5
A13
330
A02
100
AcDbEntity
  8
Shape2DView
100
AcDbCircle
 10
2
 20
63.1
 30
0
 40
2
100
AcDbArc
 50
90
 51
-180
  0
LINE
  5
A14
330
A02
100
AcDbEntity
  8
Shape2DView
100
AcDbLine
 10
9
 20
65.1
 30
0
 11
2
 21
65.1
 31
0
  0
LINE
  5
A15
330
A02
100
AcDbEntity
  8
Shape2DView
100
AcDbLine
 10
9
 20
65.1
 30
0
 11
9
 21
82.8969
 31
0
  0
LINE
  5
A16
330
A02
100
AcDbEntity
  8
Shape2DView
100
AcDbLine
 10
9
 20
82.8969
 30
0
 11
31.1
 21
82.8969
 31
0
  0
LINE
  5
A17
330
A02
100
AcDbEntity
  8
Shape2DView
100
AcDbLine
 10
31.1
 20
82.8969
 30
0
 11
31.1
 21
80.65
 31
0
  0
LINE
  5
A18
330
A02
100
AcDbEntity
  8
Shape2DView
100
AcDbLine
 10
31.1
 20
80.65
 30
0
 11
35.6
 21
80.65
 31
0
  0
LINE
  5
A19
330
A02
100
AcDbEntity
  8
Shape2DView
100
AcDbLine
 10
35.6
 20
80.65
 30
0
 11
35.6
 21
82.8969
 31
0
  0
LINE
  5
A1A
330
A02
100
AcDbEntity
  8
Shape2DView
100
AcDbLine
 10
35.6
 20
82.8969
 30
0
 11
40.1
 21
82.8969
 31
0
  0
LINE
  5
A1B
330
A02
100
AcDbEntity
  8
Shape2DView
100
AcDbLine
 10
40.1
 20
82.8969
 30
0
 11
40.1
 21
87.7031
 31
0
  0
LINE
  5
A1C
330
A02
100
AcDbEntity
  8
Shape2DView
100
AcDbLine
 10
40.1
 20
87.7031
 30
0
 11
35.6
 21
87.7031
 31
0
  0
LINE
  5
A1D
330
A02
100
AcDbEntity
  8
Shape2DView
100
AcDbLine
 10
35.6
 20
87.7031
 30
0
 11
35.6
 21
89.95
 31
0
  0
LINE
  5
A1E
330
A02
100
AcDbEntity
  8
Shape2DView
100
AcDbLine
 10
35.6
 20
89.95
 30
0
 11
31.1
 21
89.95
 31
0
  0
LINE
  5
A1F
330
A02
100
AcDbEntity
  8
Shape2DView
100
AcDbLine
 10
31.1
 20
89.95
 30
0
 11
31.1
 21
87.7031
 31
0
  0
LINE
  5
A20
330
A02
100
AcDbEntity
  8
Shape2DView
100
AcDbLine
 10
31.1
 20
87.7031
 30
0
 11
9
 21
87.7031
 31
0
  0
LINE
  5
A21
330
A02
100
AcDbEntity
  8
Shape2DView
100
AcDbLine
 10
9
 20
87.7031
 30
0
 11
9
 21
105.3
 31
0
  0
LINE
  5
A22
330
A02
100
AcDbEntity
  8
Shape2DView
100
AcDbLine
 10
9
 20
105.3
 30
0
 11
2
 21
105.3
 31
0
  0
ARC
  5
A23
330
A02
100
AcDbEntity
  8
Shape2DView
100
AcDbCircle
 10
2
 20
107.3
 30
0
 40
2
100
AcDbArc
 50
180
 51
-90
  0
LINE
  5
A24
330
A02
100
AcDbEntity
  8
Shape2DView
100
AcDbLine
 10
4.54747e-13
 20
107.3
 30
0
 11
4.54747e-13
 21
119.3
 31
0
  0
ARC
  5
A25
330
A02
100
AcDbEntity
  8
Shape2DView
100
AcDbCircle
 10
2
 20
119.3
 30
0
 40
2
100
AcDbArc
 50
90
 51
180
  0
LINE
  5
A26
330
A02
100
AcDbEntity
  8
Shape2DView
100
AcDbLine
 10
2
 20
121.3
 30
0
 11
9
 21
121.3
 31
0
  0
LINE
  5
A27
330
A02
100
AcDbEntity
  8
Shape2DView
100
AcDbLine
 10
9
 20
121.3
 30
0
 11
10
 21
120.3
 31
0
  0
LINE
  5
A28
330
A02
100
AcDbEntity
  8
Shape2DView
100
AcDbLine
 10
10
 20
120.3
 30
0
 11
95.2
 21
120.3
 31
0
  0
LINE
  5
A29
330
A02
100
AcDbEntity
  8
Shape2DView
100
AcDbLine
 10
103.7
 20
111.8
 30
0
 11
95.2
 21
120.3
 31
0
  0
LINE
  5
A2A
330
A02
100
AcDbEntity
  8
Shape2DView
100
AcDbLine
 10
103.7
 20
102.8
 30
0
 11
103.7
 21
111.8
 31
0
  0
LINE
  5
A2B
330
A02
100
AcDbEntity
  8
Shape2DView
100
AcDbLine
 10
103.7
 20
102.8
 30
0
 11
121.65
 21
102.8
 31
0
  0
LINE
  5
A2C
330
A02
100
AcDbEntity
  8
Shape2DView
100
AcDbLine
 10
121.65
 20
94.4
 30
0
 11
121.65
 21
102.8
 31
0
  0
LINE
  5
A2D
330
A02
100
AcDbEntity
  8
Shape2DView
100
AcDbLine
 10
119.35
 20
94.4
 30
0
 11
121.65
 21
94.4
 31
0
  0
LINE
  5
A2E
330
A02
100
AcDbEntity
  8
Shape2DView
100
AcDbLine
 10
119.35
 20
89.9
 30
0
 11
119.35
 21
94.4
 31
0
  0
LINE
  5
A2F
330
A02
100
AcDbEntity
  8
Shape2DView
100
AcDbLine
 10
121.65
 20
89.9
 30
0
 11
119.35
 21
89.9
 31
0
  0
LINE
  5
A30
330
A02
100
AcDbEntity
  8
Shape2DView
100
AcDbLine
 10
121.65
 20
85.4
 30
0
 11
121.65
 21
89.9
 31
0
  0
LINE
  5
A31
330
A02
100
AcDbEntity
  8
Shape2DView
100
AcDbLine
 10
126.35
 20
85.4
 30
0
 11
121.65
 21
85.4
 31
0
  0
LINE
  5
A32
330
A02
100
AcDbEntity
  8
Shape2DView
100
AcDbLine
 10
126.35
 20
89.9
 30
0
 11
126.35
 21
85.4
 31
0
  0
LINE
  5
A33
330
A02
100
AcDbEntity
  8
Shape2DView
100
AcDbLine
 10
128.65
 20
89.9
 30
0
 11
126.35
 21
89.9
 31
0
  0
LINE
  5
A34
330
A02
100
AcDbEntity
  8
Shape2DView
100
AcDbLine
 10
128.65
 20
94.4
 30
0
 11
128.65
 21
89.9
 31
0
  0
LINE
  5
A35
330
A02
100
AcDbEntity
  8
Shape2DView
100
AcDbLine
 10
126.35
 20
94.4
 30
0
 11
128.65
 21
94.4
 31
0
  0
LINE
  5
A36
330
A02
100
AcDbEntity
  8
Shape2DView
100
AcDbLine
 10
126.35
 20
102.8
 30
0
 11
126.35
 21
94.4
 31
0
  0
LINE
  5
A37
330
A02
100
AcDbEntity
  8
Shape2DView
100
AcDbLine
 10
126.35
 20
102.8
 30
0
 11
143.7
 21
102.8
 31
0
  0
LINE
  5
A38
330
A02
100
AcDbEntity
  8
Shape2DView
100
AcDbLine
 10
143.7
 20
102.8
 30
0
 11
143.7
 21
111.8
 31
0
  0
LINE
  5
A39
330
A02
100
AcDbEntity
  8
Shape2DView
100
AcDbLine
 10
204
 20
111.8
 30
0
 11
143.7
 21
111.8
 31
0
  0
LINE
  5
A3A
330
A02
100
AcDbEntity
  8
Shape2DView
100
AcDbLine
 10
204
 20
111.8
 30
0
 11
204
 21
102.8
 31
0
  0
LINE
  5
A3B
330
A02
100
AcDbEntity
  8
Shape2DView
100
AcDbLine
 10
204
 20
102.8
 30
0
 11
254
 21
102.8
 31
0
  0
LINE
  5
A3C
330
A02
100
AcDbEntity
  8
Shape2DView
100
AcDbLine
 10
254
 20
102.8
 30
0
 11
254
 21
111.8
 31
0
  0
LINE
  5
A3D
330
A02
100
AcDbEntity
  8
Shape2DView
100
AcDbLine
 10
314.3
 20
111.8
 30
0
 11
254
 21
111.8
 31
0
  0
LINE
  5
A3E
330
A02
100
AcDbEntity
  8
Shape2DView
100
AcDbLine
 10
314.3
 20
111.8
 30
0
 11
314.3
 21
102.8
 31
0
  0
LINE
  5
A3F
330
A02
100
AcDbEntity
  8
Shape2DView
100
AcDbLine
 10
314.3
 20
102.8
 30
0
 11
331.65
 21
102.8
 31
0
  0
LINE
  5
A40
330
A02
100
AcDbEntity
  8
Shape2DView
100
AcDbLine
 10
331.65
 20
102.8
 30
0
 11
331.65
 21
94.4
 31
0
  0
LINE
  5
A41
330
A02
100
AcDbEntity
  8
Shape2DView
100
AcDbLine
 10
329.35
 20
94.4
 30
0
 11
331.65
 21
94.4
 31
0
  0
LINE
  5
A42
330
A02
100
AcDbEntity
  8
Shape2DView
100
AcDbLine
 10
329.35
 20
89.9
 30
0
 11
329.35
 21
94.4
 31
0
  0
LINE
  5
A43
330
A02
100
AcDbEntity
  8
Shape2DView
100
AcDbLine
 10
331.65
 20
89.9
 30
0
 11
329.35
 21
89.9
 31
0
  0
LINE
  5
A44
330
A02
100
AcDbEntity
  8
Shape2DView
100
AcDbLine
 10
331.65
 20
85.4
 30
0
 11
331.65
 21
89.9
 31
0
  0
LINE
  5
A45
330
A02
100
AcDbEntity
  8
Shape2DView
100
AcDbLine
 10
336.35
 20
85.4
 30
0
 11
331.65
 21
85.4
 31
0
  0
LINE
  5
A46
330
A02
100
AcDbEntity
  8
Shape2DView
100
AcDbLine
 10
336.35
 20
89.9
 30
0
 11
336.35
 21
85.4
 31
0
  0
LINE
  5
A47
330
A02
100
AcDbEntity
  8
Shape2DView
100
AcDbLine
 10
338.65
 20
89.9
 30
0
 11
336.35
 21
89.9
 31
0
  0
LINE
  5
A48
330
A02
100
AcDbEntity
  8
Shape2DView
100
AcDbLine
 10
338.65
 20
94.4
 30
0
 11
338.65
 21
89.9
 31
0
  0
LINE
  5
A49
330
A02
100
AcDbEntity
  8
Shape2DView
100
AcDbLine
 10
336.35
 20
94.4
 30
0
 11
338.65
 21
94.4
 31
0
  0
LINE
  5
A4A
330
A02
100
AcDbEntity
  8
Shape2DView
100
AcDbLine
 10
336.35
 20
94.4
 30
0
 11
336.35
 21
102.8
 31
0
  0
LINE
  5
A4B
330
A02
100
AcDbEntity
  8
Shape2DView
100
AcDbLine
 10
336.35
 20
102.8
 30
0
 11
354.3
 21
102.8
 31
0
  0
LINE
  5
A4C
330
A02
100
AcDbEntity
  8
Shape2DView
100
AcDbLine
 10
354.3
 20
102.8
 30
0
 11
375.725
 21
81.3747
 31
0
  0
LINE
  5
A4D
330
A02
100
AcDbEntity
  8
Shape2DView
100
AcDbLine
 10
375.725
 20
81.3747
 30
0
 11
382.231
 21
87.88
 31
0
  0
LINE
  5
A4E
330
A02
100
AcDbEntity
  8
Shape2DView
100
AcDbLine
 10
382.231
 20
87.88
 30
0
 11
360.805
 21
109.305
 31
0
  0
LINE
  5
A4F
330
A02
100
AcDbEntity
  8
Shape2DView
100
AcDbLine
 10
360.805
 20
109.305
 30
0
 11
360.805
 21
111.8
 31
0
  0
LINE
  5
A50
330
A02
100
AcDbEntity
  8
Shape2DView
100
AcDbLine
 10
360.805
 20
111.8
 30
0
 11
424.85
 21
111.8
 31
0
  0
ARC
  5
A51
330
A02
100
AcDbEntity
  8
Shape2DView
100
AcDbCircle
 10
424.85
 20
107.8
 30
0
 40
4
100
AcDbArc
 50
0
 51
90
  0
LINE
  5
A52
330
A02
100
AcDbEntity
  8
Shape2DView
100
AcDbLine
 10
428.85
 20
107.8
 30
0
 11
428.85
 21
63.1
 31
0
  0
LINE
  5
A53
330
A02
100
AcDbEntity
  8
Shape2DView
100
AcDbLine
 10
428.85
 20
63.1
 30
0
 11
438.15
 21
63.1
 31
0
  0
LINE
  5
A54
330
A02
100
AcDbEntity
  8
Shape2DView
100
AcDbLine
 10
438.15
 20
63.1
 30
0
 11
438.15
 21
66.1
 31
0
  0
ARC
  5
A55
330
A02
100
AcDbEntity
  8
Shape2DView
100
AcDbCircle
 10
442.15
 20
66.1
 30
0
 40
4
100
AcDbArc
 50
90
 51
180
  0
LINE
  5
A56
330
A02
100
AcDbEntity
  8
Shape2DView
100
AcDbLine
 10
442.15
 20
70.1
 30
0
 11
575.85
 21
70.1
 31
0
  0
ARC
  5
A57
330
A02
100
AcDbEntity
  8
Shape2DView
100
AcDbCircle
 10
575.85
 20
66.1
 30
0
 40
4
100
AcDbArc
 50
0
 51
90
  0
LINE
  5
A58
330
A02
100
AcDbEntity
  8
Shape2DView
100
AcDbLine
 10
579.85
 20
66.1
 30
0
 11
579.85
 21
63.1
 31
0
  0
LINE
  5
A59
330
A02
100
AcDbEntity
  8
Shape2DView
100
AcDbLine
 10
579.85
 20
63.1
 30
0
 11
589.15
 21
63.1
 31
0
  0
LINE
  5
A5A
330
A02
100
AcDbEntity
  8
Shape2DView
100
AcDbLine
 10
589.15
 20
63.1
 30
0
 11
589.15
 21
107.8
 31
0
  0
ARC
  5
A5B
330
A02
100
AcDbEntity
  8
Shape2DView
100
AcDbCircle
 10
593.15
 20
107.8
 30
0
 40
4
100
AcDbArc
 50
90
 51
180
  0
LINE
  5
A5C
330
A02
100
AcDbEntity
  8
Shape2DView
100
AcDbLine
 10
657.195
 20
111.8
 30
0
 11
593.15
 21
111.8
 31
0
  0
LINE
  5
A5D
330
A02
100
AcDbEntity
  8
Shape2DView
100
AcDbLine
 10
657.195
 20
109.305
 30
0
 11
657.195
 21
111.8
 31
0
  0
LINE
  5
A5E
330
A02
100
AcDbEntity
  8
Shape2DView
100
AcDbLine
 10
635.769
 20
87.88
 30
0
 11
657.195
 21
109.305
 31
0
  0
LINE
  5
A5F
330
A02
100
AcDbEntity
  8
Shape2DView
100
AcDbLine
 10
642.275
 20
81.3747
 30
0
 11
635.769
 21
87.88
 31
0
  0
LINE
  5
A60
330
A02
100
AcDbEntity
  8
Shape2DView
100
AcDbLine
 10
663.7
 20
102.8
 30
0
 11
642.275
 21
81.3747
 31
0
  0
LINE
  5
A61
330
A02
100
AcDbEntity
  8
Shape2DView
100
AcDbLine
 10
663.7
 20
102.8
 30
0
 11
681.65
 21
102.8
 31
0
  0
LINE
  5
A62
330
A02
100
AcDbEntity
  8
Shape2DView
100
AcDbLine
 10
681.65
 20
94.4
 30
0
 11
681.65
 21
102.8
 31
0
  0
LINE
  5
A63
330
A02
100
AcDbEntity
  8
Shape2DView
100
AcDbLine
 10
679.35
 20
94.4
 30
0
 11
681.65
 21
94.4
 31
0
  0
LINE
  5
A64
330
A02
100
AcDbEntity
  8
Shape2DView
100
AcDbLine
 10
679.35
 20
89.9
 30
0
 11
679.35
 21
94.4
 31
0
  0
LINE
  5
A65
330
A02
100
AcDbEntity
  8
Shape2DView
100
AcDbLine
 10
681.65
 20
89.9
 30
0
 11
679.35
 21
89.9
 31
0
  0
LINE
  5
A66
330
A02
100
AcDbEntity
  8
Shape2DView
100
AcDbLine
 10
681.65
 20
85.4
 30
0
 11
681.65
 21
89.9
 31
0
  0
LINE
  5
A67
330
A02
100
AcDbEntity
  8
Shape2DView
100
AcDbLine
 10
686.35
 20
85.4
 30
0
 11
681.65
 21
85.4
 31
0
  0
LINE
  5
A68
330
A02
100
AcDbEntity
  8
Shape2DView
100
AcDbLine
 10
686.35
 20
89.9
 30
0
 11
686.35
 21
85.4
 31
0
  0
LINE
  5
A69
330
A02
100
AcDbEntity
  8
Shape2DView
100
AcDbLine
 10
688.65
 20
89.9
 30
0
 11
686.35
 21
89.9
 31
0
  0
LINE
  5
A6A
330
A02
100
AcDbEntity
  8
Shape2DView
100
AcDbLine
 10
688.65
 20
94.4
 30
0
 11
688.65
 21
89.9
 31
0
  0
LINE
  5
A6B
330
A02
100
AcDbEntity
  8
Shape2DView
100
AcDbLine
 10
686.35
 20
94.4
 30
0
 11
688.65
 21
94.4
 31
0
  0
LINE
  5
A6C
330
A02
100
AcDbEntity
  8
Shape2DView
100
AcDbLine
 10
686.35
 20
102.8
 30
0
 11
686.35
 21
94.4
 31
0
  0
LINE
  5
A6D
330
A02
100
AcDbEntity
  8
Shape2DView
100
AcDbLine
 10
686.35
 20
102.8
 30
0
 11
703.7
 21
102.8
 31
0
  0
LINE
  5
A6E
330
A02
100
AcDbEntity
  8
Shape2DView
100
AcDbLine
 10
703.7
 20
102.8
 30
0
 11
703.7
 21
111.8
 31
0
  0
LINE
  5
A6F
330
A02
100
AcDbEntity
  8
Shape2DView
100
AcDbLine
 10
703.7
 20
111.8
 30
0
 11
764
 21
111.8
 31
0
  0
LINE
  5
A70
330
A02
100
AcDbEntity
  8
Shape2DView
100
AcDbLine
 10
764
 20
111.8
 30
0
 11
764
 21
102.8
 31
0
  0
LINE
  5
A71
330
A02
100
AcDbEntity
  8
Shape2DView
100
AcDbLine
 10
764
 20
102.8
 30
0
 11
814
 21
102.8
 31
0
  0
LINE
  5
A72
330
A02
100
AcDbEntity
  8
Shape2DView
100
AcDbLine
 10
814
 20
102.8
 30
0
 11
814
 21
111.8
 31
0
  0
LINE
  5
A73
330
A02
100
AcDbEntity
  8
Shape2DView
100
AcDbLine
 10
814
 20
111.8
 30
0
 11
874.3
 21
111.8
 31
0
  0
LINE
  5
A74
330
A02
100
AcDbEntity
  8
Shape2DView
100
AcDbLine
 10
874.3
 20
111.8
 30
0
 11
874.3
 21
102.8
 31
0
  0
LINE
  5
A75
330
A02
100
AcDbEntity
  8
Shape2DView
100
AcDbLine
 10
874.3
 20
102.8
 30
0
 11
891.65
 21
102.8
 31
0
  0
LINE
  5
A76
330
A02
100
AcDbEntity
  8
Shape2DView
100
AcDbLine
 10
891.65
 20
94.4
 30
0
 11
891.65
 21
102.8
 31
0
  0
LINE
  5
A77
330
A02
100
AcDbEntity
  8
Shape2DView
100
AcDbLine
 10
889.35
 20
94.4
 30
0
 11
891.65
 21
94.4
 31
0
  0
LINE
  5
A78
330
A02
100
AcDbEntity
  8
Shape2DView
100
AcDbLine
 10
889.35
 20
89.9
 30
0
 11
889.35
 21
94.4
 31
0
  0
LINE
  5
A79
330
A02
100
AcDbEntity
  8
Shape2DView
100
AcDbLine
 10
891.65
 20
89.9
 30
0
 11
889.35
 21
89.9
 31
0
  0
LINE
  5
A7A
330
A02
100
AcDbEntity
  8
Shape2DView
100
AcDbLine
 10
891.65
 20
85.4
 30
0
 11
891.65
 21
89.9
 31
0
  0
LINE
  5
A7B
330
A02
100
AcDbEntity
  8
Shape2DView
100
AcDbLine
 10
896.35
 20
85.4
 30
0
 11
891.65
 21
85.4
 31
0
  0
LINE
  5
A7C
330
A02
100
AcDbEntity
  8
Shape2DView
100
AcDbLine
 10
896.35
 20
89.9
 30
0
 11
896.35
 21
85.4
 31
0
  0
LINE
  5
A7D
330
A02
100
AcDbEntity
  8
Shape2DView
100
AcDbLine
 10
898.65
 20
89.9
 30
0
 11
896.35
 21
89.9
 31
0
  0
LINE
  5
A7E
330
A02
100
AcDbEntity
  8
Shape2DView
100
AcDbLine
 10
898.65
 20
94.4
 30
0
 11
898.65
 21
89.9
 31
0
  0
LINE
  5
A7F
330
A02
100
AcDbEntity
  8
Shape2DView
100
AcDbLine
 10
896.35
 20
94.4
 30
0
 11
898.65
 21
94.4
 31
0
  0
LINE
  5
A80
330
A02
100
AcDbEntity
  8
Shape2DView
100
AcDbLine
 10
896.35
 20
102.8
 30
0
 11
896.35
 21
94.4
 31
0
  0
LINE
  5
A81
330
A02
100
AcDbEntity
  8
Shape2DView
100
AcDbLine
 10
896.35
 20
102.8
 30
0
 11
914.3
 21
102.8
 31
0
  0
LINE
  5
A82
330
A02
100
AcDbEntity
  8
Shape2DView
100
AcDbLine
 10
914.3
 20
102.8
 30
0
 11
914.3
 21
111.8
 31
0
  0
LINE
  5
A83
330
A02
100
AcDbEntity
  8
Shape2DView
100
AcDbLine
 10
914.3
 20
111.8
 30
0
 11
922.8
 21
120.3
 31
0
  0
LINE
  5
A84
330
A02
100
AcDbEntity
  8
Shape2DView
100
AcDbLine
 10
1008
 20
120.3
 30
0
 11
922.8
 21
120.3
 31
0
  0
LINE
  5
A85
330
A02
100
AcDbEntity
  8
Shape2DView
100
AcDbLine
 10
1009
 20
121.3
 30
0
 11
1008
 21
120.3
 31
0
  0
LINE
  5
A86
330
A02
100
AcDbEntity
  8
Shape2DView
100
AcDbLine
 10
1016
 20
121.3
 30
0
 11
1009
 21
121.3
 31
0
  0
ARC
  5
A87
330
A02
100
AcDbEntity
  8
Shape2DView
100
AcDbCircle
 10
1016
 20
119.3
 30
0
 40
2
100
AcDbArc
 50
0
 51
90
  0
LINE
  5
A88
330
A02
100
AcDbEntity
  8
Shape2DView
100
AcDbLine
 10
1018
 20
107.3
 30
0
 11
1018
 21
119.3
 31
0
  0
ARC
  5
A89
330
A02
100
AcDbEntity
  8
Shape2DView
100
AcDbCircle
 10
1016
 20
107.3
 30
0
 40
2
100
AcDbArc
 50
-90
 51
4.07111e-13
  0
LINE
  5
A8A
330
A02
100
AcDbEntity
  8
Shape2DView
100
AcDbLine
 10
1009
 20
105.3
 30
0
 11
1016
 21
105.3
 31
0
  0
LINE
  5
A8B
330
A02
100
AcDbEntity
  8
Shape2DView
100
AcDbLine
 10
1009
 20
87.7312
 30
0
 11
1009
 21
105.3
 31
0
  0
LINE
  5
A8C
330
A02
100
AcDbEntity
  8
Shape2DView
100
AcDbLine
 10
1009
 20
87.7312
 30
0
 11
986.9
 21
87.7312
 31
0
  0
LINE
  5
A8D
330
A02
100
AcDbEntity
  8
Shape2DView
100
AcDbLine
 10
986.9
 20
87.7312
 30
0
 11
986.9
 21
89.95
 31
0
  0
LINE
  5
A8E
330
A02
100
AcDbEntity
  8
Shape2DView
100
AcDbLine
 10
986.9
 20
89.95
 30
0
 11
982.4
 21
89.95
 31
0
  0
LINE
  5
A8F
330
A02
100
AcDbEntity
  8
Shape2DView
100
AcDbLine
 10
982.4
 20
89.95
 30
0
 11
982.4
 21
87.7312
 31
0
  0
LINE
  5
A90
330
A02
100
AcDbEntity
  8
Shape2DView
100
AcDbLine
 10
982.4
 20
87.7312
 30
0
 11
977.9
 21
87.7312
 31
0
  0
LINE
  5
A91
330
A02
100
AcDbEntity
  8
Shape2DView
100
AcDbLine
 10
977.9
 20
87.7312
 30
0
 11
977.9
 21
82.8687
 31
0
  0
LINE
  5
A92
330
A02
100
AcDbEntity
  8
Shape2DView
100
AcDbLine
 10
977.9
 20
82.8687
 30
0
 11
982.4
 21
82.8688
 31
0
  0
LINE
  5
A93
330
A02
100
AcDbEntity
  8
Shape2DView
100
AcDbLine
 10
982.4
 20
82.8688
 30
0
 11
982.4
 21
80.65
 31
0
  0
LINE
  5
A94
330
A02
100
AcDbEntity
  8
Shape2DView
100
AcDbLine
 10
982.4
 20
80.65
 30
0
 11
986.9
 21
80.65
 31
0
  0
LINE
  5
A95
330
A02
100
AcDbEntity
  8
Shape2DView
100
AcDbLine
 10
986.9
 20
80.65
 30
0
 11
986.9
 21
82.8688
 31
0
  0
LINE
  5
A96
330
A02
100
AcDbEntity
  8
Shape2DView
100
AcDbLine
 10
986.9
 20
82.8688
 30
0
 11
1009
 21
82.8688
 31
0
  0
LINE
  5
A97
330
A02
100
AcDbEntity
  8
Shape2DView
100
AcDbLine
 10
1009
 20
65.1
 30
0
 11
1009
 21
82.8688
 31
0
  0
LINE
  5
A98
330
A02
100
AcDbEntity
  8
Shape2DView
100
AcDbLine
 10
1016
 20
65.1
 30
0
 11
1009
 21
65.1
 31
0
  0
ARC
  5
A99
330
A02
100
AcDbEntity
  8
Shape2DView
100
AcDbCircle
 10
1016
 20
63.1
 30
0
 40
2
100
AcDbArc
 50
-2.03555e-13
 51
90
  0
CIRCLE
  5
A9A
330
A02
100
AcDbEntity
  8
Shape2DView
100
AcDbCircle
 10
396.373
 20
67.0911
 40
2.43125
  0
CIRCLE
  5
A9B
330
A02
100
AcDbEntity
  8
Shape2DView
100
AcDbCircle
 10
621.627
 20
67.0911
 40
2.43125
  0
CIRCLE
  5
A9C
330
A02
100
AcDbEntity
  8
Shape2DView
100
AcDbCircle
 10
535
 20
21.8
 40
2.43125
  0
CIRCLE
  5
A9D
330
A02
100
AcDbEntity
  8
Shape2DView
100
AcDbCircle
 10
576
 20
21.8
 40
2.43125
  0
LINE
  5
A9E
330
A02
100
AcDbEntity
  8
Shape2DView
100
AcDbLine
 10
654.3
 20
49.2
 30
0
 11
654.3
 21
43.5
 31
0
  0
LINE
  5
A9F
330
A02
100
AcDbEntity
  8
Shape2DView
100
AcDbLine
 10
714.7
 20
49.2
 30
0
 11
654.3
 21
49.2
 31
0
  0
LINE
  5
AA0
330
A02
100
AcDbEntity
  8
Shape2DView
100
AcDbLine
 10
654.3
 20
43.5
 30
0
 11
714.7
 21
43.5
 31
0
  0
LINE
  5
AA1
330
A02
100
AcDbEntity
  8
Shape2DView
100
AcDbLine
 10
714.7
 20
43.5
 30
0
 11
714.7
 21
49.2
 31
0
  0
CIRCLE
  5
AA2
330
A02
100
AcDbEntity
  8
Shape2DView
100
AcDbCircle
 10
796.75
 20
46.35
 40
2.43125
  0
LINE
  5
AA3
330
A02
100
AcDbEntity
  8
Shape2DView
100
AcDbLine
 10
878.8
 20
49.2
 30
0
 11
878.8
 21
43.5
 31
0
  0
LINE
  5
AA4
330
A02
100
AcDbEntity
  8
Shape2DView
100
AcDbLine
 10
939.2
 20
49.2
 30
0
 11
878.8
 21
49.2
 31
0
  0
LINE
  5
AA5
330
A02
100
AcDbEntity
  8
Shape2DView
100
AcDbLine
 10
878.8
 20
43.5
 30
0
 11
939.2
 21
43.5
 31
0
  0
LINE
  5
AA6
330
A02
100
AcDbEntity
  8
Shape2DView
100
AcDbLine
 10
939.2
 20
43.5
 30
0
 11
939.2
 21
49.2
 31
0
  0
CIRCLE
  5
AA7
330
A02
100
AcDbEntity
  8
Shape2DView
100
AcDbCircle
 10
896
 20
21.8
 40
2.43125
  0
CIRCLE
  5
AA8
330
A02
100
AcDbEntity
  8
Shape2DView
100
AcDbCircle
 10
960
 20
21.8
 40
2.43125
  0
ENDSEC
  0
SECTION
  2
OBJECTS
  0
DICTIONARY
  5
F000
330
0
100
AcDbDictionary
  3
ACAD_GROUP
350
F001
  0
DICTIONARY
  5
F001
330
F000
100
AcDbDictionary
  0
ENDSEC
  0
EOF