<?xml version="1.0" encoding="UTF-8" standalone="no"?>
<svg
   viewBox="0 0 793.7007874015749 1122.5196850393702"
   width="793.7007874015749"
   height="1122.5196850393702"
   version="1.1"
   id="svg98"
   sodipodi:docname="Knobs-Base_Knob-middle.svg"
   inkscape:version="1.1 (1:1.1+202105261517+ce6663b3b7)"
   xmlns:inkscape="http://www.inkscape.org/namespaces/inkscape"
   xmlns:sodipodi="http://sodipodi.sourceforge.net/DTD/sodipodi-0.dtd"
   xmlns="http://www.w3.org/2000/svg"
   xmlns:svg="http://www.w3.org/2000/svg">
  <sodipodi:namedview
     id="namedview100"
     pagecolor="#ffffff"
     bordercolor="#666666"
     borderopacity="1.0"
     inkscape:pageshadow="2"
     inkscape:pageopacity="0.0"
     inkscape:pagecheckerboard="0"
     showgrid="false"
     inkscape:zoom="0.29219978"
     inkscape:cx="-92.402532"
     inkscape:cy="463.72382"
     inkscape:window-width="1280"
     inkscape:window-height="964"
     inkscape:window-x="0"
     inkscape:window-y="0"
     inkscape:window-maximized="1"
     inkscape:current-layer="g96" />
  <desc
     id="desc2">Knobs-Base_Knob-middle.dxf - scale = 1.0, origin = (0.0, 0.0), method = manual</desc>
  <defs
     id="defs16">
    <marker
       id="DistanceX"
       orient="auto"
       refX="0.0"
       refY="0.0"
       style="overflow:visible">
      <path
         d="M 3,-3 L -3,3 M 0,-5 L  0,5"
         style="stroke:#000000; stroke-width:0.5"
         id="path4" />
    </marker>
    <pattern
       id="Hatch"
       patternUnits="userSpaceOnUse"
       width="8"
       height="8"
       x="0"
       y="0">
      <path
         d="M8 4 l-4,4"
         stroke="#000000"
         stroke-width="0.25"
         linecap="square"
         id="path7" />
      <path
         d="M6 2 l-4,4"
         stroke="#000000"
         stroke-width="0.25"
         linecap="square"
         id="path9" />
      <path
         d="M4 0 l-4,4"
         stroke="#000000"
         stroke-width="0.25"
         linecap="square"
         id="path11" />
    </pattern>
    <symbol
       id="*MODEL_SPACE" />
    <symbol
       id="*PAPER_SPACE" />
  </defs>
  <g
     inkscape:groupmode="layer"
     inkscape:label="0"
     id="g18" />
  <g
     inkscape:groupmode="layer"
     inkscape:label="none"
     id="g20" />
  <g
     inkscape:groupmode="layer"
     inkscape:label="Shape2DView"
     id="g96">
    <g
       id="g324"
       transform="translate(-14.367501,63.036146)">
      <path
         id="path92"
         style="fill:none;stroke:#000000"
         d="m 381.56714,524.60223 c -0.36927,1.37648 0.0466,2.84627 1.08319,3.82669 4.73243,4.47588 10.45042,7.77716 16.69287,9.63764 1.36737,0.40752 2.84817,0.0328 3.85712,-0.97438 l 5.34506,-5.34751 c 1.476,-1.47533 3.86906,-1.47533 5.34506,0 l 5.34506,5.34751 c 1.00894,1.00715 2.48975,1.3819 3.85719,0.97436 6.24241,-1.86049 11.96032,-5.16173 16.69274,-9.63756 1.03666,-0.98047 1.45252,-2.45026 1.08325,-3.82676 l -1.95646,-7.30573 c -0.54025,-2.01375 0.65628,-4.08621 2.67256,-4.62448 l 7.30149,-1.95822 c 1.37821,-0.36951 2.44316,-1.46454 2.77395,-2.85256 1.50998,-6.33632 1.50998,-12.93879 0,-19.27511 -0.33079,-1.38801 -1.39573,-2.48305 -2.77395,-2.85224 l -7.30149,-1.95823 c -2.01628,-0.53858 -3.21281,-2.61103 -2.67256,-4.62947 l 1.95646,-7.30074 c 0.36926,-1.37681 -0.0466,-2.84659 -1.08325,-3.82706 -4.73242,-4.47584 -10.45033,-7.77707 -16.69274,-9.63756 -1.36744,-0.40755 -2.84825,-0.0328 -3.85719,0.97466 l -5.34506,5.34752 c -1.476,1.47501 -3.86906,1.47501 -5.34506,0 l -5.34506,-5.34752 c -1.00895,-1.00745 -2.48975,-1.38221 -3.85712,-0.97469 -6.24245,1.86048 -11.96044,5.16176 -16.69287,9.63764 -1.03661,0.98042 -1.45246,2.45021 -1.08319,3.82701 l 1.95646,7.30074 c 0.54024,2.01844 -0.65629,4.09089 -2.67256,4.62948 l -7.3015,1.95822 c -1.37821,0.36919 -2.44316,1.46422 -2.77393,2.85216 -1.51001,6.33635 -1.51001,12.93892 0,19.27527 0.33077,1.38794 1.39572,2.48297 2.77393,2.85248 l 7.3015,1.95822 c 2.01627,0.53827 3.2128,2.61073 2.67256,4.62448 z"
         sodipodi:nodetypes="ccccccccccccccccccccccccccccccccccccc" />
      <path
         d="m 423.59586,498.22368 a 12.377955,12.377955 0 1 0 -24.75591,0 12.377955,12.377955 0 1 0 24.75591,0 z"
         style="fill:none;stroke:#000000"
         id="path94" />
    </g>
  </g>
</svg>
