<?xml version="1.0" encoding="UTF-8" standalone="no"?>
<!-- Created with Inkscape (http://www.inkscape.org/) -->

<svg
   width="841mm"
   height="1189mm"
   viewBox="0 0 841 1189"
   version="1.1"
   id="svg5"
   inkscape:version="1.1 (1:1.1+202105261517+ce6663b3b7)"
   sodipodi:docname="Foot_shape.svg"
   xmlns:inkscape="http://www.inkscape.org/namespaces/inkscape"
   xmlns:sodipodi="http://sodipodi.sourceforge.net/DTD/sodipodi-0.dtd"
   xmlns="http://www.w3.org/2000/svg"
   xmlns:svg="http://www.w3.org/2000/svg">
  <sodipodi:namedview
     id="namedview7"
     pagecolor="#ffffff"
     bordercolor="#666666"
     borderopacity="1.0"
     inkscape:pageshadow="2"
     inkscape:pageopacity="0.0"
     inkscape:pagecheckerboard="0"
     inkscape:document-units="mm"
     showgrid="false"
     inkscape:zoom="0.073049944"
     inkscape:cx="2950.0365"
     inkscape:cy="1937.0309"
     inkscape:window-width="1280"
     inkscape:window-height="964"
     inkscape:window-x="0"
     inkscape:window-y="0"
     inkscape:window-maximized="1"
     inkscape:current-layer="layer1" />
  <defs
     id="defs2">
    <marker
       id="DistanceX"
       orient="auto"
       refX="0"
       refY="0"
       style="overflow:visible">
      <path
         d="M 3,-3 -3,3 M 0,-5 V 5"
         style="stroke:#000000;stroke-width:0.5"
         id="path27" />
    </marker>
    <pattern
       id="Hatch"
       patternUnits="userSpaceOnUse"
       width="8"
       height="8"
       x="0"
       y="0">
      <path
         d="M8 4 l-4,4"
         stroke="#000000"
         stroke-width="0.25"
         linecap="square"
         id="path30" />
      <path
         d="M6 2 l-4,4"
         stroke="#000000"
         stroke-width="0.25"
         linecap="square"
         id="path32" />
      <path
         d="M4 0 l-4,4"
         stroke="#000000"
         stroke-width="0.25"
         linecap="square"
         id="path34" />
    </pattern>
    <symbol
       id="*MODEL_SPACE" />
    <symbol
       id="*PAPER_SPACE" />
    <marker
       id="DistanceX-3"
       orient="auto"
       refX="0.0"
       refY="0.0"
       style="overflow:visible">
      <path
         d="M 3,-3 L -3,3 M 0,-5 L  0,5"
         style="stroke:#000000; stroke-width:0.5"
         id="path862" />
    </marker>
    <pattern
       id="Hatch-6"
       patternUnits="userSpaceOnUse"
       width="8"
       height="8"
       x="0"
       y="0">
      <path
         d="M8 4 l-4,4"
         stroke="#000000"
         stroke-width="0.25"
         linecap="square"
         id="path865" />
      <path
         d="M6 2 l-4,4"
         stroke="#000000"
         stroke-width="0.25"
         linecap="square"
         id="path867" />
      <path
         d="M4 0 l-4,4"
         stroke="#000000"
         stroke-width="0.25"
         linecap="square"
         id="path869" />
    </pattern>
    <symbol
       id="*MODEL_SPACE-7" />
    <symbol
       id="*PAPER_SPACE-5" />
    <marker
       id="DistanceX-6"
       orient="auto"
       refX="0.0"
       refY="0.0"
       style="overflow:visible">
      <path
         d="M 3,-3 L -3,3 M 0,-5 L  0,5"
         style="stroke:#000000; stroke-width:0.5"
         id="path2849" />
    </marker>
    <pattern
       id="Hatch-0"
       patternUnits="userSpaceOnUse"
       width="8"
       height="8"
       x="0"
       y="0">
      <path
         d="M8 4 l-4,4"
         stroke="#000000"
         stroke-width="0.25"
         linecap="square"
         id="path2852" />
      <path
         d="M6 2 l-4,4"
         stroke="#000000"
         stroke-width="0.25"
         linecap="square"
         id="path2854" />
      <path
         d="M4 0 l-4,4"
         stroke="#000000"
         stroke-width="0.25"
         linecap="square"
         id="path2856" />
    </pattern>
    <symbol
       id="*MODEL_SPACE-6" />
    <symbol
       id="*PAPER_SPACE-2" />
  </defs>
  <g
     inkscape:label="Capa 1"
     inkscape:groupmode="layer"
     id="layer1">
    <g
       inkscape:label="0"
       id="g2863"
       transform="matrix(0.26458333,0,0,0.26458333,-88.566081,227.93092)" />
    <g
       inkscape:label="none"
       id="g2865"
       transform="matrix(0.26458333,0,0,0.26458333,-88.566081,227.93092)" />
    <g
       id="g3957"
       transform="translate(4.566525,69.56953)">
      <path
         id="path2925"
         style="fill:none;stroke:#000000;stroke-width:0.264583"
         d="M 470.0831,898.93012 445.93458,874.7816 h -86.00017 l -24.15116,24.14852 H 235.28391 L 220.43285,884.0817 V 704.78152 l 14.85106,-14.85106 h 95.65217 l 49.49825,-49.49561 V 409.42794 l -49.49825,-49.49693 h -95.65217 l -14.85106,-14.85 V 165.78082 l 14.85106,-14.85 h 100.49934 l 24.15116,24.15011 h 86.00017 l 24.14852,-24.15011 h 26.0006 100.49934 l 14.85106,14.85 v 144.653 l -49.49825,49.49719 v 329.99945 l 49.49825,49.49825 V 884.0817 l -14.85106,14.84842 H 496.0837 Z"
         sodipodi:nodetypes="ccccccccccccccccccccccccccccccc" />
      <path
         id="path2933"
         style="fill:none;stroke:#000000;stroke-width:0.264583"
         d="m 420.68275,484.63098 h -9.49855 v 80.5987 h 9.49855 z"
         sodipodi:nodetypes="ccccc" />
      <path
         id="path2941"
         style="fill:none;stroke:#000000;stroke-width:0.264583"
         d="m 420.68275,709.63132 h -9.49855 v 80.60002 h 9.49855 z"
         sodipodi:nodetypes="ccccc" />
      <path
         id="path2949"
         style="fill:none;stroke:#000000;stroke-width:0.264583"
         d="m 420.68275,259.6309 h -9.49855 v 80.60002 h 9.49855 z"
         sodipodi:nodetypes="ccccc" />
      <path
         id="path2957"
         style="fill:none;stroke:#000000;stroke-width:0.264583"
         d="m 326.13389,165.78081 h -80.39893 v 9.30011 h 80.39893 z"
         sodipodi:nodetypes="ccccc" />
      <path
         id="path2965"
         style="fill:none;stroke:#000000;stroke-width:0.264583"
         d="m 505.73306,175.08092 v -9.30011 h 80.40158 v 9.30011 z"
         sodipodi:nodetypes="ccccc" />
      <path
         id="path2973"
         style="fill:none;stroke:#000000;stroke-width:0.264583"
         d="m 586.13464,874.78159 h -80.40158 v 9.3001 h 80.40158 z"
         sodipodi:nodetypes="ccccc" />
      <path
         id="path2981"
         style="fill:none;stroke:#000000;stroke-width:0.264583"
         d="m 326.13389,874.78159 h -80.39893 v 9.3001 h 80.39893 z"
         sodipodi:nodetypes="ccccc" />
      <path
         d="m 478.91516,170.43091 a 2.48125,2.48125 0 1 0 -4.9625,0 2.48125,2.48125 0 1 0 4.9625,0 z"
         style="fill:none;stroke:#000000;stroke-width:0.264583"
         id="path2983" />
      <path
         d="m 478.91516,879.4309 a 2.48125,2.48125 0 1 0 -4.9625,0 2.48125,2.48125 0 1 0 4.9625,0 z"
         style="fill:none;stroke:#000000;stroke-width:0.264583"
         id="path2985" />
    </g>
  </g>
</svg>
