<?xml version="1.0" encoding="UTF-8" standalone="no"?>
<svg
   viewBox="0 0 793.7007874015749 1122.5196850393702"
   width="793.7007874015749"
   height="1122.5196850393702"
   version="1.1"
   id="svg5695"
   sodipodi:docname="Acrylic_support_shape.svg"
   inkscape:version="1.1 (1:1.1+202105261517+ce6663b3b7)"
   xmlns:inkscape="http://www.inkscape.org/namespaces/inkscape"
   xmlns:sodipodi="http://sodipodi.sourceforge.net/DTD/sodipodi-0.dtd"
   xmlns="http://www.w3.org/2000/svg"
   xmlns:svg="http://www.w3.org/2000/svg">
  <sodipodi:namedview
     id="namedview5697"
     pagecolor="#ffffff"
     bordercolor="#666666"
     borderopacity="1.0"
     inkscape:pageshadow="2"
     inkscape:pageopacity="0.0"
     inkscape:pagecheckerboard="0"
     showgrid="false"
     inkscape:zoom="0.14609989"
     inkscape:cx="1238.8784"
     inkscape:cy="1824.0944"
     inkscape:window-width="1280"
     inkscape:window-height="964"
     inkscape:window-x="0"
     inkscape:window-y="0"
     inkscape:window-maximized="1"
     inkscape:current-layer="g5693" />
  <desc
     id="desc5591">Acrylic_support_shape.dxf - scale = 1.0, origin = (0.0, 0.0), method = manual</desc>
  <defs
     id="defs5605">
    <marker
       id="DistanceX"
       orient="auto"
       refX="0.0"
       refY="0.0"
       style="overflow:visible">
      <path
         d="M 3,-3 L -3,3 M 0,-5 L  0,5"
         style="stroke:#000000; stroke-width:0.5"
         id="path5593" />
    </marker>
    <pattern
       id="Hatch"
       patternUnits="userSpaceOnUse"
       width="8"
       height="8"
       x="0"
       y="0">
      <path
         d="M8 4 l-4,4"
         stroke="#000000"
         stroke-width="0.25"
         linecap="square"
         id="path5596" />
      <path
         d="M6 2 l-4,4"
         stroke="#000000"
         stroke-width="0.25"
         linecap="square"
         id="path5598" />
      <path
         d="M4 0 l-4,4"
         stroke="#000000"
         stroke-width="0.25"
         linecap="square"
         id="path5600" />
    </pattern>
    <symbol
       id="*MODEL_SPACE" />
    <symbol
       id="*PAPER_SPACE" />
  </defs>
  <g
     inkscape:groupmode="layer"
     inkscape:label="0"
     id="g5607" />
  <g
     inkscape:groupmode="layer"
     inkscape:label="none"
     id="g5609" />
  <g
     inkscape:groupmode="layer"
     inkscape:label="Shape2DView001"
     id="g5693">
    <path
       id="path5691"
       style="fill:none;stroke:#000000"
       d="m 368.50885,624.56688 15.1118,-10e-6 c 16.7007,0 30.2379,13.53721 30.2381,30.23621 l 1e-4,15.1181 h -20.7888 c -3.13,0 -5.6682,2.53823 -5.6697,5.6693 v 56.69291 c 0,3.13107 2.5397,5.6693 5.6697,5.66929 h 20.7888 v -26.4567 h 64.2508 c 6.263,-4e-5 11.3394,-5.07648 11.3393,-11.33859 v -124.7244 c 10e-5,-18.78635 -15.2292,-34.01571 -34.0178,-34.01582 h -3.0218 c -2.087,4e-5 -3.7792,1.69221 -3.7798,3.77976 l -7e-4,52.91325 h -34.77 l 7e-4,-142.2991 h -33.6394 v 8.693 h -17.01 v -8.693 h -15.11 v -17.764 h 15.11 v -8.693 h 17.01 v 8.693 h 33.64 v -53.48 l -103.9387,-1.1e-4 c -3.1297,-1.1e-4 -5.6679,2.53811 -5.6696,5.66915 v 113.38591 c 0,3.13102 2.5399,5.66924 5.6696,5.66915 h 11.3387 c 3.1311,9e-5 5.6693,2.53831 5.669,5.66914 v 134.17347 c 3e-4,3.13102 2.5385,5.66924 5.6696,5.66929 h 20.7887 c 8.3481,5e-5 15.1168,-6.76858 15.1191,-15.11811 z"
       sodipodi:nodetypes="cccccccccccccccccccccccccccccccccccccccccc" />
  </g>
</svg>
