<?xml version="1.0" encoding="UTF-8" standalone="no"?>
<svg
   viewBox="0 0 793.7007874015749 1122.5196850393702"
   width="793.7007874015749"
   height="1122.5196850393702"
   version="1.1"
   id="svg5949"
   sodipodi:docname="Acrylic_top_shape.svg"
   inkscape:version="1.1 (1:1.1+202105261517+ce6663b3b7)"
   xmlns:inkscape="http://www.inkscape.org/namespaces/inkscape"
   xmlns:sodipodi="http://sodipodi.sourceforge.net/DTD/sodipodi-0.dtd"
   xmlns="http://www.w3.org/2000/svg"
   xmlns:svg="http://www.w3.org/2000/svg">
  <sodipodi:namedview
     id="namedview5951"
     pagecolor="#ffffff"
     bordercolor="#666666"
     borderopacity="1.0"
     inkscape:pageshadow="2"
     inkscape:pageopacity="0.0"
     inkscape:pagecheckerboard="0"
     showgrid="false"
     inkscape:zoom="0.58439957"
     inkscape:cx="396.98866"
     inkscape:cy="699.00805"
     inkscape:window-width="1280"
     inkscape:window-height="964"
     inkscape:window-x="0"
     inkscape:window-y="0"
     inkscape:window-maximized="1"
     inkscape:current-layer="g5947" />
  <desc
     id="desc5865">Acrylic_top_shape.dxf - scale = 1.0, origin = (0.0, 0.0), method = manual</desc>
  <defs
     id="defs5879">
    <marker
       id="DistanceX"
       orient="auto"
       refX="0.0"
       refY="0.0"
       style="overflow:visible">
      <path
         d="M 3,-3 L -3,3 M 0,-5 L  0,5"
         style="stroke:#000000; stroke-width:0.5"
         id="path5867" />
    </marker>
    <pattern
       id="Hatch"
       patternUnits="userSpaceOnUse"
       width="8"
       height="8"
       x="0"
       y="0">
      <path
         d="M8 4 l-4,4"
         stroke="#000000"
         stroke-width="0.25"
         linecap="square"
         id="path5870" />
      <path
         d="M6 2 l-4,4"
         stroke="#000000"
         stroke-width="0.25"
         linecap="square"
         id="path5872" />
      <path
         d="M4 0 l-4,4"
         stroke="#000000"
         stroke-width="0.25"
         linecap="square"
         id="path5874" />
    </pattern>
    <symbol
       id="*MODEL_SPACE" />
    <symbol
       id="*PAPER_SPACE" />
  </defs>
  <g
     inkscape:groupmode="layer"
     inkscape:label="0"
     id="g5881" />
  <g
     inkscape:groupmode="layer"
     inkscape:label="none"
     id="g5883" />
  <g
     inkscape:groupmode="layer"
     inkscape:label="Shape2DView002"
     id="g5947">
    <path
       id="path5945"
       style="fill:none;stroke:#000000"
       d="m 452.411,541.41714 c -2.087,10e-5 -3.7792,1.6922 -3.7798,3.7798 l -7e-4,52.9132 h -34.77 l -10e-4,-142.2991 h -33.64099 v 8.693 h -17.01 v -8.693 h -15.11 v -17.76398 h 15.11 v -8.693 h 17.01 v 8.693 h 33.63999 v -53.48 l -103.772,-5e-5 c -3.2232,-9e-5 -5.8345,2.6112 -5.8363,5.83223 v 113.0596 c 0,3.221 2.6131,5.8323 5.8363,5.8323 l 11.01201,1e-4 c 3.2212,2e-4 5.8324,2.6114 5.8322,5.8327 l 1e-4,203.9311 c 3e-4,10.4369 8.461,18.8976 18.8988,18.8976 h 68.03089 v -26.4567 h 64.2508 c 6.263,0 11.3394,-5.0765 11.3393,-11.3386 v -124.7244 c 10e-5,-18.7863 -15.2292,-34.0157 -34.0178,-34.0158 z"
       sodipodi:nodetypes="cccccccccccccccccccccccccccccccc" />
  </g>
</svg>
