<?xml version="1.0" encoding="UTF-8" standalone="no"?>
<svg
   viewBox="0 0 1122.5197 1587.4016"
   width="297mm"
   height="420mm"
   version="1.1"
   id="svg112"
   sodipodi:docname="Support_magnets.svg"
   inkscape:version="1.1 (1:1.1+202105261517+ce6663b3b7)"
   xmlns:inkscape="http://www.inkscape.org/namespaces/inkscape"
   xmlns:sodipodi="http://sodipodi.sourceforge.net/DTD/sodipodi-0.dtd"
   xmlns="http://www.w3.org/2000/svg"
   xmlns:svg="http://www.w3.org/2000/svg">
  <sodipodi:namedview
     id="namedview114"
     pagecolor="#ffffff"
     bordercolor="#666666"
     borderopacity="1.0"
     inkscape:pageshadow="2"
     inkscape:pageopacity="0.0"
     inkscape:pagecheckerboard="0"
     showgrid="false"
     units="mm"
     inkscape:zoom="0.20661645"
     inkscape:cx="723.56292"
     inkscape:cy="907.47857"
     inkscape:window-width="1280"
     inkscape:window-height="964"
     inkscape:window-x="0"
     inkscape:window-y="0"
     inkscape:window-maximized="1"
     inkscape:current-layer="g110"
     inkscape:document-units="mm" />
  <desc
     id="desc2">Support_magnets.dxf - scale = 1.0, origin = (0.0, 0.0), method = manual</desc>
  <defs
     id="defs16">
    <marker
       id="DistanceX"
       orient="auto"
       refX="0"
       refY="0"
       style="overflow:visible">
      <path
         d="M 3,-3 -3,3 M 0,-5 V 5"
         style="stroke:#000000;stroke-width:0.5"
         id="path4" />
    </marker>
    <pattern
       id="Hatch"
       patternUnits="userSpaceOnUse"
       width="8"
       height="8"
       x="0"
       y="0">
      <path
         d="M8 4 l-4,4"
         stroke="#000000"
         stroke-width="0.25"
         linecap="square"
         id="path7" />
      <path
         d="M6 2 l-4,4"
         stroke="#000000"
         stroke-width="0.25"
         linecap="square"
         id="path9" />
      <path
         d="M4 0 l-4,4"
         stroke="#000000"
         stroke-width="0.25"
         linecap="square"
         id="path11" />
    </pattern>
    <symbol
       id="*MODEL_SPACE" />
    <symbol
       id="*PAPER_SPACE" />
  </defs>
  <g
     inkscape:groupmode="layer"
     inkscape:label="0"
     id="g18" />
  <g
     inkscape:groupmode="layer"
     inkscape:label="none"
     id="g20" />
  <g
     inkscape:groupmode="layer"
     inkscape:label="Shape2DView"
     id="g110">
    <g
       id="g336"
       transform="rotate(90,-418.23856,3021.128)">
      <path
         id="path104"
         style="fill:none;stroke:#000000"
         d="m -2370.0122,1685.65 v 570.73 h 126.87 v 188.97 h -34.02 v 26.46 c 0,4.1747 -3.3843,7.5591 -7.559,7.5591 h -117.1699 c -4.1746,0 -7.5589,-3.3844 -7.5589,-7.5591 v -26.46 h -86.93 v -167.0504 c 0,-10.4372 -8.4598,-18.898 -18.8988,-18.8988 l -8.9922,-8e-4 v -155.71 h -34.92 v 155.71 l -9.0006,8e-4 c -10.4374,8e-4 -18.8982,8.4616 -18.8999,18.8988 V 2445.35 h -87.38 v -83.52 h 8.39 v -17.01 h -8.39 v -17.01 h -17.99 v 17.01 h -8.39 v 17.01 h 8.39 v 83.52 h -189.43 l 1e-4,26.46 c 1e-4,4.1747 -3.3842,7.5591 -7.5589,7.559 h -117.16 c -4.1747,10e-5 -7.559,-3.3843 -7.559,-7.559 v -26.46 h -34.02 v -188.97 h 214.54 l 212.0139,-652.49 z"
         sodipodi:nodetypes="ccccccccccccccccccccccccccccccccccccccccccc" />
      <path
         d="m -2429.2309,1695.1332 a 9.448819,9.448819 0 1 0 -18.8976,0 9.448819,9.448819 0 1 0 18.8976,0 z"
         style="fill:none;stroke:#000000"
         id="path106" />
      <path
         d="m -2562.2287,1651.9219 a 9.448819,9.448819 0 1 0 -18.8976,0 9.448819,9.448819 0 1 0 18.8976,0 z"
         style="fill:none;stroke:#000000"
         id="path108" />
    </g>
  </g>
</svg>
