<?xml version="1.0" encoding="UTF-8" standalone="no"?>
<svg
   viewBox="0 0 3178.5826 4493.8584"
   width="841mm"
   height="1189mm"
   version="1.1"
   id="svg132"
   sodipodi:docname="Union_Front.svg"
   inkscape:version="1.1 (1:1.1+202105261517+ce6663b3b7)"
   xmlns:inkscape="http://www.inkscape.org/namespaces/inkscape"
   xmlns:sodipodi="http://sodipodi.sourceforge.net/DTD/sodipodi-0.dtd"
   xmlns="http://www.w3.org/2000/svg"
   xmlns:svg="http://www.w3.org/2000/svg">
  <sodipodi:namedview
     id="namedview134"
     pagecolor="#ffffff"
     bordercolor="#666666"
     borderopacity="1.0"
     inkscape:pageshadow="2"
     inkscape:pageopacity="0.0"
     inkscape:pagecheckerboard="0"
     showgrid="false"
     units="mm"
     inkscape:zoom="0.14609989"
     inkscape:cx="2022.5888"
     inkscape:cy="2207.3938"
     inkscape:window-width="1280"
     inkscape:window-height="964"
     inkscape:window-x="0"
     inkscape:window-y="0"
     inkscape:window-maximized="1"
     inkscape:current-layer="g130"
     inkscape:document-units="mm" />
  <desc
     id="desc2">Union_Front.dxf - scale = 1.0, origin = (0.0, 0.0), method = manual</desc>
  <defs
     id="defs16">
    <marker
       id="DistanceX"
       orient="auto"
       refX="0"
       refY="0"
       style="overflow:visible">
      <path
         d="M 3,-3 -3,3 M 0,-5 V 5"
         style="stroke:#000000;stroke-width:0.5"
         id="path4" />
    </marker>
    <pattern
       id="Hatch"
       patternUnits="userSpaceOnUse"
       width="8"
       height="8"
       x="0"
       y="0">
      <path
         d="M8 4 l-4,4"
         stroke="#000000"
         stroke-width="0.25"
         linecap="square"
         id="path7" />
      <path
         d="M6 2 l-4,4"
         stroke="#000000"
         stroke-width="0.25"
         linecap="square"
         id="path9" />
      <path
         d="M4 0 l-4,4"
         stroke="#000000"
         stroke-width="0.25"
         linecap="square"
         id="path11" />
    </pattern>
    <symbol
       id="*MODEL_SPACE" />
    <symbol
       id="*PAPER_SPACE" />
  </defs>
  <g
     inkscape:groupmode="layer"
     inkscape:label="0"
     id="g18" />
  <g
     inkscape:groupmode="layer"
     inkscape:label="none"
     id="g20" />
  <g
     inkscape:groupmode="layer"
     inkscape:label="Shape2DView004"
     id="g130">
    <g
       id="g1558"
       transform="translate(1912.4408,1124.4106)">
      <path
         id="path72"
         style="fill:none;stroke:#000000"
         d="m -24.566915,844.7242 c -1.4e-5,-8.34929 -6.768622,-15.1179 -15.118105,-15.11805 l -7.55908,-1.5e-4 v -56.693 l 7.559081,2e-4 c 8.349482,1.9e-4 15.11809,-6.76842 15.118105,-15.11806 L -24.5669,638.74 -115.276,548.031 V -487.559 L -326.929,-699.213 H -587.717 V 597.165 l -34.015,34.016 v 982.679 l 34.015,34.01 v 1296.38 h 260.788 L -115.276,2732.6 V 1697.01 l 90.7091,-90.71 -1.5e-5,-119.0579 c -2e-5,-8.3475 -6.768626,-15.1161 -15.118105,-15.1141 h -7.55908 v -56.7 h 7.55908 c 8.349479,0 15.118085,-6.7671 15.118105,-15.1191 z"
         sodipodi:nodetypes="ccccccccccccccccccccccccccc" />
      <path
         id="path80"
         style="fill:none;stroke:#000000"
         d="m -417.071,1390.493 h -114.52 v 34.77 h 114.52 z"
         sodipodi:nodetypes="ccccc" />
      <path
         id="path88"
         style="fill:none;stroke:#000000"
         d="m -417.071,819.78305 h -114.52 v 34.771 h 114.52 z"
         sodipodi:nodetypes="ccccc" />
      <path
         id="path96"
         style="fill:none;stroke:#000000"
         d="m -171.402,1390.493 h -114.519 v 34.77 h 114.519 z"
         sodipodi:nodetypes="ccccc" />
      <path
         id="path104"
         style="fill:none;stroke:#000000"
         d="m -171.402,819.78305 h -114.519 v 34.771 h 114.519 z"
         sodipodi:nodetypes="ccccc" />
      <path
         d="m -319.37008,837.1684 a 32.125985,32.125985 0 1 0 -64.25197,0 32.125985,32.125985 0 1 0 64.25197,0 z"
         style="fill:none;stroke:#000000"
         id="path106" />
      <path
         d="m -319.37008,1407.877 a 32.125985,32.125985 0 1 0 -64.25197,0 32.125985,32.125985 0 1 0 64.25197,0 z"
         style="fill:none;stroke:#000000"
         id="path108" />
      <path
         d="m -185.26772,1235.9085 a 9.377953,9.377953 0 1 0 -18.7559,0 9.377953,9.377953 0 1 0 18.7559,0 z"
         style="fill:none;stroke:#000000"
         id="path110" />
      <path
         d="m -185.26772,1009.1369 a 9.377953,9.377953 0 1 0 -18.7559,0 9.377953,9.377953 0 1 0 18.7559,0 z"
         style="fill:none;stroke:#000000"
         id="path112" />
      <path
         d="m -498.9685,1009.1369 a 9.377955,9.377955 0 1 0 -18.75591,0 9.377955,9.377955 0 1 0 18.75591,0 z"
         style="fill:none;stroke:#000000"
         id="path114" />
      <path
         d="m -498.9685,1235.9085 a 9.377955,9.377955 0 1 0 -18.75591,0 9.377955,9.377955 0 1 0 18.75591,0 z"
         style="fill:none;stroke:#000000"
         id="path116" />
      <path
         d="m -185.26772,2536.066 a 9.377953,9.377953 0 1 0 -18.7559,0 9.377953,9.377953 0 1 0 18.7559,0 z"
         style="fill:none;stroke:#000000"
         id="path118" />
      <path
         d="m -185.26772,-291.02057 a 9.377953,9.377953 0 1 0 -18.7559,0 9.377953,9.377953 0 1 0 18.7559,0 z"
         style="fill:none;stroke:#000000"
         id="path120" />
      <path
         d="m -342.11811,202.20777 a 9.377955,9.377955 0 1 0 -18.75591,0 9.377955,9.377955 0 1 0 18.75591,0 z"
         style="fill:none;stroke:#000000"
         id="path122" />
      <path
         d="m -342.11811,2042.8376 a 9.377955,9.377955 0 1 0 -18.75591,0 9.377955,9.377955 0 1 0 18.75591,0 z"
         style="fill:none;stroke:#000000"
         id="path124" />
      <path
         d="m -498.9685,2849.7668 a 9.377955,9.377955 0 1 0 -18.75591,0 9.377955,9.377955 0 1 0 18.75591,0 z"
         style="fill:none;stroke:#000000"
         id="path126" />
      <path
         d="m -498.9685,-604.72136 a 9.377955,9.377955 0 1 0 -18.75591,0 9.377955,9.377955 0 1 0 18.75591,0 z"
         style="fill:none;stroke:#000000"
         id="path128" />
    </g>
  </g>
</svg>
