<?xml version="1.0" encoding="UTF-8" standalone="no"?>
<svg
   viewBox="0 0 1122.5197 1587.4016"
   width="297mm"
   height="420mm"
   version="1.1"
   id="svg76"
   sodipodi:docname="Union_Foot.svg"
   inkscape:version="1.1 (1:1.1+202105261517+ce6663b3b7)"
   xmlns:inkscape="http://www.inkscape.org/namespaces/inkscape"
   xmlns:sodipodi="http://sodipodi.sourceforge.net/DTD/sodipodi-0.dtd"
   xmlns="http://www.w3.org/2000/svg"
   xmlns:svg="http://www.w3.org/2000/svg">
  <sodipodi:namedview
     id="namedview78"
     pagecolor="#ffffff"
     bordercolor="#666666"
     borderopacity="1.0"
     inkscape:pageshadow="2"
     inkscape:pageopacity="0.0"
     inkscape:pagecheckerboard="0"
     showgrid="false"
     units="mm"
     inkscape:zoom="0.14609989"
     inkscape:cx="-448.3234"
     inkscape:cy="783.71037"
     inkscape:window-width="1280"
     inkscape:window-height="964"
     inkscape:window-x="0"
     inkscape:window-y="0"
     inkscape:window-maximized="1"
     inkscape:current-layer="g74"
     inkscape:document-units="mm" />
  <desc
     id="desc2">Union_Foot.dxf - scale = 1.0, origin = (0.0, 0.0), method = manual</desc>
  <defs
     id="defs16" />
  <g
     inkscape:groupmode="layer"
     inkscape:label="0"
     id="g18" />
  <g
     inkscape:groupmode="layer"
     inkscape:label="none"
     id="g20" />
  <g
     inkscape:groupmode="layer"
     inkscape:label="Shape2DView003"
     id="g74">
    <g
       id="g427"
       transform="translate(561.25984,937.32329)">
      <path
         id="path36"
         style="fill:none;stroke:#000000"
         d="M 285.354,612.283 H -285.354 L -472.441,425.197 V -712.441 l 187.087,-187.087 h 570.708 l 187.087,187.087 V 425.197 Z"
         sodipodi:nodetypes="ccccccccc" />
      <path
         id="path44"
         style="fill:none;stroke:#000000"
         d="m 267.969,-673.323 h 34.771 m 0,0 v 303.496 m 0,0 h -34.771 m 0,0 v -303.496" />
      <path
         id="path52"
         style="fill:none;stroke:#000000"
         d="m -302.74,-673.323 h 34.771 m 0,0 v 303.496 m 0,0 h -34.771 m 0,0 v -303.496" />
      <path
         id="path60"
         style="fill:none;stroke:#000000"
         d="m 267.969,82.5827 h 34.771 m 0,0 V 386.079 m 0,0 h -34.771 m 0,0 V 82.5827" />
      <path
         id="path68"
         style="fill:none;stroke:#000000"
         d="m -302.74,82.5827 h 34.771 m 0,0 V 386.079 m 0,0 h -34.771 m 0,0 V 82.5827" />
      <path
         d="m 294.54331,-86.929134 a 9.18898,9.18898 0 1 0 -18.37796,0 9.18898,9.18898 0 1 0 18.37796,0 z"
         style="fill:none;stroke:#000000"
         id="path70" />
      <path
         d="m -276.16535,-86.929134 a 9.18898,9.18898 0 1 0 -18.37796,0 9.18898,9.18898 0 1 0 18.37796,0 z"
         style="fill:none;stroke:#000000"
         id="path72" />
    </g>
  </g>
</svg>
