<?xml version="1.0" encoding="UTF-8" standalone="no"?>
<svg
   xmlns:dc="http://purl.org/dc/elements/1.1/"
   xmlns:cc="http://creativecommons.org/ns#"
   xmlns:rdf="http://www.w3.org/1999/02/22-rdf-syntax-ns#"
   xmlns:svg="http://www.w3.org/2000/svg"
   xmlns="http://www.w3.org/2000/svg"
   xmlns:sodipodi="http://sodipodi.sourceforge.net/DTD/sodipodi-0.dtd"
   xmlns:inkscape="http://www.inkscape.org/namespaces/inkscape"
   width="900mm"
   height="1250mm"
   version="1.1"
   id="svg594"
   sodipodi:docname="B-MDF-1250x900-9mm.svg"
   inkscape:version="0.92.5 (0.92.5+68)">
  <metadata
     id="metadata598">
    <rdf:RDF>
      <cc:Work
         rdf:about="">
        <dc:format>image/svg+xml</dc:format>
        <dc:type
           rdf:resource="http://purl.org/dc/dcmitype/StillImage" />
        <dc:title></dc:title>
      </cc:Work>
    </rdf:RDF>
  </metadata>
  <sodipodi:namedview
     pagecolor="#ffffff"
     bordercolor="#666666"
     borderopacity="1"
     objecttolerance="10"
     gridtolerance="10"
     guidetolerance="10"
     inkscape:pageopacity="0"
     inkscape:pageshadow="2"
     inkscape:window-width="1280"
     inkscape:window-height="965"
     id="namedview596"
     showgrid="false"
     inkscape:zoom="0.11704576"
     inkscape:cx="1779.5239"
     inkscape:cy="2478.6225"
     inkscape:window-x="0"
     inkscape:window-y="0"
     inkscape:window-maximized="1"
     inkscape:current-layer="g592"
     units="mm"
     inkscape:document-units="mm"
     inkscape:snap-global="true"
     inkscape:snap-bbox="true" />
  <desc
     id="desc206">/home/pampa/Escritorio/Cenital/Frame/export_shape1-Shape2DView.dxf - scale = 1.000000, origin = (0.000000, 0.000000), method = manual</desc>
  <defs
     id="defs220">
    <marker
       id="DistanceX"
       orient="auto"
       refX="0"
       refY="0"
       style="overflow:visible">
      <path
         d="M 3,-3 -3,3 M 0,-5 V 5"
         style="stroke:#000000;stroke-width:0.5"
         id="path208"
         inkscape:connector-curvature="0" />
    </marker>
    <pattern
       height="8"
       id="Hatch"
       patternUnits="userSpaceOnUse"
       width="8"
       x="0"
       y="0">
      <path
         d="M8 4 l-4,4"
         linecap="square"
         stroke="#000000"
         stroke-width="0.25"
         id="path211" />
      <path
         d="M6 2 l-4,4"
         linecap="square"
         stroke="#000000"
         stroke-width="0.25"
         id="path213" />
      <path
         d="M4 0 l-4,4"
         linecap="square"
         stroke="#000000"
         stroke-width="0.25"
         id="path215" />
    </pattern>
    <symbol
       id="*MODEL_SPACE" />
    <symbol
       id="*PAPER_SPACE" />
    <marker
       style="overflow:visible"
       refY="0.0"
       refX="0.0"
       orient="auto"
       id="DistanceX-3">
      <path
         id="path641"
         style="stroke:#000000; stroke-width:0.5"
         d="M 3,-3 L -3,3 M 0,-5 L  0,5" />
    </marker>
    <pattern
       y="0"
       x="0"
       width="8"
       patternUnits="userSpaceOnUse"
       id="Hatch-6"
       height="8">
      <path
         id="path644"
         stroke-width="0.25"
         stroke="#000000"
         linecap="square"
         d="M8 4 l-4,4" />
      <path
         id="path646"
         stroke-width="0.25"
         stroke="#000000"
         linecap="square"
         d="M6 2 l-4,4" />
      <path
         id="path648"
         stroke-width="0.25"
         stroke="#000000"
         linecap="square"
         d="M4 0 l-4,4" />
    </pattern>
    <symbol
       id="*MODEL_SPACE-7" />
    <symbol
       id="*PAPER_SPACE-5" />
    <marker
       style="overflow:visible"
       refY="0.0"
       refX="0.0"
       orient="auto"
       id="DistanceX-35">
      <path
         id="path1912"
         style="stroke:#000000; stroke-width:0.5"
         d="M 3,-3 L -3,3 M 0,-5 L  0,5" />
    </marker>
    <pattern
       y="0"
       x="0"
       width="8"
       patternUnits="userSpaceOnUse"
       id="Hatch-62"
       height="8">
      <path
         id="path1915"
         stroke-width="0.25"
         stroke="#000000"
         linecap="square"
         d="M8 4 l-4,4" />
      <path
         id="path1917"
         stroke-width="0.25"
         stroke="#000000"
         linecap="square"
         d="M6 2 l-4,4" />
      <path
         id="path1919"
         stroke-width="0.25"
         stroke="#000000"
         linecap="square"
         d="M4 0 l-4,4" />
    </pattern>
    <symbol
       id="*MODEL_SPACE-9" />
    <symbol
       id="*PAPER_SPACE-1" />
    <marker
       style="overflow:visible"
       refY="0.0"
       refX="0.0"
       orient="auto"
       id="DistanceX-2">
      <path
         id="path2320"
         style="stroke:#000000; stroke-width:0.5"
         d="M 3,-3 L -3,3 M 0,-5 L  0,5" />
    </marker>
    <pattern
       y="0"
       x="0"
       width="8"
       patternUnits="userSpaceOnUse"
       id="Hatch-7"
       height="8">
      <path
         id="path2323"
         stroke-width="0.25"
         stroke="#000000"
         linecap="square"
         d="M8 4 l-4,4" />
      <path
         id="path2325"
         stroke-width="0.25"
         stroke="#000000"
         linecap="square"
         d="M6 2 l-4,4" />
      <path
         id="path2327"
         stroke-width="0.25"
         stroke="#000000"
         linecap="square"
         d="M4 0 l-4,4" />
    </pattern>
    <symbol
       id="*MODEL_SPACE-0" />
    <symbol
       id="*PAPER_SPACE-9" />
    <marker
       style="overflow:visible"
       refY="0.0"
       refX="0.0"
       orient="auto"
       id="DistanceX-36">
      <path
         id="path2974"
         style="stroke:#000000; stroke-width:0.5"
         d="M 3,-3 L -3,3 M 0,-5 L  0,5" />
    </marker>
    <pattern
       y="0"
       x="0"
       width="8"
       patternUnits="userSpaceOnUse"
       id="Hatch-0"
       height="8">
      <path
         id="path2977"
         stroke-width="0.25"
         stroke="#000000"
         linecap="square"
         d="M8 4 l-4,4" />
      <path
         id="path2979"
         stroke-width="0.25"
         stroke="#000000"
         linecap="square"
         d="M6 2 l-4,4" />
      <path
         id="path2981"
         stroke-width="0.25"
         stroke="#000000"
         linecap="square"
         d="M4 0 l-4,4" />
    </pattern>
    <symbol
       id="*MODEL_SPACE-6" />
    <symbol
       id="*PAPER_SPACE-2" />
    <marker
       style="overflow:visible"
       refY="0.0"
       refX="0.0"
       orient="auto"
       id="DistanceX-6">
      <path
         id="path3323"
         style="stroke:#000000; stroke-width:0.5"
         d="M 3,-3 L -3,3 M 0,-5 L  0,5" />
    </marker>
    <pattern
       y="0"
       x="0"
       width="8"
       patternUnits="userSpaceOnUse"
       id="Hatch-1"
       height="8">
      <path
         id="path3326"
         stroke-width="0.25"
         stroke="#000000"
         linecap="square"
         d="M8 4 l-4,4" />
      <path
         id="path3328"
         stroke-width="0.25"
         stroke="#000000"
         linecap="square"
         d="M6 2 l-4,4" />
      <path
         id="path3330"
         stroke-width="0.25"
         stroke="#000000"
         linecap="square"
         d="M4 0 l-4,4" />
    </pattern>
    <symbol
       id="*MODEL_SPACE-8" />
    <symbol
       id="*PAPER_SPACE-7" />
    <marker
       style="overflow:visible"
       refY="0.0"
       refX="0.0"
       orient="auto"
       id="DistanceX-9">
      <path
         id="path3857"
         style="stroke:#000000; stroke-width:0.5"
         d="M 3,-3 L -3,3 M 0,-5 L  0,5" />
    </marker>
    <pattern
       y="0"
       x="0"
       width="8"
       patternUnits="userSpaceOnUse"
       id="Hatch-2"
       height="8">
      <path
         id="path3860"
         stroke-width="0.25"
         stroke="#000000"
         linecap="square"
         d="M8 4 l-4,4" />
      <path
         id="path3862"
         stroke-width="0.25"
         stroke="#000000"
         linecap="square"
         d="M6 2 l-4,4" />
      <path
         id="path3864"
         stroke-width="0.25"
         stroke="#000000"
         linecap="square"
         d="M4 0 l-4,4" />
    </pattern>
    <symbol
       id="*MODEL_SPACE-02" />
    <symbol
       id="*PAPER_SPACE-3" />
    <marker
       style="overflow:visible"
       refY="0.0"
       refX="0.0"
       orient="auto"
       id="DistanceX-7">
      <path
         id="path4316"
         style="stroke:#000000; stroke-width:0.5"
         d="M 3,-3 L -3,3 M 0,-5 L  0,5" />
    </marker>
    <pattern
       y="0"
       x="0"
       width="8"
       patternUnits="userSpaceOnUse"
       id="Hatch-5"
       height="8">
      <path
         id="path4319"
         stroke-width="0.25"
         stroke="#000000"
         linecap="square"
         d="M8 4 l-4,4" />
      <path
         id="path4321"
         stroke-width="0.25"
         stroke="#000000"
         linecap="square"
         d="M6 2 l-4,4" />
      <path
         id="path4323"
         stroke-width="0.25"
         stroke="#000000"
         linecap="square"
         d="M4 0 l-4,4" />
    </pattern>
    <symbol
       id="*MODEL_SPACE-92" />
    <symbol
       id="*PAPER_SPACE-28" />
    <marker
       style="overflow:visible"
       refY="0.0"
       refX="0.0"
       orient="auto"
       id="DistanceX-97">
      <path
         id="path4783"
         style="stroke:#000000; stroke-width:0.5"
         d="M 3,-3 L -3,3 M 0,-5 L  0,5" />
    </marker>
    <pattern
       y="0"
       x="0"
       width="8"
       patternUnits="userSpaceOnUse"
       id="Hatch-3"
       height="8">
      <path
         id="path4786"
         stroke-width="0.25"
         stroke="#000000"
         linecap="square"
         d="M8 4 l-4,4" />
      <path
         id="path4788"
         stroke-width="0.25"
         stroke="#000000"
         linecap="square"
         d="M6 2 l-4,4" />
      <path
         id="path4790"
         stroke-width="0.25"
         stroke="#000000"
         linecap="square"
         d="M4 0 l-4,4" />
    </pattern>
    <symbol
       id="*MODEL_SPACE-61" />
    <symbol
       id="*PAPER_SPACE-29" />
    <marker
       style="overflow:visible"
       refY="0.0"
       refX="0.0"
       orient="auto"
       id="DistanceX-31">
      <path
         id="path5615"
         style="stroke:#000000; stroke-width:0.5"
         d="M 3,-3 L -3,3 M 0,-5 L  0,5" />
    </marker>
    <pattern
       y="0"
       x="0"
       width="8"
       patternUnits="userSpaceOnUse"
       id="Hatch-9"
       height="8">
      <path
         id="path5618"
         stroke-width="0.25"
         stroke="#000000"
         linecap="square"
         d="M8 4 l-4,4" />
      <path
         id="path5620"
         stroke-width="0.25"
         stroke="#000000"
         linecap="square"
         d="M6 2 l-4,4" />
      <path
         id="path5622"
         stroke-width="0.25"
         stroke="#000000"
         linecap="square"
         d="M4 0 l-4,4" />
    </pattern>
    <symbol
       id="*MODEL_SPACE-4" />
    <symbol
       id="*PAPER_SPACE-78" />
    <marker
       style="overflow:visible"
       refY="0.0"
       refX="0.0"
       orient="auto"
       id="DistanceX-4">
      <path
         id="path6044"
         style="stroke:#000000; stroke-width:0.5"
         d="M 3,-3 L -3,3 M 0,-5 L  0,5" />
    </marker>
    <pattern
       y="0"
       x="0"
       width="8"
       patternUnits="userSpaceOnUse"
       id="Hatch-50"
       height="8">
      <path
         id="path6047"
         stroke-width="0.25"
         stroke="#000000"
         linecap="square"
         d="M8 4 l-4,4" />
      <path
         id="path6049"
         stroke-width="0.25"
         stroke="#000000"
         linecap="square"
         d="M6 2 l-4,4" />
      <path
         id="path6051"
         stroke-width="0.25"
         stroke="#000000"
         linecap="square"
         d="M4 0 l-4,4" />
    </pattern>
    <symbol
       id="*MODEL_SPACE-3" />
    <symbol
       id="*PAPER_SPACE-6" />
    <marker
       style="overflow:visible"
       refY="0.0"
       refX="0.0"
       orient="auto"
       id="DistanceX-1">
      <path
         id="path6550"
         style="stroke:#000000; stroke-width:0.5"
         d="M 3,-3 L -3,3 M 0,-5 L  0,5" />
    </marker>
    <pattern
       y="0"
       x="0"
       width="8"
       patternUnits="userSpaceOnUse"
       id="Hatch-06"
       height="8">
      <path
         id="path6553"
         stroke-width="0.25"
         stroke="#000000"
         linecap="square"
         d="M8 4 l-4,4" />
      <path
         id="path6555"
         stroke-width="0.25"
         stroke="#000000"
         linecap="square"
         d="M6 2 l-4,4" />
      <path
         id="path6557"
         stroke-width="0.25"
         stroke="#000000"
         linecap="square"
         d="M4 0 l-4,4" />
    </pattern>
    <symbol
       id="*MODEL_SPACE-32" />
    <symbol
       id="*PAPER_SPACE-0" />
    <marker
       style="overflow:visible"
       refY="0.0"
       refX="0.0"
       orient="auto"
       id="DistanceX-61">
      <path
         id="path7289"
         style="stroke:#000000; stroke-width:0.5"
         d="M 3,-3 L -3,3 M 0,-5 L  0,5" />
    </marker>
    <pattern
       y="0"
       x="0"
       width="8"
       patternUnits="userSpaceOnUse"
       id="Hatch-55"
       height="8">
      <path
         id="path7292"
         stroke-width="0.25"
         stroke="#000000"
         linecap="square"
         d="M8 4 l-4,4" />
      <path
         id="path7294"
         stroke-width="0.25"
         stroke="#000000"
         linecap="square"
         d="M6 2 l-4,4" />
      <path
         id="path7296"
         stroke-width="0.25"
         stroke="#000000"
         linecap="square"
         d="M4 0 l-4,4" />
    </pattern>
    <symbol
       id="*MODEL_SPACE-47" />
    <symbol
       id="*PAPER_SPACE-65" />
    <marker
       style="overflow:visible"
       refY="0.0"
       refX="0.0"
       orient="auto"
       id="DistanceX-69">
      <path
         id="path7790"
         style="stroke:#000000; stroke-width:0.5"
         d="M 3,-3 L -3,3 M 0,-5 L  0,5" />
    </marker>
    <pattern
       y="0"
       x="0"
       width="8"
       patternUnits="userSpaceOnUse"
       id="Hatch-37"
       height="8">
      <path
         id="path7793"
         stroke-width="0.25"
         stroke="#000000"
         linecap="square"
         d="M8 4 l-4,4" />
      <path
         id="path7795"
         stroke-width="0.25"
         stroke="#000000"
         linecap="square"
         d="M6 2 l-4,4" />
      <path
         id="path7797"
         stroke-width="0.25"
         stroke="#000000"
         linecap="square"
         d="M4 0 l-4,4" />
    </pattern>
    <symbol
       id="*MODEL_SPACE-45" />
    <symbol
       id="*PAPER_SPACE-25" />
    <marker
       style="overflow:visible"
       refY="0.0"
       refX="0.0"
       orient="auto"
       id="DistanceX-47">
      <path
         id="path8376"
         style="stroke:#000000; stroke-width:0.5"
         d="M 3,-3 L -3,3 M 0,-5 L  0,5" />
    </marker>
    <pattern
       y="0"
       x="0"
       width="8"
       patternUnits="userSpaceOnUse"
       id="Hatch-4"
       height="8">
      <path
         id="path8379"
         stroke-width="0.25"
         stroke="#000000"
         linecap="square"
         d="M8 4 l-4,4" />
      <path
         id="path8381"
         stroke-width="0.25"
         stroke="#000000"
         linecap="square"
         d="M6 2 l-4,4" />
      <path
         id="path8383"
         stroke-width="0.25"
         stroke="#000000"
         linecap="square"
         d="M4 0 l-4,4" />
    </pattern>
    <symbol
       id="*MODEL_SPACE-43" />
    <symbol
       id="*PAPER_SPACE-07" />
    <marker
       style="overflow:visible"
       refY="0.0"
       refX="0.0"
       orient="auto"
       id="DistanceX-8">
      <path
         id="path8661"
         style="stroke:#000000; stroke-width:0.5"
         d="M 3,-3 L -3,3 M 0,-5 L  0,5" />
    </marker>
    <pattern
       y="0"
       x="0"
       width="8"
       patternUnits="userSpaceOnUse"
       id="Hatch-68"
       height="8">
      <path
         id="path8664"
         stroke-width="0.25"
         stroke="#000000"
         linecap="square"
         d="M8 4 l-4,4" />
      <path
         id="path8666"
         stroke-width="0.25"
         stroke="#000000"
         linecap="square"
         d="M6 2 l-4,4" />
      <path
         id="path8668"
         stroke-width="0.25"
         stroke="#000000"
         linecap="square"
         d="M4 0 l-4,4" />
    </pattern>
    <symbol
       id="*MODEL_SPACE-84" />
    <symbol
       id="*PAPER_SPACE-31" />
    <marker
       style="overflow:visible"
       refY="0.0"
       refX="0.0"
       orient="auto"
       id="DistanceX-49">
      <path
         id="path9394"
         style="stroke:#000000; stroke-width:0.5"
         d="M 3,-3 L -3,3 M 0,-5 L  0,5" />
    </marker>
    <pattern
       y="0"
       x="0"
       width="8"
       patternUnits="userSpaceOnUse"
       id="Hatch-20"
       height="8">
      <path
         id="path9397"
         stroke-width="0.25"
         stroke="#000000"
         linecap="square"
         d="M8 4 l-4,4" />
      <path
         id="path9399"
         stroke-width="0.25"
         stroke="#000000"
         linecap="square"
         d="M6 2 l-4,4" />
      <path
         id="path9401"
         stroke-width="0.25"
         stroke="#000000"
         linecap="square"
         d="M4 0 l-4,4" />
    </pattern>
    <symbol
       id="*MODEL_SPACE-68" />
    <symbol
       id="*PAPER_SPACE-92" />
    <marker
       style="overflow:visible"
       refY="0.0"
       refX="0.0"
       orient="auto"
       id="DistanceX-66">
      <path
         id="path10175"
         style="stroke:#000000; stroke-width:0.5"
         d="M 3,-3 L -3,3 M 0,-5 L  0,5" />
    </marker>
    <pattern
       y="0"
       x="0"
       width="8"
       patternUnits="userSpaceOnUse"
       id="Hatch-49"
       height="8">
      <path
         id="path10178"
         stroke-width="0.25"
         stroke="#000000"
         linecap="square"
         d="M8 4 l-4,4" />
      <path
         id="path10180"
         stroke-width="0.25"
         stroke="#000000"
         linecap="square"
         d="M6 2 l-4,4" />
      <path
         id="path10182"
         stroke-width="0.25"
         stroke="#000000"
         linecap="square"
         d="M4 0 l-4,4" />
    </pattern>
    <symbol
       id="*MODEL_SPACE-5" />
    <symbol
       id="*PAPER_SPACE-04" />
    <marker
       style="overflow:visible"
       refY="0.0"
       refX="0.0"
       orient="auto"
       id="DistanceX-87">
      <path
         id="path10717"
         style="stroke:#000000; stroke-width:0.5"
         d="M 3,-3 L -3,3 M 0,-5 L  0,5" />
    </marker>
    <pattern
       y="0"
       x="0"
       width="8"
       patternUnits="userSpaceOnUse"
       id="Hatch-17"
       height="8">
      <path
         id="path10720"
         stroke-width="0.25"
         stroke="#000000"
         linecap="square"
         d="M8 4 l-4,4" />
      <path
         id="path10722"
         stroke-width="0.25"
         stroke="#000000"
         linecap="square"
         d="M6 2 l-4,4" />
      <path
         id="path10724"
         stroke-width="0.25"
         stroke="#000000"
         linecap="square"
         d="M4 0 l-4,4" />
    </pattern>
    <symbol
       id="*MODEL_SPACE-2" />
    <symbol
       id="*PAPER_SPACE-72" />
    <marker
       style="overflow:visible"
       refY="0.0"
       refX="0.0"
       orient="auto"
       id="DistanceX-26">
      <path
         id="path11099"
         style="stroke:#000000; stroke-width:0.5"
         d="M 3,-3 L -3,3 M 0,-5 L  0,5" />
    </marker>
    <pattern
       y="0"
       x="0"
       width="8"
       patternUnits="userSpaceOnUse"
       id="Hatch-10"
       height="8">
      <path
         id="path11102"
         stroke-width="0.25"
         stroke="#000000"
         linecap="square"
         d="M8 4 l-4,4" />
      <path
         id="path11104"
         stroke-width="0.25"
         stroke="#000000"
         linecap="square"
         d="M6 2 l-4,4" />
      <path
         id="path11106"
         stroke-width="0.25"
         stroke="#000000"
         linecap="square"
         d="M4 0 l-4,4" />
    </pattern>
    <symbol
       id="*MODEL_SPACE-615" />
    <symbol
       id="*PAPER_SPACE-94" />
    <marker
       style="overflow:visible"
       refY="0.0"
       refX="0.0"
       orient="auto"
       id="DistanceX-5">
      <path
         id="path12009"
         style="stroke:#000000; stroke-width:0.5"
         d="M 3,-3 L -3,3 M 0,-5 L  0,5" />
    </marker>
    <pattern
       y="0"
       x="0"
       width="8"
       patternUnits="userSpaceOnUse"
       id="Hatch-96"
       height="8">
      <path
         id="path12012"
         stroke-width="0.25"
         stroke="#000000"
         linecap="square"
         d="M8 4 l-4,4" />
      <path
         id="path12014"
         stroke-width="0.25"
         stroke="#000000"
         linecap="square"
         d="M6 2 l-4,4" />
      <path
         id="path12016"
         stroke-width="0.25"
         stroke="#000000"
         linecap="square"
         d="M4 0 l-4,4" />
    </pattern>
    <symbol
       id="*MODEL_SPACE-21" />
    <symbol
       id="*PAPER_SPACE-785" />
    <marker
       style="overflow:visible"
       refY="0.0"
       refX="0.0"
       orient="auto"
       id="DistanceX-74">
      <path
         id="path12358"
         style="stroke:#000000; stroke-width:0.5"
         d="M 3,-3 L -3,3 M 0,-5 L  0,5" />
    </marker>
    <pattern
       y="0"
       x="0"
       width="8"
       patternUnits="userSpaceOnUse"
       id="Hatch-18"
       height="8">
      <path
         id="path12361"
         stroke-width="0.25"
         stroke="#000000"
         linecap="square"
         d="M8 4 l-4,4" />
      <path
         id="path12363"
         stroke-width="0.25"
         stroke="#000000"
         linecap="square"
         d="M6 2 l-4,4" />
      <path
         id="path12365"
         stroke-width="0.25"
         stroke="#000000"
         linecap="square"
         d="M4 0 l-4,4" />
    </pattern>
    <symbol
       id="*MODEL_SPACE-59" />
    <symbol
       id="*PAPER_SPACE-75" />
    <marker
       style="overflow:visible"
       refY="0.0"
       refX="0.0"
       orient="auto"
       id="DistanceX-38">
      <path
         id="path12911"
         style="stroke:#000000; stroke-width:0.5"
         d="M 3,-3 L -3,3 M 0,-5 L  0,5" />
    </marker>
    <pattern
       y="0"
       x="0"
       width="8"
       patternUnits="userSpaceOnUse"
       id="Hatch-8"
       height="8">
      <path
         id="path12914"
         stroke-width="0.25"
         stroke="#000000"
         linecap="square"
         d="M8 4 l-4,4" />
      <path
         id="path12916"
         stroke-width="0.25"
         stroke="#000000"
         linecap="square"
         d="M6 2 l-4,4" />
      <path
         id="path12918"
         stroke-width="0.25"
         stroke="#000000"
         linecap="square"
         d="M4 0 l-4,4" />
    </pattern>
    <symbol
       id="*MODEL_SPACE-31" />
    <symbol
       id="*PAPER_SPACE-8" />
    <marker
       style="overflow:visible"
       refY="0.0"
       refX="0.0"
       orient="auto"
       id="DistanceX-96">
      <path
         id="path13927"
         style="stroke:#000000; stroke-width:0.5"
         d="M 3,-3 L -3,3 M 0,-5 L  0,5" />
    </marker>
    <pattern
       y="0"
       x="0"
       width="8"
       patternUnits="userSpaceOnUse"
       id="Hatch-43"
       height="8">
      <path
         id="path13930"
         stroke-width="0.25"
         stroke="#000000"
         linecap="square"
         d="M8 4 l-4,4" />
      <path
         id="path13932"
         stroke-width="0.25"
         stroke="#000000"
         linecap="square"
         d="M6 2 l-4,4" />
      <path
         id="path13934"
         stroke-width="0.25"
         stroke="#000000"
         linecap="square"
         d="M4 0 l-4,4" />
    </pattern>
    <symbol
       id="*MODEL_SPACE-33" />
    <symbol
       id="*PAPER_SPACE-86" />
    <marker
       style="overflow:visible"
       refY="0.0"
       refX="0.0"
       orient="auto"
       id="DistanceX-0">
      <path
         id="path14288"
         style="stroke:#000000; stroke-width:0.5"
         d="M 3,-3 L -3,3 M 0,-5 L  0,5" />
    </marker>
    <pattern
       y="0"
       x="0"
       width="8"
       patternUnits="userSpaceOnUse"
       id="Hatch-48"
       height="8">
      <path
         id="path14291"
         stroke-width="0.25"
         stroke="#000000"
         linecap="square"
         d="M8 4 l-4,4" />
      <path
         id="path14293"
         stroke-width="0.25"
         stroke="#000000"
         linecap="square"
         d="M6 2 l-4,4" />
      <path
         id="path14295"
         stroke-width="0.25"
         stroke="#000000"
         linecap="square"
         d="M4 0 l-4,4" />
    </pattern>
    <symbol
       id="*MODEL_SPACE-88" />
    <symbol
       id="*PAPER_SPACE-97" />
    <marker
       style="overflow:visible"
       refY="0.0"
       refX="0.0"
       orient="auto"
       id="DistanceX-76">
      <path
         id="path14858"
         style="stroke:#000000; stroke-width:0.5"
         d="M 3,-3 L -3,3 M 0,-5 L  0,5" />
    </marker>
    <pattern
       y="0"
       x="0"
       width="8"
       patternUnits="userSpaceOnUse"
       id="Hatch-430"
       height="8">
      <path
         id="path14861"
         stroke-width="0.25"
         stroke="#000000"
         linecap="square"
         d="M8 4 l-4,4" />
      <path
         id="path14863"
         stroke-width="0.25"
         stroke="#000000"
         linecap="square"
         d="M6 2 l-4,4" />
      <path
         id="path14865"
         stroke-width="0.25"
         stroke="#000000"
         linecap="square"
         d="M4 0 l-4,4" />
    </pattern>
    <symbol
       id="*MODEL_SPACE-30" />
    <symbol
       id="*PAPER_SPACE-925" />
    <marker
       style="overflow:visible"
       refY="0.0"
       refX="0.0"
       orient="auto"
       id="DistanceX-367">
      <path
         id="path2408"
         style="stroke:#000000; stroke-width:0.5"
         d="M 3,-3 L -3,3 M 0,-5 L  0,5" />
    </marker>
    <pattern
       y="0"
       x="0"
       width="8"
       patternUnits="userSpaceOnUse"
       id="Hatch-53"
       height="8">
      <path
         id="path2411"
         stroke-width="0.25"
         stroke="#000000"
         linecap="square"
         d="M8 4 l-4,4" />
      <path
         id="path2413"
         stroke-width="0.25"
         stroke="#000000"
         linecap="square"
         d="M6 2 l-4,4" />
      <path
         id="path2415"
         stroke-width="0.25"
         stroke="#000000"
         linecap="square"
         d="M4 0 l-4,4" />
    </pattern>
    <symbol
       id="*MODEL_SPACE-56" />
    <symbol
       id="*PAPER_SPACE-291" />
    <marker
       style="overflow:visible"
       refY="0.0"
       refX="0.0"
       orient="auto"
       id="DistanceX-27">
      <path
         id="path2994"
         style="stroke:#000000; stroke-width:0.5"
         d="M 3,-3 L -3,3 M 0,-5 L  0,5" />
    </marker>
    <pattern
       y="0"
       x="0"
       width="8"
       patternUnits="userSpaceOnUse"
       id="Hatch-09"
       height="8">
      <path
         id="path2997"
         stroke-width="0.25"
         stroke="#000000"
         linecap="square"
         d="M8 4 l-4,4" />
      <path
         id="path2999"
         stroke-width="0.25"
         stroke="#000000"
         linecap="square"
         d="M6 2 l-4,4" />
      <path
         id="path3001"
         stroke-width="0.25"
         stroke="#000000"
         linecap="square"
         d="M4 0 l-4,4" />
    </pattern>
    <symbol
       id="*MODEL_SPACE-36" />
    <symbol
       id="*PAPER_SPACE-06" />
  </defs>
  <g
     inkscape:groupmode="layer"
     inkscape:label="0"
     id="g222"
     transform="translate(0,3601.8899)" />
  <g
     inkscape:groupmode="layer"
     inkscape:label="none"
     id="g224"
     transform="translate(0,3601.8899)" />
  <g
     inkscape:groupmode="layer"
     inkscape:label="Shape2DView"
     id="g592"
     transform="translate(0,3601.8899)">
    <g
       inkscape:label="0"
       id="g655"
       transform="translate(188.30905,-144.21778)" />
    <g
       inkscape:label="none"
       id="g657"
       transform="translate(188.30905,-144.21778)" />
    <g
       inkscape:label="0"
       id="g1926"
       transform="translate(3872.0366,-2260.3569)" />
    <g
       inkscape:label="none"
       id="g1928"
       transform="translate(3872.0366,-2260.3569)" />
    <g
       inkscape:label="0"
       id="g2334"
       transform="translate(4163.095,-638.76163)" />
    <g
       inkscape:label="none"
       id="g2336"
       transform="translate(4163.095,-638.76163)" />
    <g
       inkscape:label="0"
       id="g2988"
       transform="translate(3616.0527,-2120.6526)" />
    <g
       inkscape:label="none"
       id="g2990"
       transform="translate(3616.0527,-2120.6526)" />
    <g
       inkscape:label="0"
       id="g3337"
       transform="translate(3982.0998,-564.17433)" />
    <g
       inkscape:label="none"
       id="g3339"
       transform="translate(3982.0998,-564.17433)" />
    <g
       inkscape:label="0"
       id="g3871"
       transform="translate(4197.1817,-457.40021)" />
    <g
       inkscape:label="none"
       id="g3873"
       transform="translate(4197.1817,-457.40021)" />
    <g
       inkscape:label="0"
       id="g4330"
       transform="translate(3810.2533,-640.26641)" />
    <g
       inkscape:label="none"
       id="g4332"
       transform="translate(3810.2533,-640.26641)" />
    <g
       inkscape:label="0"
       id="g4797"
       transform="translate(4529.798,607.33569)" />
    <g
       inkscape:label="none"
       id="g4799"
       transform="translate(4529.798,607.33569)" />
    <g
       inkscape:label="0"
       id="g6564"
       transform="translate(2567.7178,4038.8294)" />
    <g
       inkscape:label="none"
       id="g6566"
       transform="translate(2567.7178,4038.8294)" />
    <g
       inkscape:label="0"
       id="g7804"
       transform="translate(3729.0613,3840.1053)" />
    <g
       inkscape:label="none"
       id="g7806"
       transform="translate(3729.0613,3840.1053)" />
    <g
       inkscape:label="0"
       id="g8390"
       transform="translate(3140.8639,4031.0886)" />
    <g
       inkscape:label="none"
       id="g8392"
       transform="translate(3140.8639,4031.0886)" />
    <g
       inkscape:label="0"
       id="g8675"
       transform="translate(3136.2403,5087.008)" />
    <g
       inkscape:label="none"
       id="g8677"
       transform="translate(3136.2403,5087.008)" />
    <g
       inkscape:label="0"
       id="g9408"
       transform="translate(3794.603,4720.6841)" />
    <g
       inkscape:label="none"
       id="g9410"
       transform="translate(3794.603,4720.6841)" />
    <g
       inkscape:label="0"
       id="g10189"
       transform="translate(3226.334,3875.7422)" />
    <g
       inkscape:label="none"
       id="g10191"
       transform="translate(3226.334,3875.7422)" />
    <g
       inkscape:label="0"
       id="g10731"
       transform="translate(6510.5551,1049.0188)" />
    <g
       inkscape:label="none"
       id="g10733"
       transform="translate(6510.5551,1049.0188)" />
    <g
       inkscape:label="0"
       id="g11113"
       transform="translate(5370.2445,1540.3573)" />
    <g
       inkscape:label="none"
       id="g11115"
       transform="translate(5370.2445,1540.3573)" />
    <g
       inkscape:label="0"
       id="g14872"
       transform="translate(-2299.1719,9106.9995)" />
    <g
       inkscape:label="none"
       id="g14874"
       transform="translate(-2299.1719,9106.9995)" />
    <g
       inkscape:label="0"
       id="g2422"
       transform="translate(11324.496,10626.085)" />
    <g
       inkscape:label="none"
       id="g2424"
       transform="translate(11324.496,10626.085)" />
    <g
       inkscape:label="0"
       id="g3008"
       transform="translate(9845.6664,2749.9829)" />
    <g
       inkscape:label="none"
       id="g3010"
       transform="translate(9845.6664,2749.9829)" />
    <g
       id="g7080"
       transform="matrix(0,0.9959968,-0.99410726,0,5325.5802,-6140.1633)">
      <path
         sodipodi:nodetypes="cccccccccccccccccccccccccccccccccccccccccccccccccccccccccccccccccccccc"
         inkscape:connector-curvature="0"
         d="M 4457.4816,1954.42 H 2601.7335 v 35.9055 h -27.2125 c -3.1311,0 -5.6693,2.5382 -5.6693,5.6693 v 291.0236 c 0,3.1311 2.5382,5.6693 5.6693,5.6693 h 27.2125 v 302.3622 h -27.2125 c -3.1311,0 -5.6693,2.5382 -5.6693,5.6693 v 291.0236 c 0,3.1311 2.5382,5.6693 5.6693,5.6693 h 27.2125 v 417.6378 l -34.0157,34.0157 v 1757.4803 h 71.811 v 49.1339 c 0,3.1311 2.5382,5.6693 5.6693,5.6693 h 102.0473 c 3.131,-1e-4 5.6692,-2.5383 5.6692,-5.6693 v -49.1339 h 170.0788 v 49.1339 c 0,3.1311 2.5382,5.6693 5.6693,5.6693 h 102.0472 c 3.1311,0 5.6693,-2.5382 5.6693,-5.6693 v -49.1339 h 37.7953 v -353.0078 h -149.2914 c -10.4369,0 -18.8976,-8.4608 -18.8976,-18.8977 v -83.1496 h -68.0315 v -34.7716 h 236.2205 V 3801.0971 H 2837.954 v -34.7716 h 68.0315 v -83.1496 c 0,-10.4369 8.4607,-18.8977 18.8976,-18.8977 h 149.2914 V 2950.7034 H 2837.954 v -34.7716 h 68.0315 v -83.1496 c 0,-10.4369 8.4607,-18.8977 18.8976,-18.8977 h 149.2914 v -387.4016 h 1330.3937 v 34.7717 h -154.9228 v 33.6378 l 438.4252,438.4252 h 2335.7102 l 264.5669,-264.5669 v -430.8662 h -276.6614 l -59.7165,-59.7165 h -566.9292 l -59.7165,59.7165 h -598.6772 l -59.7165,-59.7165 h -566.9291 l -59.7166,59.7165 h -299.3386 z"
         style="fill:none;stroke:#000000"
         id="path6704" />
      <path
         sodipodi:nodetypes="sccsccs"
         inkscape:connector-curvature="0"
         d="m 6946.1824,2848.2782 c 0,-8.2843 -6.7157,-15 -15,-15.0004 H 4795.7493 c -8.2843,4e-4 -15,6.7161 -15,15.0004 0,8.2843 6.7157,15 15,15.0005 h 2135.4331 c 8.2843,-5e-4 15,-6.7162 15,-15.0005 z"
         style="fill:none;stroke:#000000"
         id="path6712" />
      <path
         sodipodi:nodetypes="ccccc"
         inkscape:connector-curvature="0"
         d="m 6478.9619,2237.8845 v 34.7717 h 303.4961 v -34.7717 z"
         style="fill:none;stroke:#000000"
         id="path6720" />
      <path
         sodipodi:nodetypes="ccccc"
         inkscape:connector-curvature="0"
         d="m 5573.0091,2461.2546 v -34.7717 h -303.496 v 34.7717 z"
         style="fill:none;stroke:#000000"
         id="path6728" />
      <path
         sodipodi:nodetypes="ccccc"
         inkscape:connector-curvature="0"
         d="m 6478.9619,2426.4829 v 34.7717 h 303.4961 v -34.7717 z"
         style="fill:none;stroke:#000000"
         id="path6736" />
      <path
         sodipodi:nodetypes="ccccc"
         inkscape:connector-curvature="0"
         d="m 5269.5131,2237.8845 v 34.7717 h 303.496 v -34.7717 z"
         style="fill:none;stroke:#000000"
         id="path6744" />
      <path
         inkscape:connector-curvature="0"
         d="m 6907.4658,2255.2703 a 12.188976,12.188976 0 1 0 -24.3779,0 12.188976,12.188976 0 1 0 24.3779,0 z"
         style="fill:none;stroke:#000000"
         id="path6746" />
      <path
         inkscape:connector-curvature="0"
         d="m 5168.8832,2255.2703 a 12.189,12.189 0 1 0 -24.378,0 12.189,12.189 0 1 0 24.378,0 z"
         style="fill:none;stroke:#000000"
         id="path6748" />
      <path
         inkscape:connector-curvature="0"
         d="m 2847.143,2443.8688 a 9.189,9.189 0 1 0 -18.378,0 9.189,9.189 0 1 0 18.378,0 z"
         style="fill:none;stroke:#000000"
         id="path6750" />
      <path
         inkscape:connector-curvature="0"
         d="m 6034.6076,2443.8688 a 9.189,9.189 0 1 0 -18.378,0 9.189,9.189 0 1 0 18.378,0 z"
         style="fill:none;stroke:#000000"
         id="path6752" />
      <path
         inkscape:connector-curvature="0"
         d="m 6904.4658,2443.8688 a 9.188976,9.188976 0 1 0 -18.3779,0 9.188976,9.188976 0 1 0 18.3779,0 z"
         style="fill:none;stroke:#000000"
         id="path6754" />
    </g>
    <g
       id="g8452"
       transform="translate(37.8507,-5156.6294)">
      <path
         sodipodi:nodetypes="sccsccs"
         inkscape:connector-curvature="0"
         d="m 3207.0057,5153.9707 c 36.529,0 66.1417,-29.6126 66.1417,-66.1417 v -188.9764 c 0,-36.5291 -29.6127,-66.1417 -66.1417,-66.1417 -36.5291,0 -66.1418,29.6126 -66.1418,66.1417 v 188.9764 c 0,36.5291 29.6127,66.1417 66.1418,66.1417 z"
         style="fill:none;stroke:#000000"
         id="path8400" />
      <path
         inkscape:connector-curvature="0"
         d="m 3216.4545,4898.8526 a 9.44885,9.44885 0 1 0 -18.8977,0 9.44885,9.44885 0 1 0 18.8977,0 z"
         style="fill:none;stroke:#000000"
         id="path8402" />
      <path
         inkscape:connector-curvature="0"
         d="m 3216.4545,5087.829 a 9.44885,9.44885 0 1 0 -18.8977,0 9.44885,9.44885 0 1 0 18.8977,0 z"
         style="fill:none;stroke:#000000"
         id="path8404" />
    </g>
    <g
       id="g2785"
       transform="translate(-11286.496,-11463.077)">
      <path
         sodipodi:nodetypes="cccccccccccccccccccccccccccc"
         inkscape:connector-curvature="0"
         d="m 12809.151,11416.208 -861.033,-861.031 V 8987.6598 h 114.898 V 8873.707 h 34.771 v 113.9528 h 1872.378 v -472.4409 h -1228.346 v -29.1024 c 0,-2.0875 -1.692,-3.7798 -3.78,-3.7795 h -294.803 c -2.087,3e-4 -3.779,1.6923 -3.779,3.7795 v 29.1024 h -718.111 v -29.1024 c 0,-2.0872 -1.692,-3.7792 -3.779,-3.7795 h -294.803 c -2.088,-3e-4 -3.78,1.692 -3.78,3.7795 v 29.1024 h -94.488 v 2431.8951 l 801.49,801.491 h 385.512 l 160.35,-160.352 -17.37,-17.372 z"
         style="fill:none;stroke:#000000"
         id="path2478" />
      <path
         sodipodi:nodetypes="ccccc"
         inkscape:connector-curvature="0"
         d="m 12299.047,11662.053 h 152.315 v -34.771 h -152.315 z"
         style="fill:none;stroke:#000000"
         id="path2486" />
      <path
         sodipodi:nodetypes="ccccc"
         inkscape:connector-curvature="0"
         d="m 11446.082,10633.077 h -34.772 v 133.417 h 34.772 z"
         style="fill:none;stroke:#000000"
         id="path2494" />
      <path
         sodipodi:nodetypes="ccccc"
         inkscape:connector-curvature="0"
         d="m 11411.31,9556.4787 v 132.2835 h 34.772 v -132.2835 z"
         style="fill:none;stroke:#000000"
         id="path2502" />
      <path
         sodipodi:nodetypes="ccccc"
         inkscape:connector-curvature="0"
         d="m 11411.31,9291.9118 v 132.2834 h 34.772 v -132.2834 z"
         style="fill:none;stroke:#000000"
         id="path2510" />
      <path
         sodipodi:nodetypes="ccccc"
         inkscape:connector-curvature="0"
         d="m 13667.425,8950.4315 h 34.772 v -114.5197 h -34.772 z"
         style="fill:none;stroke:#000000"
         id="path2518" />
      <path
         sodipodi:nodetypes="ccccc"
         inkscape:connector-curvature="0"
         d="m 13667.425,8552.4472 v 114.5197 h 34.772 v -114.5197 z"
         style="fill:none;stroke:#000000"
         id="path2526" />
      <path
         inkscape:connector-curvature="0"
         d="m 11909.657,10766.185 a 15.189,15.189 0 1 0 -30.378,0 15.189,15.189 0 1 0 30.378,0 z"
         style="fill:none;stroke:#000000"
         id="path2528" />
      <path
         inkscape:connector-curvature="0"
         d="m 11440.98,9490.337 a 12.2835,12.2835 0 1 0 -24.567,0 12.2835,12.2835 0 1 0 24.567,0 z"
         style="fill:none;stroke:#000000"
         id="path2530" />
      <path
         inkscape:connector-curvature="0"
         d="m 12271.268,11644.668 a 9.449,9.449 0 1 0 -18.898,0 9.449,9.449 0 1 0 18.898,0 z"
         style="fill:none;stroke:#000000"
         id="path2532" />
      <path
         inkscape:connector-curvature="0"
         d="m 12498.039,11644.668 a 9.448819,9.448819 0 1 0 -18.897,0 9.448819,9.448819 0 1 0 18.897,0 z"
         style="fill:none;stroke:#000000"
         id="path2534" />
      <path
         inkscape:connector-curvature="0"
         d="m 11438.145,10803.723 a 9.449,9.449 0 1 0 -18.898,0 9.449,9.449 0 1 0 18.898,0 z"
         style="fill:none;stroke:#000000"
         id="path2536" />
      <path
         inkscape:connector-curvature="0"
         d="m 13336.929,8751.4393 a 9.2835,9.2835 0 1 0 -18.567,0 9.2835,9.2835 0 1 0 18.567,0 z"
         style="fill:none;stroke:#000000"
         id="path2538" />
      <path
         inkscape:connector-curvature="0"
         d="m 12089.685,8694.7464 a 9.2835,9.2835 0 1 0 -18.567,0 9.2835,9.2835 0 1 0 18.567,0 z"
         style="fill:none;stroke:#000000"
         id="path2540" />
      <path
         inkscape:connector-curvature="0"
         d="m 13866.063,8908.2897 a 9.2835,9.2835 0 1 0 -18.567,0 9.2835,9.2835 0 1 0 18.567,0 z"
         style="fill:none;stroke:#000000"
         id="path2542" />
      <path
         inkscape:connector-curvature="0"
         d="m 13866.063,8594.5889 a 9.2835,9.2835 0 1 0 -18.567,0 9.2835,9.2835 0 1 0 18.567,0 z"
         style="fill:none;stroke:#000000"
         id="path2544" />
      <path
         inkscape:connector-curvature="0"
         d="m 11723.94,10271.21 a 9,9 0 1 0 -18,0 9,9 0 1 0 18,0 z"
         style="fill:none;stroke:#000000"
         id="path2546" />
      <path
         inkscape:connector-curvature="0"
         d="m 11723.94,10082.234 a 9,9 0 1 0 -18,0 9,9 0 1 0 18,0 z"
         style="fill:none;stroke:#000000"
         id="path2548" />
    </g>
    <g
       id="g3582"
       transform="rotate(180,6104.1112,1119.9313)">
      <path
         sodipodi:nodetypes="ccccccccccccccccccccccccccccccccccccccccccccccccccccccccccccccccccccccccccccccccccccccccccccccccccccccccc"
         inkscape:connector-curvature="0"
         d="m 9845.6664,1561.3215 h 160.6296 c 15.656,-3e-4 28.347,12.6909 28.347,28.3464 v 1851.9685 c 0,15.6555 -12.691,28.3468 -28.347,28.3465 h -160.6296 v 368.5039 h 134.2443 v -83.5275 h -8.575 v -17.0079 h 8.5746 v -17.0079 h 18.0004 v 17.0079 h 8.5743 v 17.0079 h -8.5743 v 83.5275 h 28.7953 v 34.0158 h 132.283 v -68.0315 c 0,-6.2623 5.077,-11.3388 11.339,-11.3386 h 302.362 c 6.262,-2e-4 11.339,5.0763 11.339,11.3386 v 34.0157 h 619.842 v 34.0158 h 132.284 v -34.0158 h 54.141 v -69.1653 h -14.456 v -20.7874 h -18.898 v -49.1339 c 0,-10.437 8.461,-18.8978 18.898,-18.8976 h 52.913 c 10.437,-2e-4 18.898,8.4606 18.898,18.8976 v 49.1339 h -18.898 v 20.7874 h -14.457 v 69.1653 h 54.142 v 34.0158 h 132.283 V 3621.164 l -85.039,-85.0394 h -226.771 l -37.796,37.7953 h -398.362 l -340.157,-340.1575 V 1797.5419 l 340.157,-340.1574 h 398.362 l 37.796,37.7952 h 226.771 l 85.039,-85.0393 v -251.3386 h -132.283 v 34.0157 h -54.142 v 69.1654 h 14.457 v 20.7874 h 18.898 v 49.1339 c 0,10.437 -8.461,18.8978 -18.898,18.8976 h -52.913 c -10.437,2e-4 -18.898,-8.4606 -18.898,-18.8976 v -49.1339 h 18.898 v -20.7874 h 14.456 v -69.1654 h -54.141 v -34.0157 h -132.284 v 34.0157 h -710.173 v -34.0157 h -132.284 v 34.0157 h -54.141 v 69.1654 h 14.456 v 20.7874 h 18.898 v 49.1339 c 0,10.437 -8.461,18.8978 -18.898,18.8976 h -52.913 c -10.437,2e-4 -18.898,-8.4606 -18.898,-18.8976 v -49.1339 h 18.898 v -20.7874 h 14.457 v -69.1654 h -54.142 v -34.0157 h -132.2835 v 34.0157 h -151.1811 z"
         style="fill:none;stroke:#000000"
         id="path3218" />
      <path
         inkscape:connector-curvature="0"
         d="m 9921.9416,1525.4197 a 9.1889765,9.1889765 0 1 0 -18.3779,0 9.1889765,9.1889765 0 1 0 18.3779,0 z"
         style="fill:none;stroke:#000000"
         id="path3220" />
      <path
         inkscape:connector-curvature="0"
         d="m 9921.9416,1389.3568 a 9.1889765,9.1889765 0 1 0 -18.3779,0 9.1889765,9.1889765 0 1 0 18.3779,0 z"
         style="fill:none;stroke:#000000"
         id="path3222" />
      <path
         inkscape:connector-curvature="0"
         d="m 9921.9416,3641.9476 a 9.1889765,9.1889765 0 1 0 -18.3779,0 9.1889765,9.1889765 0 1 0 18.3779,0 z"
         style="fill:none;stroke:#000000"
         id="path3224" />
      <path
         inkscape:connector-curvature="0"
         d="m 9921.9416,3505.8846 a 9.1889765,9.1889765 0 1 0 -18.3779,0 9.1889765,9.1889765 0 1 0 18.3779,0 z"
         style="fill:none;stroke:#000000"
         id="path3226" />
    </g>
  </g>
</svg>
