<?xml version="1.0" encoding="UTF-8" standalone="no"?>
<svg
   xmlns:dc="http://purl.org/dc/elements/1.1/"
   xmlns:cc="http://creativecommons.org/ns#"
   xmlns:rdf="http://www.w3.org/1999/02/22-rdf-syntax-ns#"
   xmlns:svg="http://www.w3.org/2000/svg"
   xmlns="http://www.w3.org/2000/svg"
   xmlns:sodipodi="http://sodipodi.sourceforge.net/DTD/sodipodi-0.dtd"
   xmlns:inkscape="http://www.inkscape.org/namespaces/inkscape"
   width="900mm"
   height="1250mm"
   version="1.1"
   id="svg594"
   sodipodi:docname="C-MDF-1250x900-9mm.svg"
   inkscape:version="0.92.5 (0.92.5+68)">
  <metadata
     id="metadata598">
    <rdf:RDF>
      <cc:Work
         rdf:about="">
        <dc:format>image/svg+xml</dc:format>
        <dc:type
           rdf:resource="http://purl.org/dc/dcmitype/StillImage" />
        <dc:title></dc:title>
      </cc:Work>
    </rdf:RDF>
  </metadata>
  <sodipodi:namedview
     pagecolor="#ffffff"
     bordercolor="#666666"
     borderopacity="1"
     objecttolerance="10"
     gridtolerance="10"
     guidetolerance="10"
     inkscape:pageopacity="0"
     inkscape:pageshadow="2"
     inkscape:window-width="1280"
     inkscape:window-height="965"
     id="namedview596"
     showgrid="false"
     inkscape:zoom="0.031469092"
     inkscape:cx="1194.6802"
     inkscape:cy="-3088.2717"
     inkscape:window-x="0"
     inkscape:window-y="0"
     inkscape:window-maximized="1"
     inkscape:current-layer="g592"
     units="mm"
     inkscape:document-units="mm"
     inkscape:snap-global="true"
     inkscape:snap-bbox="true" />
  <desc
     id="desc206">/home/pampa/Escritorio/Cenital/Frame/export_shape1-Shape2DView.dxf - scale = 1.000000, origin = (0.000000, 0.000000), method = manual</desc>
  <defs
     id="defs220">
    <marker
       id="DistanceX"
       orient="auto"
       refX="0"
       refY="0"
       style="overflow:visible">
      <path
         d="M 3,-3 -3,3 M 0,-5 V 5"
         style="stroke:#000000;stroke-width:0.5"
         id="path208"
         inkscape:connector-curvature="0" />
    </marker>
    <pattern
       height="8"
       id="Hatch"
       patternUnits="userSpaceOnUse"
       width="8"
       x="0"
       y="0">
      <path
         d="M8 4 l-4,4"
         linecap="square"
         stroke="#000000"
         stroke-width="0.25"
         id="path211" />
      <path
         d="M6 2 l-4,4"
         linecap="square"
         stroke="#000000"
         stroke-width="0.25"
         id="path213" />
      <path
         d="M4 0 l-4,4"
         linecap="square"
         stroke="#000000"
         stroke-width="0.25"
         id="path215" />
    </pattern>
    <symbol
       id="*MODEL_SPACE" />
    <symbol
       id="*PAPER_SPACE" />
    <marker
       style="overflow:visible"
       refY="0.0"
       refX="0.0"
       orient="auto"
       id="DistanceX-3">
      <path
         id="path641"
         style="stroke:#000000; stroke-width:0.5"
         d="M 3,-3 L -3,3 M 0,-5 L  0,5" />
    </marker>
    <pattern
       y="0"
       x="0"
       width="8"
       patternUnits="userSpaceOnUse"
       id="Hatch-6"
       height="8">
      <path
         id="path644"
         stroke-width="0.25"
         stroke="#000000"
         linecap="square"
         d="M8 4 l-4,4" />
      <path
         id="path646"
         stroke-width="0.25"
         stroke="#000000"
         linecap="square"
         d="M6 2 l-4,4" />
      <path
         id="path648"
         stroke-width="0.25"
         stroke="#000000"
         linecap="square"
         d="M4 0 l-4,4" />
    </pattern>
    <symbol
       id="*MODEL_SPACE-7" />
    <symbol
       id="*PAPER_SPACE-5" />
    <marker
       style="overflow:visible"
       refY="0.0"
       refX="0.0"
       orient="auto"
       id="DistanceX-35">
      <path
         id="path1912"
         style="stroke:#000000; stroke-width:0.5"
         d="M 3,-3 L -3,3 M 0,-5 L  0,5" />
    </marker>
    <pattern
       y="0"
       x="0"
       width="8"
       patternUnits="userSpaceOnUse"
       id="Hatch-62"
       height="8">
      <path
         id="path1915"
         stroke-width="0.25"
         stroke="#000000"
         linecap="square"
         d="M8 4 l-4,4" />
      <path
         id="path1917"
         stroke-width="0.25"
         stroke="#000000"
         linecap="square"
         d="M6 2 l-4,4" />
      <path
         id="path1919"
         stroke-width="0.25"
         stroke="#000000"
         linecap="square"
         d="M4 0 l-4,4" />
    </pattern>
    <symbol
       id="*MODEL_SPACE-9" />
    <symbol
       id="*PAPER_SPACE-1" />
    <marker
       style="overflow:visible"
       refY="0.0"
       refX="0.0"
       orient="auto"
       id="DistanceX-2">
      <path
         id="path2320"
         style="stroke:#000000; stroke-width:0.5"
         d="M 3,-3 L -3,3 M 0,-5 L  0,5" />
    </marker>
    <pattern
       y="0"
       x="0"
       width="8"
       patternUnits="userSpaceOnUse"
       id="Hatch-7"
       height="8">
      <path
         id="path2323"
         stroke-width="0.25"
         stroke="#000000"
         linecap="square"
         d="M8 4 l-4,4" />
      <path
         id="path2325"
         stroke-width="0.25"
         stroke="#000000"
         linecap="square"
         d="M6 2 l-4,4" />
      <path
         id="path2327"
         stroke-width="0.25"
         stroke="#000000"
         linecap="square"
         d="M4 0 l-4,4" />
    </pattern>
    <symbol
       id="*MODEL_SPACE-0" />
    <symbol
       id="*PAPER_SPACE-9" />
    <marker
       style="overflow:visible"
       refY="0.0"
       refX="0.0"
       orient="auto"
       id="DistanceX-36">
      <path
         id="path2974"
         style="stroke:#000000; stroke-width:0.5"
         d="M 3,-3 L -3,3 M 0,-5 L  0,5" />
    </marker>
    <pattern
       y="0"
       x="0"
       width="8"
       patternUnits="userSpaceOnUse"
       id="Hatch-0"
       height="8">
      <path
         id="path2977"
         stroke-width="0.25"
         stroke="#000000"
         linecap="square"
         d="M8 4 l-4,4" />
      <path
         id="path2979"
         stroke-width="0.25"
         stroke="#000000"
         linecap="square"
         d="M6 2 l-4,4" />
      <path
         id="path2981"
         stroke-width="0.25"
         stroke="#000000"
         linecap="square"
         d="M4 0 l-4,4" />
    </pattern>
    <symbol
       id="*MODEL_SPACE-6" />
    <symbol
       id="*PAPER_SPACE-2" />
    <marker
       style="overflow:visible"
       refY="0.0"
       refX="0.0"
       orient="auto"
       id="DistanceX-6">
      <path
         id="path3323"
         style="stroke:#000000; stroke-width:0.5"
         d="M 3,-3 L -3,3 M 0,-5 L  0,5" />
    </marker>
    <pattern
       y="0"
       x="0"
       width="8"
       patternUnits="userSpaceOnUse"
       id="Hatch-1"
       height="8">
      <path
         id="path3326"
         stroke-width="0.25"
         stroke="#000000"
         linecap="square"
         d="M8 4 l-4,4" />
      <path
         id="path3328"
         stroke-width="0.25"
         stroke="#000000"
         linecap="square"
         d="M6 2 l-4,4" />
      <path
         id="path3330"
         stroke-width="0.25"
         stroke="#000000"
         linecap="square"
         d="M4 0 l-4,4" />
    </pattern>
    <symbol
       id="*MODEL_SPACE-8" />
    <symbol
       id="*PAPER_SPACE-7" />
    <marker
       style="overflow:visible"
       refY="0.0"
       refX="0.0"
       orient="auto"
       id="DistanceX-9">
      <path
         id="path3857"
         style="stroke:#000000; stroke-width:0.5"
         d="M 3,-3 L -3,3 M 0,-5 L  0,5" />
    </marker>
    <pattern
       y="0"
       x="0"
       width="8"
       patternUnits="userSpaceOnUse"
       id="Hatch-2"
       height="8">
      <path
         id="path3860"
         stroke-width="0.25"
         stroke="#000000"
         linecap="square"
         d="M8 4 l-4,4" />
      <path
         id="path3862"
         stroke-width="0.25"
         stroke="#000000"
         linecap="square"
         d="M6 2 l-4,4" />
      <path
         id="path3864"
         stroke-width="0.25"
         stroke="#000000"
         linecap="square"
         d="M4 0 l-4,4" />
    </pattern>
    <symbol
       id="*MODEL_SPACE-02" />
    <symbol
       id="*PAPER_SPACE-3" />
    <marker
       style="overflow:visible"
       refY="0.0"
       refX="0.0"
       orient="auto"
       id="DistanceX-7">
      <path
         id="path4316"
         style="stroke:#000000; stroke-width:0.5"
         d="M 3,-3 L -3,3 M 0,-5 L  0,5" />
    </marker>
    <pattern
       y="0"
       x="0"
       width="8"
       patternUnits="userSpaceOnUse"
       id="Hatch-5"
       height="8">
      <path
         id="path4319"
         stroke-width="0.25"
         stroke="#000000"
         linecap="square"
         d="M8 4 l-4,4" />
      <path
         id="path4321"
         stroke-width="0.25"
         stroke="#000000"
         linecap="square"
         d="M6 2 l-4,4" />
      <path
         id="path4323"
         stroke-width="0.25"
         stroke="#000000"
         linecap="square"
         d="M4 0 l-4,4" />
    </pattern>
    <symbol
       id="*MODEL_SPACE-92" />
    <symbol
       id="*PAPER_SPACE-28" />
    <marker
       style="overflow:visible"
       refY="0.0"
       refX="0.0"
       orient="auto"
       id="DistanceX-97">
      <path
         id="path4783"
         style="stroke:#000000; stroke-width:0.5"
         d="M 3,-3 L -3,3 M 0,-5 L  0,5" />
    </marker>
    <pattern
       y="0"
       x="0"
       width="8"
       patternUnits="userSpaceOnUse"
       id="Hatch-3"
       height="8">
      <path
         id="path4786"
         stroke-width="0.25"
         stroke="#000000"
         linecap="square"
         d="M8 4 l-4,4" />
      <path
         id="path4788"
         stroke-width="0.25"
         stroke="#000000"
         linecap="square"
         d="M6 2 l-4,4" />
      <path
         id="path4790"
         stroke-width="0.25"
         stroke="#000000"
         linecap="square"
         d="M4 0 l-4,4" />
    </pattern>
    <symbol
       id="*MODEL_SPACE-61" />
    <symbol
       id="*PAPER_SPACE-29" />
    <marker
       style="overflow:visible"
       refY="0.0"
       refX="0.0"
       orient="auto"
       id="DistanceX-31">
      <path
         id="path5615"
         style="stroke:#000000; stroke-width:0.5"
         d="M 3,-3 L -3,3 M 0,-5 L  0,5" />
    </marker>
    <pattern
       y="0"
       x="0"
       width="8"
       patternUnits="userSpaceOnUse"
       id="Hatch-9"
       height="8">
      <path
         id="path5618"
         stroke-width="0.25"
         stroke="#000000"
         linecap="square"
         d="M8 4 l-4,4" />
      <path
         id="path5620"
         stroke-width="0.25"
         stroke="#000000"
         linecap="square"
         d="M6 2 l-4,4" />
      <path
         id="path5622"
         stroke-width="0.25"
         stroke="#000000"
         linecap="square"
         d="M4 0 l-4,4" />
    </pattern>
    <symbol
       id="*MODEL_SPACE-4" />
    <symbol
       id="*PAPER_SPACE-78" />
    <marker
       style="overflow:visible"
       refY="0.0"
       refX="0.0"
       orient="auto"
       id="DistanceX-4">
      <path
         id="path6044"
         style="stroke:#000000; stroke-width:0.5"
         d="M 3,-3 L -3,3 M 0,-5 L  0,5" />
    </marker>
    <pattern
       y="0"
       x="0"
       width="8"
       patternUnits="userSpaceOnUse"
       id="Hatch-50"
       height="8">
      <path
         id="path6047"
         stroke-width="0.25"
         stroke="#000000"
         linecap="square"
         d="M8 4 l-4,4" />
      <path
         id="path6049"
         stroke-width="0.25"
         stroke="#000000"
         linecap="square"
         d="M6 2 l-4,4" />
      <path
         id="path6051"
         stroke-width="0.25"
         stroke="#000000"
         linecap="square"
         d="M4 0 l-4,4" />
    </pattern>
    <symbol
       id="*MODEL_SPACE-3" />
    <symbol
       id="*PAPER_SPACE-6" />
    <marker
       style="overflow:visible"
       refY="0.0"
       refX="0.0"
       orient="auto"
       id="DistanceX-1">
      <path
         id="path6550"
         style="stroke:#000000; stroke-width:0.5"
         d="M 3,-3 L -3,3 M 0,-5 L  0,5" />
    </marker>
    <pattern
       y="0"
       x="0"
       width="8"
       patternUnits="userSpaceOnUse"
       id="Hatch-06"
       height="8">
      <path
         id="path6553"
         stroke-width="0.25"
         stroke="#000000"
         linecap="square"
         d="M8 4 l-4,4" />
      <path
         id="path6555"
         stroke-width="0.25"
         stroke="#000000"
         linecap="square"
         d="M6 2 l-4,4" />
      <path
         id="path6557"
         stroke-width="0.25"
         stroke="#000000"
         linecap="square"
         d="M4 0 l-4,4" />
    </pattern>
    <symbol
       id="*MODEL_SPACE-32" />
    <symbol
       id="*PAPER_SPACE-0" />
    <marker
       style="overflow:visible"
       refY="0.0"
       refX="0.0"
       orient="auto"
       id="DistanceX-61">
      <path
         id="path7289"
         style="stroke:#000000; stroke-width:0.5"
         d="M 3,-3 L -3,3 M 0,-5 L  0,5" />
    </marker>
    <pattern
       y="0"
       x="0"
       width="8"
       patternUnits="userSpaceOnUse"
       id="Hatch-55"
       height="8">
      <path
         id="path7292"
         stroke-width="0.25"
         stroke="#000000"
         linecap="square"
         d="M8 4 l-4,4" />
      <path
         id="path7294"
         stroke-width="0.25"
         stroke="#000000"
         linecap="square"
         d="M6 2 l-4,4" />
      <path
         id="path7296"
         stroke-width="0.25"
         stroke="#000000"
         linecap="square"
         d="M4 0 l-4,4" />
    </pattern>
    <symbol
       id="*MODEL_SPACE-47" />
    <symbol
       id="*PAPER_SPACE-65" />
    <marker
       style="overflow:visible"
       refY="0.0"
       refX="0.0"
       orient="auto"
       id="DistanceX-69">
      <path
         id="path7790"
         style="stroke:#000000; stroke-width:0.5"
         d="M 3,-3 L -3,3 M 0,-5 L  0,5" />
    </marker>
    <pattern
       y="0"
       x="0"
       width="8"
       patternUnits="userSpaceOnUse"
       id="Hatch-37"
       height="8">
      <path
         id="path7793"
         stroke-width="0.25"
         stroke="#000000"
         linecap="square"
         d="M8 4 l-4,4" />
      <path
         id="path7795"
         stroke-width="0.25"
         stroke="#000000"
         linecap="square"
         d="M6 2 l-4,4" />
      <path
         id="path7797"
         stroke-width="0.25"
         stroke="#000000"
         linecap="square"
         d="M4 0 l-4,4" />
    </pattern>
    <symbol
       id="*MODEL_SPACE-45" />
    <symbol
       id="*PAPER_SPACE-25" />
    <marker
       style="overflow:visible"
       refY="0.0"
       refX="0.0"
       orient="auto"
       id="DistanceX-47">
      <path
         id="path8376"
         style="stroke:#000000; stroke-width:0.5"
         d="M 3,-3 L -3,3 M 0,-5 L  0,5" />
    </marker>
    <pattern
       y="0"
       x="0"
       width="8"
       patternUnits="userSpaceOnUse"
       id="Hatch-4"
       height="8">
      <path
         id="path8379"
         stroke-width="0.25"
         stroke="#000000"
         linecap="square"
         d="M8 4 l-4,4" />
      <path
         id="path8381"
         stroke-width="0.25"
         stroke="#000000"
         linecap="square"
         d="M6 2 l-4,4" />
      <path
         id="path8383"
         stroke-width="0.25"
         stroke="#000000"
         linecap="square"
         d="M4 0 l-4,4" />
    </pattern>
    <symbol
       id="*MODEL_SPACE-43" />
    <symbol
       id="*PAPER_SPACE-07" />
    <marker
       style="overflow:visible"
       refY="0.0"
       refX="0.0"
       orient="auto"
       id="DistanceX-8">
      <path
         id="path8661"
         style="stroke:#000000; stroke-width:0.5"
         d="M 3,-3 L -3,3 M 0,-5 L  0,5" />
    </marker>
    <pattern
       y="0"
       x="0"
       width="8"
       patternUnits="userSpaceOnUse"
       id="Hatch-68"
       height="8">
      <path
         id="path8664"
         stroke-width="0.25"
         stroke="#000000"
         linecap="square"
         d="M8 4 l-4,4" />
      <path
         id="path8666"
         stroke-width="0.25"
         stroke="#000000"
         linecap="square"
         d="M6 2 l-4,4" />
      <path
         id="path8668"
         stroke-width="0.25"
         stroke="#000000"
         linecap="square"
         d="M4 0 l-4,4" />
    </pattern>
    <symbol
       id="*MODEL_SPACE-84" />
    <symbol
       id="*PAPER_SPACE-31" />
    <marker
       style="overflow:visible"
       refY="0.0"
       refX="0.0"
       orient="auto"
       id="DistanceX-49">
      <path
         id="path9394"
         style="stroke:#000000; stroke-width:0.5"
         d="M 3,-3 L -3,3 M 0,-5 L  0,5" />
    </marker>
    <pattern
       y="0"
       x="0"
       width="8"
       patternUnits="userSpaceOnUse"
       id="Hatch-20"
       height="8">
      <path
         id="path9397"
         stroke-width="0.25"
         stroke="#000000"
         linecap="square"
         d="M8 4 l-4,4" />
      <path
         id="path9399"
         stroke-width="0.25"
         stroke="#000000"
         linecap="square"
         d="M6 2 l-4,4" />
      <path
         id="path9401"
         stroke-width="0.25"
         stroke="#000000"
         linecap="square"
         d="M4 0 l-4,4" />
    </pattern>
    <symbol
       id="*MODEL_SPACE-68" />
    <symbol
       id="*PAPER_SPACE-92" />
    <marker
       style="overflow:visible"
       refY="0.0"
       refX="0.0"
       orient="auto"
       id="DistanceX-66">
      <path
         id="path10175"
         style="stroke:#000000; stroke-width:0.5"
         d="M 3,-3 L -3,3 M 0,-5 L  0,5" />
    </marker>
    <pattern
       y="0"
       x="0"
       width="8"
       patternUnits="userSpaceOnUse"
       id="Hatch-49"
       height="8">
      <path
         id="path10178"
         stroke-width="0.25"
         stroke="#000000"
         linecap="square"
         d="M8 4 l-4,4" />
      <path
         id="path10180"
         stroke-width="0.25"
         stroke="#000000"
         linecap="square"
         d="M6 2 l-4,4" />
      <path
         id="path10182"
         stroke-width="0.25"
         stroke="#000000"
         linecap="square"
         d="M4 0 l-4,4" />
    </pattern>
    <symbol
       id="*MODEL_SPACE-5" />
    <symbol
       id="*PAPER_SPACE-04" />
    <marker
       style="overflow:visible"
       refY="0.0"
       refX="0.0"
       orient="auto"
       id="DistanceX-87">
      <path
         id="path10717"
         style="stroke:#000000; stroke-width:0.5"
         d="M 3,-3 L -3,3 M 0,-5 L  0,5" />
    </marker>
    <pattern
       y="0"
       x="0"
       width="8"
       patternUnits="userSpaceOnUse"
       id="Hatch-17"
       height="8">
      <path
         id="path10720"
         stroke-width="0.25"
         stroke="#000000"
         linecap="square"
         d="M8 4 l-4,4" />
      <path
         id="path10722"
         stroke-width="0.25"
         stroke="#000000"
         linecap="square"
         d="M6 2 l-4,4" />
      <path
         id="path10724"
         stroke-width="0.25"
         stroke="#000000"
         linecap="square"
         d="M4 0 l-4,4" />
    </pattern>
    <symbol
       id="*MODEL_SPACE-2" />
    <symbol
       id="*PAPER_SPACE-72" />
    <marker
       style="overflow:visible"
       refY="0.0"
       refX="0.0"
       orient="auto"
       id="DistanceX-26">
      <path
         id="path11099"
         style="stroke:#000000; stroke-width:0.5"
         d="M 3,-3 L -3,3 M 0,-5 L  0,5" />
    </marker>
    <pattern
       y="0"
       x="0"
       width="8"
       patternUnits="userSpaceOnUse"
       id="Hatch-10"
       height="8">
      <path
         id="path11102"
         stroke-width="0.25"
         stroke="#000000"
         linecap="square"
         d="M8 4 l-4,4" />
      <path
         id="path11104"
         stroke-width="0.25"
         stroke="#000000"
         linecap="square"
         d="M6 2 l-4,4" />
      <path
         id="path11106"
         stroke-width="0.25"
         stroke="#000000"
         linecap="square"
         d="M4 0 l-4,4" />
    </pattern>
    <symbol
       id="*MODEL_SPACE-615" />
    <symbol
       id="*PAPER_SPACE-94" />
    <marker
       style="overflow:visible"
       refY="0.0"
       refX="0.0"
       orient="auto"
       id="DistanceX-5">
      <path
         id="path12009"
         style="stroke:#000000; stroke-width:0.5"
         d="M 3,-3 L -3,3 M 0,-5 L  0,5" />
    </marker>
    <pattern
       y="0"
       x="0"
       width="8"
       patternUnits="userSpaceOnUse"
       id="Hatch-96"
       height="8">
      <path
         id="path12012"
         stroke-width="0.25"
         stroke="#000000"
         linecap="square"
         d="M8 4 l-4,4" />
      <path
         id="path12014"
         stroke-width="0.25"
         stroke="#000000"
         linecap="square"
         d="M6 2 l-4,4" />
      <path
         id="path12016"
         stroke-width="0.25"
         stroke="#000000"
         linecap="square"
         d="M4 0 l-4,4" />
    </pattern>
    <symbol
       id="*MODEL_SPACE-21" />
    <symbol
       id="*PAPER_SPACE-785" />
    <marker
       style="overflow:visible"
       refY="0.0"
       refX="0.0"
       orient="auto"
       id="DistanceX-74">
      <path
         id="path12358"
         style="stroke:#000000; stroke-width:0.5"
         d="M 3,-3 L -3,3 M 0,-5 L  0,5" />
    </marker>
    <pattern
       y="0"
       x="0"
       width="8"
       patternUnits="userSpaceOnUse"
       id="Hatch-18"
       height="8">
      <path
         id="path12361"
         stroke-width="0.25"
         stroke="#000000"
         linecap="square"
         d="M8 4 l-4,4" />
      <path
         id="path12363"
         stroke-width="0.25"
         stroke="#000000"
         linecap="square"
         d="M6 2 l-4,4" />
      <path
         id="path12365"
         stroke-width="0.25"
         stroke="#000000"
         linecap="square"
         d="M4 0 l-4,4" />
    </pattern>
    <symbol
       id="*MODEL_SPACE-59" />
    <symbol
       id="*PAPER_SPACE-75" />
    <marker
       style="overflow:visible"
       refY="0.0"
       refX="0.0"
       orient="auto"
       id="DistanceX-38">
      <path
         id="path12911"
         style="stroke:#000000; stroke-width:0.5"
         d="M 3,-3 L -3,3 M 0,-5 L  0,5" />
    </marker>
    <pattern
       y="0"
       x="0"
       width="8"
       patternUnits="userSpaceOnUse"
       id="Hatch-8"
       height="8">
      <path
         id="path12914"
         stroke-width="0.25"
         stroke="#000000"
         linecap="square"
         d="M8 4 l-4,4" />
      <path
         id="path12916"
         stroke-width="0.25"
         stroke="#000000"
         linecap="square"
         d="M6 2 l-4,4" />
      <path
         id="path12918"
         stroke-width="0.25"
         stroke="#000000"
         linecap="square"
         d="M4 0 l-4,4" />
    </pattern>
    <symbol
       id="*MODEL_SPACE-31" />
    <symbol
       id="*PAPER_SPACE-8" />
    <marker
       style="overflow:visible"
       refY="0.0"
       refX="0.0"
       orient="auto"
       id="DistanceX-96">
      <path
         id="path13927"
         style="stroke:#000000; stroke-width:0.5"
         d="M 3,-3 L -3,3 M 0,-5 L  0,5" />
    </marker>
    <pattern
       y="0"
       x="0"
       width="8"
       patternUnits="userSpaceOnUse"
       id="Hatch-43"
       height="8">
      <path
         id="path13930"
         stroke-width="0.25"
         stroke="#000000"
         linecap="square"
         d="M8 4 l-4,4" />
      <path
         id="path13932"
         stroke-width="0.25"
         stroke="#000000"
         linecap="square"
         d="M6 2 l-4,4" />
      <path
         id="path13934"
         stroke-width="0.25"
         stroke="#000000"
         linecap="square"
         d="M4 0 l-4,4" />
    </pattern>
    <symbol
       id="*MODEL_SPACE-33" />
    <symbol
       id="*PAPER_SPACE-86" />
    <marker
       style="overflow:visible"
       refY="0.0"
       refX="0.0"
       orient="auto"
       id="DistanceX-0">
      <path
         id="path14288"
         style="stroke:#000000; stroke-width:0.5"
         d="M 3,-3 L -3,3 M 0,-5 L  0,5" />
    </marker>
    <pattern
       y="0"
       x="0"
       width="8"
       patternUnits="userSpaceOnUse"
       id="Hatch-48"
       height="8">
      <path
         id="path14291"
         stroke-width="0.25"
         stroke="#000000"
         linecap="square"
         d="M8 4 l-4,4" />
      <path
         id="path14293"
         stroke-width="0.25"
         stroke="#000000"
         linecap="square"
         d="M6 2 l-4,4" />
      <path
         id="path14295"
         stroke-width="0.25"
         stroke="#000000"
         linecap="square"
         d="M4 0 l-4,4" />
    </pattern>
    <symbol
       id="*MODEL_SPACE-88" />
    <symbol
       id="*PAPER_SPACE-97" />
    <marker
       style="overflow:visible"
       refY="0.0"
       refX="0.0"
       orient="auto"
       id="DistanceX-76">
      <path
         id="path14858"
         style="stroke:#000000; stroke-width:0.5"
         d="M 3,-3 L -3,3 M 0,-5 L  0,5" />
    </marker>
    <pattern
       y="0"
       x="0"
       width="8"
       patternUnits="userSpaceOnUse"
       id="Hatch-430"
       height="8">
      <path
         id="path14861"
         stroke-width="0.25"
         stroke="#000000"
         linecap="square"
         d="M8 4 l-4,4" />
      <path
         id="path14863"
         stroke-width="0.25"
         stroke="#000000"
         linecap="square"
         d="M6 2 l-4,4" />
      <path
         id="path14865"
         stroke-width="0.25"
         stroke="#000000"
         linecap="square"
         d="M4 0 l-4,4" />
    </pattern>
    <symbol
       id="*MODEL_SPACE-30" />
    <symbol
       id="*PAPER_SPACE-925" />
    <marker
       style="overflow:visible"
       refY="0.0"
       refX="0.0"
       orient="auto"
       id="DistanceX-367">
      <path
         id="path2408"
         style="stroke:#000000; stroke-width:0.5"
         d="M 3,-3 L -3,3 M 0,-5 L  0,5" />
    </marker>
    <pattern
       y="0"
       x="0"
       width="8"
       patternUnits="userSpaceOnUse"
       id="Hatch-53"
       height="8">
      <path
         id="path2411"
         stroke-width="0.25"
         stroke="#000000"
         linecap="square"
         d="M8 4 l-4,4" />
      <path
         id="path2413"
         stroke-width="0.25"
         stroke="#000000"
         linecap="square"
         d="M6 2 l-4,4" />
      <path
         id="path2415"
         stroke-width="0.25"
         stroke="#000000"
         linecap="square"
         d="M4 0 l-4,4" />
    </pattern>
    <symbol
       id="*MODEL_SPACE-56" />
    <symbol
       id="*PAPER_SPACE-291" />
    <marker
       style="overflow:visible"
       refY="0.0"
       refX="0.0"
       orient="auto"
       id="DistanceX-27">
      <path
         id="path2994"
         style="stroke:#000000; stroke-width:0.5"
         d="M 3,-3 L -3,3 M 0,-5 L  0,5" />
    </marker>
    <pattern
       y="0"
       x="0"
       width="8"
       patternUnits="userSpaceOnUse"
       id="Hatch-09"
       height="8">
      <path
         id="path2997"
         stroke-width="0.25"
         stroke="#000000"
         linecap="square"
         d="M8 4 l-4,4" />
      <path
         id="path2999"
         stroke-width="0.25"
         stroke="#000000"
         linecap="square"
         d="M6 2 l-4,4" />
      <path
         id="path3001"
         stroke-width="0.25"
         stroke="#000000"
         linecap="square"
         d="M4 0 l-4,4" />
    </pattern>
    <symbol
       id="*MODEL_SPACE-36" />
    <symbol
       id="*PAPER_SPACE-06" />
  </defs>
  <g
     inkscape:groupmode="layer"
     inkscape:label="0"
     id="g222"
     transform="translate(0,3601.8899)" />
  <g
     inkscape:groupmode="layer"
     inkscape:label="none"
     id="g224"
     transform="translate(0,3601.8899)" />
  <g
     inkscape:groupmode="layer"
     inkscape:label="Shape2DView"
     id="g592"
     transform="translate(0,3601.8899)">
    <g
       inkscape:label="0"
       id="g655"
       transform="translate(188.30905,-144.21778)" />
    <g
       inkscape:label="none"
       id="g657"
       transform="translate(188.30905,-144.21778)" />
    <g
       inkscape:label="0"
       id="g1926"
       transform="translate(3872.0366,-2260.3569)" />
    <g
       inkscape:label="none"
       id="g1928"
       transform="translate(3872.0366,-2260.3569)" />
    <g
       inkscape:label="0"
       id="g2334"
       transform="translate(4163.095,-638.76163)" />
    <g
       inkscape:label="none"
       id="g2336"
       transform="translate(4163.095,-638.76163)" />
    <g
       inkscape:label="0"
       id="g2988"
       transform="translate(3616.0527,-2120.6526)" />
    <g
       inkscape:label="none"
       id="g2990"
       transform="translate(3616.0527,-2120.6526)" />
    <g
       inkscape:label="0"
       id="g3337"
       transform="translate(3982.0998,-564.17433)" />
    <g
       inkscape:label="none"
       id="g3339"
       transform="translate(3982.0998,-564.17433)" />
    <g
       inkscape:label="0"
       id="g3871"
       transform="translate(4197.1817,-457.40021)" />
    <g
       inkscape:label="none"
       id="g3873"
       transform="translate(4197.1817,-457.40021)" />
    <g
       inkscape:label="0"
       id="g4330"
       transform="translate(3810.2533,-640.26641)" />
    <g
       inkscape:label="none"
       id="g4332"
       transform="translate(3810.2533,-640.26641)" />
    <g
       inkscape:label="0"
       id="g4797"
       transform="translate(4529.798,607.33569)" />
    <g
       inkscape:label="none"
       id="g4799"
       transform="translate(4529.798,607.33569)" />
    <g
       inkscape:label="0"
       id="g6564"
       transform="translate(2567.7178,4038.8294)" />
    <g
       inkscape:label="none"
       id="g6566"
       transform="translate(2567.7178,4038.8294)" />
    <g
       inkscape:label="0"
       id="g7804"
       transform="translate(3729.0613,3840.1053)" />
    <g
       inkscape:label="none"
       id="g7806"
       transform="translate(3729.0613,3840.1053)" />
    <g
       inkscape:label="0"
       id="g8390"
       transform="translate(3140.8639,4031.0886)" />
    <g
       inkscape:label="none"
       id="g8392"
       transform="translate(3140.8639,4031.0886)" />
    <g
       inkscape:label="0"
       id="g8675"
       transform="translate(3136.2403,5087.008)" />
    <g
       inkscape:label="none"
       id="g8677"
       transform="translate(3136.2403,5087.008)" />
    <g
       inkscape:label="0"
       id="g9408"
       transform="translate(3794.603,4720.6841)" />
    <g
       inkscape:label="none"
       id="g9410"
       transform="translate(3794.603,4720.6841)" />
    <g
       inkscape:label="0"
       id="g10189"
       transform="translate(3226.334,3875.7422)" />
    <g
       inkscape:label="none"
       id="g10191"
       transform="translate(3226.334,3875.7422)" />
    <g
       id="g10492"
       transform="rotate(-90,-155.73602,1596.7379)">
      <path
         sodipodi:nodetypes="ccccccccccccccccccccccccccccc"
         inkscape:connector-curvature="0"
         d="m 4869.0943,4471.5734 v 470.5625 l -56.126,56.126 h -396.8504 l -91.2756,-91.2756 h -423.307 l -91.2756,91.2756 H 3413.4112 L 3226.334,4811.1847 v -339.6113 l 187.0772,-187.0753 h 438.8617 l 187.0753,-187.0753 V 3073.1482 L 3852.2729,2886.0729 H 3413.4112 L 3226.334,2698.9976 v -339.6132 l 187.0772,-187.0753 h 396.8485 l 91.2756,91.2756 h 423.307 l 91.2756,-91.2756 h 396.8504 l 56.126,56.126 v 470.5625 l -187.0753,187.0753 v 1398.4252 z"
         style="fill:none;stroke:#000000"
         id="path10247" />
      <path
         sodipodi:nodetypes="ccccc"
         inkscape:connector-curvature="0"
         d="m 4471.488,2228.4351 h 303.874 v 35.1496 h -303.874 z"
         style="fill:none;stroke:#000000"
         id="path10255" />
      <path
         sodipodi:nodetypes="ccccc"
         inkscape:connector-curvature="0"
         d="m 3451.0175,4906.9863 v 35.1496 h 303.8721 v -35.1496 z"
         style="fill:none;stroke:#000000"
         id="path10263" />
      <path
         sodipodi:nodetypes="ccccc"
         inkscape:connector-curvature="0"
         d="m 4471.488,4942.1359 h 303.874 v -35.1496 h -303.874 z"
         style="fill:none;stroke:#000000"
         id="path10271" />
      <path
         sodipodi:nodetypes="ccccc"
         inkscape:connector-curvature="0"
         d="m 3451.0175,2263.5847 h 303.8721 v -35.1496 h -303.8721 z"
         style="fill:none;stroke:#000000"
         id="path10279" />
      <path
         sodipodi:nodetypes="ccccc"
         inkscape:connector-curvature="0"
         d="m 4112.8108,4340.4351 v 303.874 h 34.7717 v -303.874 z"
         style="fill:none;stroke:#000000"
         id="path10287" />
      <path
         sodipodi:nodetypes="ccccc"
         inkscape:connector-curvature="0"
         d="m 4147.5825,2526.2619 h -34.7717 v 303.874 h 34.7717 z"
         style="fill:none;stroke:#000000"
         id="path10295" />
    </g>
    <g
       transform="rotate(90,5176.4192,241.67778)"
       id="g10508">
      <path
         id="path10494"
         style="fill:none;stroke:#000000"
         d="m 4869.0943,4471.5734 v 470.5625 l -56.126,56.126 h -396.8504 l -91.2756,-91.2756 h -423.307 l -91.2756,91.2756 H 3413.4112 L 3226.334,4811.1847 v -339.6113 l 187.0772,-187.0753 h 438.8617 l 187.0753,-187.0753 V 3073.1482 L 3852.2729,2886.0729 H 3413.4112 L 3226.334,2698.9976 v -339.6132 l 187.0772,-187.0753 h 396.8485 l 91.2756,91.2756 h 423.307 l 91.2756,-91.2756 h 396.8504 l 56.126,56.126 v 470.5625 l -187.0753,187.0753 v 1398.4252 z"
         inkscape:connector-curvature="0"
         sodipodi:nodetypes="ccccccccccccccccccccccccccccc" />
      <path
         id="path10496"
         style="fill:none;stroke:#000000"
         d="m 4471.488,2228.4351 h 303.874 v 35.1496 h -303.874 z"
         inkscape:connector-curvature="0"
         sodipodi:nodetypes="ccccc" />
      <path
         id="path10498"
         style="fill:none;stroke:#000000"
         d="m 3451.0175,4906.9863 v 35.1496 h 303.8721 v -35.1496 z"
         inkscape:connector-curvature="0"
         sodipodi:nodetypes="ccccc" />
      <path
         id="path10500"
         style="fill:none;stroke:#000000"
         d="m 4471.488,4942.1359 h 303.874 v -35.1496 h -303.874 z"
         inkscape:connector-curvature="0"
         sodipodi:nodetypes="ccccc" />
      <path
         id="path10502"
         style="fill:none;stroke:#000000"
         d="m 3451.0175,2263.5847 h 303.8721 v -35.1496 h -303.8721 z"
         inkscape:connector-curvature="0"
         sodipodi:nodetypes="ccccc" />
      <path
         id="path10504"
         style="fill:none;stroke:#000000"
         d="m 4112.8108,4340.4351 v 303.874 h 34.7717 v -303.874 z"
         inkscape:connector-curvature="0"
         sodipodi:nodetypes="ccccc" />
      <path
         id="path10506"
         style="fill:none;stroke:#000000"
         d="m 4147.5825,2526.2619 h -34.7717 v 303.874 h 34.7717 z"
         inkscape:connector-curvature="0"
         sodipodi:nodetypes="ccccc" />
    </g>
    <g
       inkscape:label="0"
       id="g10731"
       transform="translate(6510.5551,1049.0188)" />
    <g
       inkscape:label="none"
       id="g10733"
       transform="translate(6510.5551,1049.0188)" />
    <g
       id="g10890"
       transform="rotate(180,3493.5106,-342.40112)">
      <path
         sodipodi:nodetypes="ccccccccc"
         inkscape:connector-curvature="0"
         d="M 4868.8457,306.16205 4681.7685,493.23733 V 1630.8959 l 187.0772,187.0772 h 570.7294 l 187.0753,-187.0772 V 493.23733 L 5439.5751,306.16205 Z"
         style="fill:none;stroke:#000000"
         id="path10749" />
      <path
         sodipodi:nodetypes="ccccc"
         inkscape:connector-curvature="0"
         d="m 4855.2488,1212.6818 v 303.496 h 34.7717 v -303.496 z"
         style="fill:none;stroke:#000000"
         id="path10757" />
      <path
         sodipodi:nodetypes="ccccc"
         inkscape:connector-curvature="0"
         d="m 4855.2488,911.45339 h 34.7717 V 607.95733 h -34.7717 z"
         style="fill:none;stroke:#000000"
         id="path10765" />
      <path
         sodipodi:nodetypes="ccccc"
         inkscape:connector-curvature="0"
         d="m 5418.3984,1212.6818 v 303.496 h 34.7717 v -303.496 z"
         style="fill:none;stroke:#000000"
         id="path10773" />
      <path
         sodipodi:nodetypes="ccccc"
         inkscape:connector-curvature="0"
         d="m 5418.3984,911.45339 h 34.7717 V 607.95733 h -34.7717 z"
         style="fill:none;stroke:#000000"
         id="path10781" />
    </g>
    <g
       inkscape:label="0"
       id="g11113"
       transform="translate(5370.2445,1540.3573)" />
    <g
       inkscape:label="none"
       id="g11115"
       transform="translate(5370.2445,1540.3573)" />
    <g
       id="g11588"
       transform="rotate(90,4277.5378,-1029.0934)">
      <path
         sodipodi:nodetypes="ccccccsscccccccssssccssssccccccssssccccccccccccssssccccccssssccsssscccccccssccccccccc"
         inkscape:connector-curvature="0"
         d="m 5940.9532,534.3416 h -55.1811 v -14.4567 h -20.7874 v -18.8977 h -49.1339 c -10.4369,2e-5 -18.8976,8.46081 -18.8976,18.8977 v 52.91335 c 0,10.43686 8.4607,18.89761 18.8976,18.89763 h 49.1339 v -18.89763 h 20.7874 v -14.4567 h 55.1811 v 101.38583 h 28.3464 c 3.1311,0 5.6693,2.53822 5.6693,5.66929 v 291.02362 c 0,3.13107 -2.5382,5.66929 -5.6693,5.66929 h -28.3464 v 907.08662 h 28.3464 c 3.1311,0 5.6693,2.5382 5.6693,5.6693 v 291.0236 c 0,3.1311 -2.5382,5.6693 -5.6693,5.6693 h -28.3464 v 101.3858 h -55.1811 v -14.4567 h -20.7874 v -18.8976 h -49.1339 c -10.4368,0 -18.8976,8.4608 -18.8976,18.8976 v 52.9134 c 0,10.4369 8.4607,18.8977 18.8976,18.8977 h 49.1339 v -18.8977 h 20.7874 v -14.4567 h 55.1811 v 365.9528 h -536.693 v -365.9528 h 55.1811 v 14.4567 h 20.7874 v 18.8977 h 49.1339 c 10.4369,0 18.8976,-8.4608 18.8976,-18.8977 v -52.9134 c 0,-10.4368 -8.4608,-18.8976 -18.8976,-18.8976 h -49.1339 v 18.8976 h -20.7874 v 14.4567 h -55.1811 v -101.3858 h -28.3464 c -3.1311,0 -5.6693,-2.5382 -5.6693,-5.6693 v -291.0236 c 0,-3.1311 2.5382,-5.6693 5.6693,-5.6693 h 28.3464 V 962.08958 h -28.3464 c -3.1311,0 -5.6693,-2.53822 -5.6693,-5.66929 V 665.39667 c 0,-3.13107 2.5382,-5.66929 5.6693,-5.66929 h 28.3464 V 558.34155 h 55.1811 v 14.4567 h 20.7874 v 18.89763 h 49.1339 c 10.4369,-2e-5 18.8976,-8.46077 18.8976,-18.89763 V 519.8849 c 0,-10.43689 -8.4607,-18.89768 -18.8976,-18.8977 h -49.1339 v 18.8977 h -20.7874 v 14.4567 h -55.1811 V 168.3888 h 536.693 z"
         style="fill:none;stroke:#000000"
         id="path11283" />
      <path
         inkscape:connector-curvature="0"
         d="m 5823.7878,1717.9951 a 151.1811,151.1811 0 1 0 -302.3622,0 151.1811,151.1811 0 1 0 302.3622,0 z"
         style="fill:none;stroke:#000000"
         id="path11285" />
      <path
         inkscape:connector-curvature="0"
         d="m 5823.7878,1113.2707 a 151.1811,151.1811 0 1 0 -302.3622,0 151.1811,151.1811 0 1 0 302.3622,0 z"
         style="fill:none;stroke:#000000"
         id="path11287" />
    </g>
    <g
       inkscape:label="0"
       id="g14872"
       transform="translate(-2299.1719,9106.9995)" />
    <g
       inkscape:label="none"
       id="g14874"
       transform="translate(-2299.1719,9106.9995)" />
    <g
       inkscape:label="0"
       id="g2422"
       transform="translate(11324.496,10626.085)" />
    <g
       inkscape:label="none"
       id="g2424"
       transform="translate(11324.496,10626.085)" />
    <g
       inkscape:label="0"
       id="g3008"
       transform="translate(9845.6664,2749.9829)" />
    <g
       inkscape:label="none"
       id="g3010"
       transform="translate(9845.6664,2749.9829)" />
  </g>
</svg>
