999
FreeCAD v0.19 
  0
SECTION
  2
HEADER
  9
$ACADVER
  1
AC1014
  9
$ACADMAINTVER
 70
     9
  9
$DWGCODEPAGE
  3
ANSI_1252
  9
$TEXTSTYLE
  7
STANDARD
  9
$DIMSTYLE
  2
STANDARD
  9
$DIMTXSTY
  7
STANDARD
  9
$CMLSTYLE
  2
STANDARD
  9
$PEXTMAX
 10
50
 20
50
 30
50
  9
$PEXTMIN
 10
0
 20
0
 30
0
  9
$HANDSEED
  5
FFFF
  0
ENDSEC
  0
SECTION
  2
CLASSES
  0
CLASS
  1
ACDBDICTIONARYWDFLT
  2
AcDbDictionaryWithDefault
  3
ObjectDBX Classes
 90
        0
280
     0
281
     0
  0
CLASS
  1
XRECORD
  2
AcDbXrecord
  3
ObjectDBX Classes
 90
        0
280
     0
281
     0
  0
CLASS
  1
LWPOLYLINE
  2
AcDbPolyline
  3
ObjectDBX Classes
 90
        0
280
     0
281
     1
  0
ENDSEC
  0
SECTION
  2
TABLES
  0
TABLE
  2
VPORT
  5
20
330
0
100
AcDbSymbolTable
 70
     1
  0
VPORT
  5
21
330
20
100
AcDbSymbolTableRecord
100
AcDbViewportTableRecord
  2
*ACTIVE
 70
     0
  0
ENDTAB
  0
TABLE
  2
LTYPE
  5
22
330
0
100
AcDbSymbolTable
 70
     1
  0
LTYPE
  5
23
330
21
100
AcDbSymbolTableRecord
100
AcDbLinetypeTableRecord
  2
BYBLOCK
 70
     0
  3

 72
    65
 73
     0
 40
0.0
  0
LTYPE
  5
24
330
21
100
AcDbSymbolTableRecord
100
AcDbLinetypeTableRecord
  2
BYLAYER
 70
     0
  3

 72
    65
 73
     0
 40
0.0
  0
LTYPE
  5
25
330
21
100
AcDbSymbolTableRecord
100
AcDbLinetypeTableRecord
  2
CONTINUOUS
 70
     0
  3
Solid line
 72
    65
 73
     0
 40
0.0
  0
ENDTAB
  0
TABLE
  2
LAYER
  5
A32
330
0
100
AcDbSymbolTable
 70
3
  0
LAYER
  5
A33
330
A32
100
AcDbSymbolTableRecord
100
AcDbLayerTableRecord
  2
0
 70
   0
 62
   7
  6
CONTINUOUS
  0
LAYER
  5
A34
330
A32
100
AcDbSymbolTableRecord
100
AcDbLayerTableRecord
  2
none
 70
    0
 62
    7
  6
CONTINUOUS
  0
LAYER
  5
A35
330
A32
100
AcDbSymbolTableRecord
100
AcDbLayerTableRecord
  2
Shape2DView
 70
    0
 62
    7
  6
CONTINUOUS
  0
ENDTAB
  0
TABLE
  2
STYLE
  5
70
330
0
100
AcDbSymbolTable
 70
     2
  0
STYLE
  5
71
330
70
100
AcDbSymbolTableRecord
100
AcDbTextStyleTableRecord
  2
STANDARD
 70
     0
 40
0.0
 41
1.0
 50
0.0
 71
     0
 42
2.5
  3
arial.ttf
  4

  0
STYLE
  5
72
330
70
100
AcDbSymbolTableRecord
100
AcDbTextStyleTableRecord
  2
ANNOTATIVE
 70
     0
 40
0.0
 41
1.0
 50
0.0
 71
     0
 42
2.5
  3
arial.ttf
  4

  0
ENDTAB
  0
TABLE
  2
VIEW
  5
73
330
0
100
AcDbSymbolTable
 70
     0
  0
ENDTAB
  0
TABLE
  2
UCS
  5
74
330
0
100
AcDbSymbolTable
 70
     0
  0
ENDTAB
  0
TABLE
  2
APPID
  5
75
330
0
100
AcDbSymbolTable
 70
     2
  0
APPID
  5
76
330
75
100
AcDbSymbolTableRecord
100
AcDbRegAppTableRecord
  2
ACAD
 70
     0
  0
APPID
  5
77
330
75
100
AcDbSymbolTableRecord
100
AcDbRegAppTableRecord
  2
ACADANNOTATIVE
 70
     0
  0
ENDTAB
  0
TABLE
  2
DIMSTYLE
  5
78
330
0
100
AcDbSymbolTable
 70
     2
  0
DIMSTYLE
105
79
330
78
100
AcDbSymbolTableRecord
100
AcDbDimStyleTableRecord
  2
STANDARD
 70
     0
  3

  4

  5

  6

  7

 40
0.0
 41
2.5
 42
0.625
 43
3.75
 44
1.25
 45
0.0
 46
0.0
 47
0.0
 48
0.0
140
2.5
141
2.5
142
0.0
143
0.03937007874016
144
1.0
145
0.0
146
1.0
147
0.625
 71
     0
 72
     0
 73
     0
 74
     0
 75
     0
 76
     0
 77
     1
 78
     8
170
     0
171
     3
172
     1
173
     0
174
     0
175
     0
176
     0
177
     0
178
     0
270
     2
271
     2
272
     2
273
     2
274
     3
340
71
275
     0
280
     0
281
     0
282
     0
283
     0
284
     8
285
     0
286
     0
287
     3
288
     0
  0
ENDTAB
  0
TABLE
  2
BLOCK_RECORD
  5
A01
330
0
100
AcDbSymbolTable
  70
5
  0
BLOCK_RECORD
  5
A02
330
A01
100
AcDbSymbolTableRecord
100
AcDbBlockTableRecord
  2
*MODEL_SPACE
  0
BLOCK_RECORD
  5
A03
330
A01
100
AcDbSymbolTableRecord
100
AcDbBlockTableRecord
  2
*PAPER_SPACE
  0
ENDTAB
  0
ENDSEC
  0
SECTION
  2
BLOCKS
  0
BLOCK
  5
A04
330
A02
100
AcDbEntity
  8
0
100
AcDbBlockBegin
  2
*MODEL_SPACE
 70
   0
 10
0
 20
0
 30
0
  3
*MODEL_SPACE
  1
 
  0
ENDBLK
  5
A05
330
A02
100
AcDbEntity
  8
0
100
AcDbBlockEnd
  0
BLOCK
  5
A06
330
A03
100
AcDbEntity
 67
1
  8
0
100
AcDbBlockBegin
  2
*PAPER_SPACE
 70
   0
 10
0
 20
0
 30
0
  3
*PAPER_SPACE
  1
 
  0
ENDBLK
  5
A07
330
A03
100
AcDbEntity
 67
    1
  8
0
100
AcDbBlockEnd
  0
ENDSEC
  0
SECTION
  2
ENTITIES
  0
LINE
  5
A08
330
A02
100
AcDbEntity
  8
Shape2DView
100
AcDbLine
 10
11.6737
 20
19.451
 30
0
 11
13.0879
 21
20.8652
 31
0
  0
ARC
  5
A09
330
A02
100
AcDbEntity
  8
Shape2DView
100
AcDbCircle
 10
13.8148
 20
20.1383
 30
0
 40
1.02802
100
AcDbArc
 50
73.4038
 51
135
  0
ARC
  5
A0A
330
A02
100
AcDbEntity
  8
Shape2DView
100
AcDbCircle
 10
10.9666
 20
10.5817
 30
0
 40
11
100
AcDbArc
 50
46.5962
 51
73.4038
  0
ARC
  5
A0B
330
A02
100
AcDbEntity
  8
Shape2DView
100
AcDbCircle
 10
17.8187
 20
17.8267
 30
0
 40
1.02802
100
AcDbArc
 50
-15
 51
46.5962
  0
LINE
  5
A0C
330
A02
100
AcDbEntity
  8
Shape2DView
100
AcDbLine
 10
18.8117
 20
17.5606
 30
0
 11
18.294
 21
15.6287
 31
0
  0
ARC
  5
A0D
330
A02
100
AcDbEntity
  8
Shape2DView
100
AcDbCircle
 10
19.26
 20
15.3699
 30
0
 40
1
100
AcDbArc
 50
165
 51
-105
  0
LINE
  5
A0E
330
A02
100
AcDbEntity
  8
Shape2DView
100
AcDbLine
 10
19.0011
 20
14.404
 30
0
 11
20.933
 21
13.8863
 31
0
  0
ARC
  5
A0F
330
A02
100
AcDbEntity
  8
Shape2DView
100
AcDbCircle
 10
20.6669
 20
12.8933
 30
0
 40
1.02802
100
AcDbArc
 50
13.4038
 51
75
  0
ARC
  5
A10
330
A02
100
AcDbEntity
  8
Shape2DView
100
AcDbCircle
 10
10.9666
 20
10.5817
 30
0
 40
11
100
AcDbArc
 50
-13.4038
 51
13.4038
  0
ARC
  5
A11
330
A02
100
AcDbEntity
  8
Shape2DView
100
AcDbCircle
 10
20.6669
 20
8.27009
 30
0
 40
1.02802
100
AcDbArc
 50
-75
 51
-13.4038
  0
LINE
  5
A12
330
A02
100
AcDbEntity
  8
Shape2DView
100
AcDbLine
 10
20.933
 20
7.2771
 30
0
 11
19.0011
 21
6.75946
 31
0
  0
ARC
  5
A13
330
A02
100
AcDbEntity
  8
Shape2DView
100
AcDbCircle
 10
19.26
 20
5.79353
 30
0
 40
1
100
AcDbArc
 50
105
 51
-165
  0
LINE
  5
A14
330
A02
100
AcDbEntity
  8
Shape2DView
100
AcDbLine
 10
18.294
 20
5.53471
 30
0
 11
18.8117
 21
3.60286
 31
0
  0
ARC
  5
A15
330
A02
100
AcDbEntity
  8
Shape2DView
100
AcDbCircle
 10
17.8187
 20
3.33679
 30
0
 40
1.02802
100
AcDbArc
 50
-46.5962
 51
15
  0
ARC
  5
A16
330
A02
100
AcDbEntity
  8
Shape2DView
100
AcDbCircle
 10
10.9666
 20
10.5817
 30
0
 40
11
100
AcDbArc
 50
-73.4038
 51
-46.5962
  0
ARC
  5
A17
330
A02
100
AcDbEntity
  8
Shape2DView
100
AcDbCircle
 10
13.8148
 20
1.02516
 30
0
 40
1.02802
100
AcDbArc
 50
-135
 51
-73.4038
  0
LINE
  5
A18
330
A02
100
AcDbEntity
  8
Shape2DView
100
AcDbLine
 10
13.0879
 20
0.298238
 30
0
 11
11.6737
 21
1.71245
 31
0
  0
ARC
  5
A19
330
A02
100
AcDbEntity
  8
Shape2DView
100
AcDbCircle
 10
10.9666
 20
1.00535
 30
0
 40
1
100
AcDbArc
 50
45
 51
135
  0
LINE
  5
A1A
330
A02
100
AcDbEntity
  8
Shape2DView
100
AcDbLine
 10
10.2595
 20
1.71245
 30
0
 11
8.84525
 21
0.298238
 31
0
  0
ARC
  5
A1B
330
A02
100
AcDbEntity
  8
Shape2DView
100
AcDbCircle
 10
8.11833
 20
1.02516
 30
0
 40
1.02802
100
AcDbArc
 50
-106.596
 51
-45
  0
ARC
  5
A1C
330
A02
100
AcDbEntity
  8
Shape2DView
100
AcDbCircle
 10
10.9666
 20
10.5817
 30
0
 40
11
100
AcDbArc
 50
-133.404
 51
-106.596
  0
ARC
  5
A1D
330
A02
100
AcDbEntity
  8
Shape2DView
100
AcDbCircle
 10
4.11447
 20
3.33679
 30
0
 40
1.02802
100
AcDbArc
 50
165
 51
-133.404
  0
LINE
  5
A1E
330
A02
100
AcDbEntity
  8
Shape2DView
100
AcDbLine
 10
3.12148
 20
3.60286
 30
0
 11
3.63911
 21
5.53471
 31
0
  0
ARC
  5
A1F
330
A02
100
AcDbEntity
  8
Shape2DView
100
AcDbCircle
 10
2.67319
 20
5.79353
 30
0
 40
1
100
AcDbArc
 50
-15
 51
75
  0
LINE
  5
A20
330
A02
100
AcDbEntity
  8
Shape2DView
100
AcDbLine
 10
2.93201
 20
6.75946
 30
0
 11
1.00016
 21
7.2771
 31
0
  0
ARC
  5
A21
330
A02
100
AcDbEntity
  8
Shape2DView
100
AcDbCircle
 10
1.26623
 20
8.27009
 30
0
 40
1.02802
100
AcDbArc
 50
-166.596
 51
-105
  0
ARC
  5
A22
330
A02
100
AcDbEntity
  8
Shape2DView
100
AcDbCircle
 10
10.9666
 20
10.5817
 30
0
 40
11
100
AcDbArc
 50
166.596
 51
-166.596
  0
ARC
  5
A23
330
A02
100
AcDbEntity
  8
Shape2DView
100
AcDbCircle
 10
1.26623
 20
12.8933
 30
0
 40
1.02802
100
AcDbArc
 50
105
 51
166.596
  0
LINE
  5
A24
330
A02
100
AcDbEntity
  8
Shape2DView
100
AcDbLine
 10
1.00016
 20
13.8863
 30
0
 11
2.93201
 21
14.404
 31
0
  0
ARC
  5
A25
330
A02
100
AcDbEntity
  8
Shape2DView
100
AcDbCircle
 10
2.67319
 20
15.3699
 30
0
 40
1
100
AcDbArc
 50
-75
 51
15
  0
LINE
  5
A26
330
A02
100
AcDbEntity
  8
Shape2DView
100
AcDbLine
 10
3.63911
 20
15.6287
 30
0
 11
3.12148
 21
17.5606
 31
0
  0
ARC
  5
A27
330
A02
100
AcDbEntity
  8
Shape2DView
100
AcDbCircle
 10
4.11447
 20
17.8267
 30
0
 40
1.02802
100
AcDbArc
 50
133.404
 51
-165
  0
ARC
  5
A28
330
A02
100
AcDbEntity
  8
Shape2DView
100
AcDbCircle
 10
10.9666
 20
10.5817
 30
0
 40
11
100
AcDbArc
 50
106.596
 51
133.404
  0
ARC
  5
A29
330
A02
100
AcDbEntity
  8
Shape2DView
100
AcDbCircle
 10
8.11833
 20
20.1383
 30
0
 40
1.02802
100
AcDbArc
 50
45
 51
106.596
  0
LINE
  5
A2A
330
A02
100
AcDbEntity
  8
Shape2DView
100
AcDbLine
 10
8.84525
 20
20.8652
 30
0
 11
10.2595
 21
19.451
 31
0
  0
ARC
  5
A2B
330
A02
100
AcDbEntity
  8
Shape2DView
100
AcDbCircle
 10
10.9666
 20
20.1581
 30
0
 40
1
100
AcDbArc
 50
-135
 51
-45
  0
LINE
  5
A2C
330
A02
100
AcDbEntity
  8
Shape2DView
100
AcDbLine
 10
14.1666
 20
5.03916
 30
0
 11
7.76657
 21
5.03916
 31
0
  0
LINE
  5
A2D
330
A02
100
AcDbEntity
  8
Shape2DView
100
AcDbLine
 10
17.3666
 20
10.5817
 30
0
 11
14.1666
 21
5.03916
 31
0
  0
LINE
  5
A2E
330
A02
100
AcDbEntity
  8
Shape2DView
100
AcDbLine
 10
14.1666
 20
16.1243
 30
0
 11
17.3666
 21
10.5817
 31
0
  0
LINE
  5
A2F
330
A02
100
AcDbEntity
  8
Shape2DView
100
AcDbLine
 10
7.76657
 20
16.1243
 30
0
 11
14.1666
 21
16.1243
 31
0
  0
LINE
  5
A30
330
A02
100
AcDbEntity
  8
Shape2DView
100
AcDbLine
 10
4.56657
 20
10.5817
 30
0
 11
7.76657
 21
16.1243
 31
0
  0
LINE
  5
A31
330
A02
100
AcDbEntity
  8
Shape2DView
100
AcDbLine
 10
7.76657
 20
5.03916
 30
0
 11
4.56657
 21
10.5817
 31
0
  0
ENDSEC
  0
SECTION
  2
OBJECTS
  0
DICTIONARY
  5
F000
330
0
100
AcDbDictionary
  3
ACAD_GROUP
350
F001
  0
DICTIONARY
  5
F001
330
F000
100
AcDbDictionary
  0
ENDSEC
  0
EOF