999
FreeCAD v0.19 
  0
SECTION
  2
HEADER
  9
$ACADVER
  1
AC1014
  9
$ACADMAINTVER
 70
     9
  9
$DWGCODEPAGE
  3
ANSI_1252
  9
$TEXTSTYLE
  7
STANDARD
  9
$DIMSTYLE
  2
STANDARD
  9
$DIMTXSTY
  7
STANDARD
  9
$CMLSTYLE
  2
STANDARD
  9
$PEXTMAX
 10
50
 20
50
 30
50
  9
$PEXTMIN
 10
0
 20
0
 30
0
  9
$HANDSEED
  5
FFFF
  0
ENDSEC
  0
SECTION
  2
CLASSES
  0
CLASS
  1
ACDBDICTIONARYWDFLT
  2
AcDbDictionaryWithDefault
  3
ObjectDBX Classes
 90
        0
280
     0
281
     0
  0
CLASS
  1
XRECORD
  2
AcDbXrecord
  3
ObjectDBX Classes
 90
        0
280
     0
281
     0
  0
CLASS
  1
LWPOLYLINE
  2
AcDbPolyline
  3
ObjectDBX Classes
 90
        0
280
     0
281
     1
  0
ENDSEC
  0
SECTION
  2
TABLES
  0
TABLE
  2
VPORT
  5
20
330
0
100
AcDbSymbolTable
 70
     1
  0
VPORT
  5
21
330
20
100
AcDbSymbolTableRecord
100
AcDbViewportTableRecord
  2
*ACTIVE
 70
     0
  0
ENDTAB
  0
TABLE
  2
LTYPE
  5
22
330
0
100
AcDbSymbolTable
 70
     1
  0
LTYPE
  5
23
330
21
100
AcDbSymbolTableRecord
100
AcDbLinetypeTableRecord
  2
BYBLOCK
 70
     0
  3

 72
    65
 73
     0
 40
0.0
  0
LTYPE
  5
24
330
21
100
AcDbSymbolTableRecord
100
AcDbLinetypeTableRecord
  2
BYLAYER
 70
     0
  3

 72
    65
 73
     0
 40
0.0
  0
LTYPE
  5
25
330
21
100
AcDbSymbolTableRecord
100
AcDbLinetypeTableRecord
  2
CONTINUOUS
 70
     0
  3
Solid line
 72
    65
 73
     0
 40
0.0
  0
ENDTAB
  0
TABLE
  2
LAYER
  5
A5E
330
0
100
AcDbSymbolTable
 70
3
  0
LAYER
  5
A5F
330
A5E
100
AcDbSymbolTableRecord
100
AcDbLayerTableRecord
  2
0
 70
   0
 62
   7
  6
CONTINUOUS
  0
LAYER
  5
A60
330
A5E
100
AcDbSymbolTableRecord
100
AcDbLayerTableRecord
  2
none
 70
    0
 62
    7
  6
CONTINUOUS
  0
LAYER
  5
A61
330
A5E
100
AcDbSymbolTableRecord
100
AcDbLayerTableRecord
  2
Shape2DView
 70
    0
 62
    7
  6
CONTINUOUS
  0
ENDTAB
  0
TABLE
  2
STYLE
  5
70
330
0
100
AcDbSymbolTable
 70
     2
  0
STYLE
  5
71
330
70
100
AcDbSymbolTableRecord
100
AcDbTextStyleTableRecord
  2
STANDARD
 70
     0
 40
0.0
 41
1.0
 50
0.0
 71
     0
 42
2.5
  3
arial.ttf
  4

  0
STYLE
  5
72
330
70
100
AcDbSymbolTableRecord
100
AcDbTextStyleTableRecord
  2
ANNOTATIVE
 70
     0
 40
0.0
 41
1.0
 50
0.0
 71
     0
 42
2.5
  3
arial.ttf
  4

  0
ENDTAB
  0
TABLE
  2
VIEW
  5
73
330
0
100
AcDbSymbolTable
 70
     0
  0
ENDTAB
  0
TABLE
  2
UCS
  5
74
330
0
100
AcDbSymbolTable
 70
     0
  0
ENDTAB
  0
TABLE
  2
APPID
  5
75
330
0
100
AcDbSymbolTable
 70
     2
  0
APPID
  5
76
330
75
100
AcDbSymbolTableRecord
100
AcDbRegAppTableRecord
  2
ACAD
 70
     0
  0
APPID
  5
77
330
75
100
AcDbSymbolTableRecord
100
AcDbRegAppTableRecord
  2
ACADANNOTATIVE
 70
     0
  0
ENDTAB
  0
TABLE
  2
DIMSTYLE
  5
78
330
0
100
AcDbSymbolTable
 70
     2
  0
DIMSTYLE
105
79
330
78
100
AcDbSymbolTableRecord
100
AcDbDimStyleTableRecord
  2
STANDARD
 70
     0
  3

  4

  5

  6

  7

 40
0.0
 41
2.5
 42
0.625
 43
3.75
 44
1.25
 45
0.0
 46
0.0
 47
0.0
 48
0.0
140
2.5
141
2.5
142
0.0
143
0.03937007874016
144
1.0
145
0.0
146
1.0
147
0.625
 71
     0
 72
     0
 73
     0
 74
     0
 75
     0
 76
     0
 77
     1
 78
     8
170
     0
171
     3
172
     1
173
     0
174
     0
175
     0
176
     0
177
     0
178
     0
270
     2
271
     2
272
     2
273
     2
274
     3
340
71
275
     0
280
     0
281
     0
282
     0
283
     0
284
     8
285
     0
286
     0
287
     3
288
     0
  0
ENDTAB
  0
TABLE
  2
BLOCK_RECORD
  5
A01
330
0
100
AcDbSymbolTable
  70
5
  0
BLOCK_RECORD
  5
A02
330
A01
100
AcDbSymbolTableRecord
100
AcDbBlockTableRecord
  2
*MODEL_SPACE
  0
BLOCK_RECORD
  5
A03
330
A01
100
AcDbSymbolTableRecord
100
AcDbBlockTableRecord
  2
*PAPER_SPACE
  0
ENDTAB
  0
ENDSEC
  0
SECTION
  2
BLOCKS
  0
BLOCK
  5
A04
330
A02
100
AcDbEntity
  8
0
100
AcDbBlockBegin
  2
*MODEL_SPACE
 70
   0
 10
0
 20
0
 30
0
  3
*MODEL_SPACE
  1
 
  0
ENDBLK
  5
A05
330
A02
100
AcDbEntity
  8
0
100
AcDbBlockEnd
  0
BLOCK
  5
A06
330
A03
100
AcDbEntity
 67
1
  8
0
100
AcDbBlockBegin
  2
*PAPER_SPACE
 70
   0
 10
0
 20
0
 30
0
  3
*PAPER_SPACE
  1
 
  0
ENDBLK
  5
A07
330
A03
100
AcDbEntity
 67
    1
  8
0
100
AcDbBlockEnd
  0
ENDSEC
  0
SECTION
  2
ENTITIES
  0
LINE
  5
A08
330
A02
100
AcDbEntity
  8
Shape2DView
100
AcDbLine
 10
1.5
 20
530
 30
0
 11
9
 21
530
 31
0
  0
ARC
  5
A09
330
A02
100
AcDbEntity
  8
Shape2DView
100
AcDbCircle
 10
1.5
 20
528.5
 30
0
 40
1.5
100
AcDbArc
 50
90
 51
180
  0
LINE
  5
A0A
330
A02
100
AcDbEntity
  8
Shape2DView
100
AcDbLine
 10
9
 20
530
 30
0
 11
9
 21
556.775
 31
0
  0
LINE
  5
A0B
330
A02
100
AcDbEntity
  8
Shape2DView
100
AcDbLine
 10
1.13687e-13
 20
451.5
 30
0
 11
1.42177e-13
 21
528.5
 31
0
  0
ARC
  5
A0C
330
A02
100
AcDbEntity
  8
Shape2DView
100
AcDbCircle
 10
1.5
 20
451.5
 30
0
 40
1.5
100
AcDbArc
 50
180
 51
-90
  0
LINE
  5
A0D
330
A02
100
AcDbEntity
  8
Shape2DView
100
AcDbLine
 10
9
 20
450
 30
0
 11
1.5
 21
450
 31
0
  0
LINE
  5
A0E
330
A02
100
AcDbEntity
  8
Shape2DView
100
AcDbLine
 10
9
 20
210
 30
0
 11
9
 21
450
 31
0
  0
LINE
  5
A0F
330
A02
100
AcDbEntity
  8
Shape2DView
100
AcDbLine
 10
1.5
 20
210
 30
0
 11
9
 21
210
 31
0
  0
ARC
  5
A10
330
A02
100
AcDbEntity
  8
Shape2DView
100
AcDbCircle
 10
1.5
 20
208.5
 30
0
 40
1.5
100
AcDbArc
 50
90
 51
180
  0
LINE
  5
A11
330
A02
100
AcDbEntity
  8
Shape2DView
100
AcDbLine
 10
0
 20
131.5
 30
0
 11
0
 21
208.5
 31
0
  0
ARC
  5
A12
330
A02
100
AcDbEntity
  8
Shape2DView
100
AcDbCircle
 10
1.5
 20
131.5
 30
0
 40
1.5
100
AcDbArc
 50
180
 51
-90
  0
LINE
  5
A13
330
A02
100
AcDbEntity
  8
Shape2DView
100
AcDbLine
 10
9
 20
130
 30
0
 11
1.5
 21
130
 31
0
  0
LINE
  5
A14
330
A02
100
AcDbEntity
  8
Shape2DView
100
AcDbLine
 10
9
 20
103.225
 30
0
 11
9
 21
130
 31
0
  0
LINE
  5
A15
330
A02
100
AcDbEntity
  8
Shape2DView
100
AcDbLine
 10
34.7125
 20
103.225
 30
0
 11
9
 21
103.225
 31
0
  0
LINE
  5
A16
330
A02
100
AcDbEntity
  8
Shape2DView
100
AcDbLine
 10
34.7125
 20
107
 30
0
 11
34.7125
 21
103.225
 31
0
  0
LINE
  5
A17
330
A02
100
AcDbEntity
  8
Shape2DView
100
AcDbLine
 10
40.2125
 20
107
 30
0
 11
34.7125
 21
107
 31
0
  0
LINE
  5
A18
330
A02
100
AcDbEntity
  8
Shape2DView
100
AcDbLine
 10
40.2125
 20
112
 30
0
 11
40.2125
 21
107
 31
0
  0
LINE
  5
A19
330
A02
100
AcDbEntity
  8
Shape2DView
100
AcDbLine
 10
53.2125
 20
112
 30
0
 11
40.2125
 21
112
 31
0
  0
ARC
  5
A1A
330
A02
100
AcDbEntity
  8
Shape2DView
100
AcDbCircle
 10
53.2125
 20
107
 30
0
 40
5
100
AcDbArc
 50
0
 51
90
  0
LINE
  5
A1B
330
A02
100
AcDbEntity
  8
Shape2DView
100
AcDbLine
 10
58.2125
 20
93
 30
0
 11
58.2125
 21
107
 31
0
  0
ARC
  5
A1C
330
A02
100
AcDbEntity
  8
Shape2DView
100
AcDbCircle
 10
53.2125
 20
93
 30
0
 40
5
100
AcDbArc
 50
-90
 51
0
  0
LINE
  5
A1D
330
A02
100
AcDbEntity
  8
Shape2DView
100
AcDbLine
 10
40.2125
 20
88
 30
0
 11
53.2125
 21
88
 31
0
  0
LINE
  5
A1E
330
A02
100
AcDbEntity
  8
Shape2DView
100
AcDbLine
 10
40.2125
 20
93
 30
0
 11
40.2125
 21
88
 31
0
  0
LINE
  5
A1F
330
A02
100
AcDbEntity
  8
Shape2DView
100
AcDbLine
 10
34.7125
 20
93
 30
0
 11
40.2125
 21
93
 31
0
  0
LINE
  5
A20
330
A02
100
AcDbEntity
  8
Shape2DView
100
AcDbLine
 10
34.7125
 20
96.775
 30
0
 11
34.7125
 21
93
 31
0
  0
LINE
  5
A21
330
A02
100
AcDbEntity
  8
Shape2DView
100
AcDbLine
 10
9
 20
96.775
 30
0
 11
34.7125
 21
96.775
 31
0
  0
LINE
  5
A22
330
A02
100
AcDbEntity
  8
Shape2DView
100
AcDbLine
 10
9
 20
0
 30
0
 11
9
 21
96.775
 31
0
  0
LINE
  5
A23
330
A02
100
AcDbEntity
  8
Shape2DView
100
AcDbLine
 10
151
 20
0
 30
0
 11
9
 21
0
 31
0
  0
LINE
  5
A24
330
A02
100
AcDbEntity
  8
Shape2DView
100
AcDbLine
 10
151
 20
96.775
 30
0
 11
151
 21
0
 31
0
  0
LINE
  5
A25
330
A02
100
AcDbEntity
  8
Shape2DView
100
AcDbLine
 10
125.287
 20
96.775
 30
0
 11
151
 21
96.775
 31
0
  0
LINE
  5
A26
330
A02
100
AcDbEntity
  8
Shape2DView
100
AcDbLine
 10
125.287
 20
93
 30
0
 11
125.287
 21
96.775
 31
0
  0
LINE
  5
A27
330
A02
100
AcDbEntity
  8
Shape2DView
100
AcDbLine
 10
119.787
 20
93
 30
0
 11
125.287
 21
93
 31
0
  0
LINE
  5
A28
330
A02
100
AcDbEntity
  8
Shape2DView
100
AcDbLine
 10
119.787
 20
88
 30
0
 11
119.787
 21
93
 31
0
  0
LINE
  5
A29
330
A02
100
AcDbEntity
  8
Shape2DView
100
AcDbLine
 10
106.787
 20
88
 30
0
 11
119.787
 21
88
 31
0
  0
ARC
  5
A2A
330
A02
100
AcDbEntity
  8
Shape2DView
100
AcDbCircle
 10
106.787
 20
93
 30
0
 40
5
100
AcDbArc
 50
180
 51
-90
  0
LINE
  5
A2B
330
A02
100
AcDbEntity
  8
Shape2DView
100
AcDbLine
 10
101.787
 20
107
 30
0
 11
101.787
 21
93
 31
0
  0
ARC
  5
A2C
330
A02
100
AcDbEntity
  8
Shape2DView
100
AcDbCircle
 10
106.787
 20
107
 30
0
 40
5
100
AcDbArc
 50
90
 51
180
  0
LINE
  5
A2D
330
A02
100
AcDbEntity
  8
Shape2DView
100
AcDbLine
 10
119.787
 20
112
 30
0
 11
106.787
 21
112
 31
0
  0
LINE
  5
A2E
330
A02
100
AcDbEntity
  8
Shape2DView
100
AcDbLine
 10
119.787
 20
107
 30
0
 11
119.787
 21
112
 31
0
  0
LINE
  5
A2F
330
A02
100
AcDbEntity
  8
Shape2DView
100
AcDbLine
 10
125.287
 20
107
 30
0
 11
119.787
 21
107
 31
0
  0
LINE
  5
A30
330
A02
100
AcDbEntity
  8
Shape2DView
100
AcDbLine
 10
125.287
 20
103.225
 30
0
 11
125.287
 21
107
 31
0
  0
LINE
  5
A31
330
A02
100
AcDbEntity
  8
Shape2DView
100
AcDbLine
 10
151
 20
103.225
 30
0
 11
125.287
 21
103.225
 31
0
  0
LINE
  5
A32
330
A02
100
AcDbEntity
  8
Shape2DView
100
AcDbLine
 10
151
 20
130
 30
0
 11
151
 21
103.225
 31
0
  0
LINE
  5
A33
330
A02
100
AcDbEntity
  8
Shape2DView
100
AcDbLine
 10
158.5
 20
130
 30
0
 11
151
 21
130
 31
0
  0
ARC
  5
A34
330
A02
100
AcDbEntity
  8
Shape2DView
100
AcDbCircle
 10
158.5
 20
131.5
 30
0
 40
1.5
100
AcDbArc
 50
-90
 51
0
  0
LINE
  5
A35
330
A02
100
AcDbEntity
  8
Shape2DView
100
AcDbLine
 10
160
 20
208.5
 30
0
 11
160
 21
131.5
 31
0
  0
ARC
  5
A36
330
A02
100
AcDbEntity
  8
Shape2DView
100
AcDbCircle
 10
158.5
 20
208.5
 30
0
 40
1.5
100
AcDbArc
 50
-2.17126e-12
 51
90
  0
LINE
  5
A37
330
A02
100
AcDbEntity
  8
Shape2DView
100
AcDbLine
 10
151
 20
210
 30
0
 11
158.5
 21
210
 31
0
  0
LINE
  5
A38
330
A02
100
AcDbEntity
  8
Shape2DView
100
AcDbLine
 10
151
 20
450
 30
0
 11
151
 21
210
 31
0
  0
LINE
  5
A39
330
A02
100
AcDbEntity
  8
Shape2DView
100
AcDbLine
 10
158.5
 20
450
 30
0
 11
151
 21
450
 31
0
  0
ARC
  5
A3A
330
A02
100
AcDbEntity
  8
Shape2DView
100
AcDbCircle
 10
158.5
 20
451.5
 30
0
 40
1.5
100
AcDbArc
 50
-90
 51
0
  0
LINE
  5
A3B
330
A02
100
AcDbEntity
  8
Shape2DView
100
AcDbLine
 10
160
 20
528.5
 30
0
 11
160
 21
451.5
 31
0
  0
ARC
  5
A3C
330
A02
100
AcDbEntity
  8
Shape2DView
100
AcDbCircle
 10
158.5
 20
528.5
 30
0
 40
1.5
100
AcDbArc
 50
0
 51
90
  0
LINE
  5
A3D
330
A02
100
AcDbEntity
  8
Shape2DView
100
AcDbLine
 10
151
 20
530
 30
0
 11
158.5
 21
530
 31
0
  0
LINE
  5
A3E
330
A02
100
AcDbEntity
  8
Shape2DView
100
AcDbLine
 10
151
 20
556.775
 30
0
 11
151
 21
530
 31
0
  0
LINE
  5
A3F
330
A02
100
AcDbEntity
  8
Shape2DView
100
AcDbLine
 10
125.287
 20
556.775
 30
0
 11
151
 21
556.775
 31
0
  0
LINE
  5
A40
330
A02
100
AcDbEntity
  8
Shape2DView
100
AcDbLine
 10
125.287
 20
553
 30
0
 11
125.287
 21
556.775
 31
0
  0
LINE
  5
A41
330
A02
100
AcDbEntity
  8
Shape2DView
100
AcDbLine
 10
119.787
 20
553
 30
0
 11
125.287
 21
553
 31
0
  0
LINE
  5
A42
330
A02
100
AcDbEntity
  8
Shape2DView
100
AcDbLine
 10
119.787
 20
548
 30
0
 11
119.787
 21
553
 31
0
  0
LINE
  5
A43
330
A02
100
AcDbEntity
  8
Shape2DView
100
AcDbLine
 10
106.787
 20
548
 30
0
 11
119.787
 21
548
 31
0
  0
ARC
  5
A44
330
A02
100
AcDbEntity
  8
Shape2DView
100
AcDbCircle
 10
106.787
 20
553
 30
0
 40
5
100
AcDbArc
 50
180
 51
-90
  0
LINE
  5
A45
330
A02
100
AcDbEntity
  8
Shape2DView
100
AcDbLine
 10
101.787
 20
567
 30
0
 11
101.787
 21
553
 31
0
  0
ARC
  5
A46
330
A02
100
AcDbEntity
  8
Shape2DView
100
AcDbCircle
 10
106.787
 20
567
 30
0
 40
5
100
AcDbArc
 50
90
 51
180
  0
LINE
  5
A47
330
A02
100
AcDbEntity
  8
Shape2DView
100
AcDbLine
 10
119.787
 20
572
 30
0
 11
106.787
 21
572
 31
0
  0
LINE
  5
A48
330
A02
100
AcDbEntity
  8
Shape2DView
100
AcDbLine
 10
119.787
 20
567
 30
0
 11
119.787
 21
572
 31
0
  0
LINE
  5
A49
330
A02
100
AcDbEntity
  8
Shape2DView
100
AcDbLine
 10
125.287
 20
567
 30
0
 11
119.787
 21
567
 31
0
  0
LINE
  5
A4A
330
A02
100
AcDbEntity
  8
Shape2DView
100
AcDbLine
 10
125.287
 20
563.225
 30
0
 11
125.287
 21
567
 31
0
  0
LINE
  5
A4B
330
A02
100
AcDbEntity
  8
Shape2DView
100
AcDbLine
 10
151
 20
563.225
 30
0
 11
125.287
 21
563.225
 31
0
  0
LINE
  5
A4C
330
A02
100
AcDbEntity
  8
Shape2DView
100
AcDbLine
 10
151
 20
660
 30
0
 11
151
 21
563.225
 31
0
  0
LINE
  5
A4D
330
A02
100
AcDbEntity
  8
Shape2DView
100
AcDbLine
 10
9
 20
660
 30
0
 11
151
 21
660
 31
0
  0
LINE
  5
A4E
330
A02
100
AcDbEntity
  8
Shape2DView
100
AcDbLine
 10
9
 20
563.225
 30
0
 11
9
 21
660
 31
0
  0
LINE
  5
A4F
330
A02
100
AcDbEntity
  8
Shape2DView
100
AcDbLine
 10
34.7125
 20
563.225
 30
0
 11
9
 21
563.225
 31
0
  0
LINE
  5
A50
330
A02
100
AcDbEntity
  8
Shape2DView
100
AcDbLine
 10
34.7125
 20
567
 30
0
 11
34.7125
 21
563.225
 31
0
  0
LINE
  5
A51
330
A02
100
AcDbEntity
  8
Shape2DView
100
AcDbLine
 10
40.2125
 20
567
 30
0
 11
34.7125
 21
567
 31
0
  0
LINE
  5
A52
330
A02
100
AcDbEntity
  8
Shape2DView
100
AcDbLine
 10
40.2125
 20
572
 30
0
 11
40.2125
 21
567
 31
0
  0
LINE
  5
A53
330
A02
100
AcDbEntity
  8
Shape2DView
100
AcDbLine
 10
53.2125
 20
572
 30
0
 11
40.2125
 21
572
 31
0
  0
ARC
  5
A54
330
A02
100
AcDbEntity
  8
Shape2DView
100
AcDbCircle
 10
53.2125
 20
567
 30
0
 40
5
100
AcDbArc
 50
0
 51
90
  0
LINE
  5
A55
330
A02
100
AcDbEntity
  8
Shape2DView
100
AcDbLine
 10
58.2125
 20
553
 30
0
 11
58.2125
 21
567
 31
0
  0
ARC
  5
A56
330
A02
100
AcDbEntity
  8
Shape2DView
100
AcDbCircle
 10
53.2125
 20
553
 30
0
 40
5
100
AcDbArc
 50
-90
 51
0
  0
LINE
  5
A57
330
A02
100
AcDbEntity
  8
Shape2DView
100
AcDbLine
 10
40.2125
 20
548
 30
0
 11
53.2125
 21
548
 31
0
  0
LINE
  5
A58
330
A02
100
AcDbEntity
  8
Shape2DView
100
AcDbLine
 10
40.2125
 20
553
 30
0
 11
40.2125
 21
548
 31
0
  0
LINE
  5
A59
330
A02
100
AcDbEntity
  8
Shape2DView
100
AcDbLine
 10
34.7125
 20
553
 30
0
 11
40.2125
 21
553
 31
0
  0
LINE
  5
A5A
330
A02
100
AcDbEntity
  8
Shape2DView
100
AcDbLine
 10
34.7125
 20
556.775
 30
0
 11
34.7125
 21
553
 31
0
  0
LINE
  5
A5B
330
A02
100
AcDbEntity
  8
Shape2DView
100
AcDbLine
 10
9
 20
556.775
 30
0
 11
34.7125
 21
556.775
 31
0
  0
CIRCLE
  5
A5C
330
A02
100
AcDbEntity
  8
Shape2DView
100
AcDbCircle
 10
80
 20
410
 40
40
  0
CIRCLE
  5
A5D
330
A02
100
AcDbEntity
  8
Shape2DView
100
AcDbCircle
 10
80
 20
250
 40
40
  0
ENDSEC
  0
SECTION
  2
OBJECTS
  0
DICTIONARY
  5
F000
330
0
100
AcDbDictionary
  3
ACAD_GROUP
350
F001
  0
DICTIONARY
  5
F001
330
F000
100
AcDbDictionary
  0
ENDSEC
  0
EOF