999
FreeCAD v0.19 
  0
SECTION
  2
HEADER
  9
$ACADVER
  1
AC1014
  9
$ACADMAINTVER
 70
     9
  9
$DWGCODEPAGE
  3
ANSI_1252
  9
$TEXTSTYLE
  7
STANDARD
  9
$DIMSTYLE
  2
STANDARD
  9
$DIMTXSTY
  7
STANDARD
  9
$CMLSTYLE
  2
STANDARD
  9
$PEXTMAX
 10
50
 20
50
 30
50
  9
$PEXTMIN
 10
0
 20
0
 30
0
  9
$HANDSEED
  5
FFFF
  0
ENDSEC
  0
SECTION
  2
CLASSES
  0
CLASS
  1
ACDBDICTIONARYWDFLT
  2
AcDbDictionaryWithDefault
  3
ObjectDBX Classes
 90
        0
280
     0
281
     0
  0
CLASS
  1
XRECORD
  2
AcDbXrecord
  3
ObjectDBX Classes
 90
        0
280
     0
281
     0
  0
CLASS
  1
LWPOLYLINE
  2
AcDbPolyline
  3
ObjectDBX Classes
 90
        0
280
     0
281
     1
  0
ENDSEC
  0
SECTION
  2
TABLES
  0
TABLE
  2
VPORT
  5
20
330
0
100
AcDbSymbolTable
 70
     1
  0
VPORT
  5
21
330
20
100
AcDbSymbolTableRecord
100
AcDbViewportTableRecord
  2
*ACTIVE
 70
     0
  0
ENDTAB
  0
TABLE
  2
LTYPE
  5
22
330
0
100
AcDbSymbolTable
 70
     1
  0
LTYPE
  5
23
330
21
100
AcDbSymbolTableRecord
100
AcDbLinetypeTableRecord
  2
BYBLOCK
 70
     0
  3

 72
    65
 73
     0
 40
0.0
  0
LTYPE
  5
24
330
21
100
AcDbSymbolTableRecord
100
AcDbLinetypeTableRecord
  2
BYLAYER
 70
     0
  3

 72
    65
 73
     0
 40
0.0
  0
LTYPE
  5
25
330
21
100
AcDbSymbolTableRecord
100
AcDbLinetypeTableRecord
  2
CONTINUOUS
 70
     0
  3
Solid line
 72
    65
 73
     0
 40
0.0
  0
ENDTAB
  0
TABLE
  2
LAYER
  5
AE1
330
0
100
AcDbSymbolTable
 70
3
  0
LAYER
  5
AE2
330
AE1
100
AcDbSymbolTableRecord
100
AcDbLayerTableRecord
  2
0
 70
   0
 62
   7
  6
CONTINUOUS
  0
LAYER
  5
AE3
330
AE1
100
AcDbSymbolTableRecord
100
AcDbLayerTableRecord
  2
none
 70
    0
 62
    7
  6
CONTINUOUS
  0
LAYER
  5
AE4
330
AE1
100
AcDbSymbolTableRecord
100
AcDbLayerTableRecord
  2
Shape2DView001
 70
    0
 62
    7
  6
CONTINUOUS
  0
ENDTAB
  0
TABLE
  2
STYLE
  5
70
330
0
100
AcDbSymbolTable
 70
     2
  0
STYLE
  5
71
330
70
100
AcDbSymbolTableRecord
100
AcDbTextStyleTableRecord
  2
STANDARD
 70
     0
 40
0.0
 41
1.0
 50
0.0
 71
     0
 42
2.5
  3
arial.ttf
  4

  0
STYLE
  5
72
330
70
100
AcDbSymbolTableRecord
100
AcDbTextStyleTableRecord
  2
ANNOTATIVE
 70
     0
 40
0.0
 41
1.0
 50
0.0
 71
     0
 42
2.5
  3
arial.ttf
  4

  0
ENDTAB
  0
TABLE
  2
VIEW
  5
73
330
0
100
AcDbSymbolTable
 70
     0
  0
ENDTAB
  0
TABLE
  2
UCS
  5
74
330
0
100
AcDbSymbolTable
 70
     0
  0
ENDTAB
  0
TABLE
  2
APPID
  5
75
330
0
100
AcDbSymbolTable
 70
     2
  0
APPID
  5
76
330
75
100
AcDbSymbolTableRecord
100
AcDbRegAppTableRecord
  2
ACAD
 70
     0
  0
APPID
  5
77
330
75
100
AcDbSymbolTableRecord
100
AcDbRegAppTableRecord
  2
ACADANNOTATIVE
 70
     0
  0
ENDTAB
  0
TABLE
  2
DIMSTYLE
  5
78
330
0
100
AcDbSymbolTable
 70
     2
  0
DIMSTYLE
105
79
330
78
100
AcDbSymbolTableRecord
100
AcDbDimStyleTableRecord
  2
STANDARD
 70
     0
  3

  4

  5

  6

  7

 40
0.0
 41
2.5
 42
0.625
 43
3.75
 44
1.25
 45
0.0
 46
0.0
 47
0.0
 48
0.0
140
2.5
141
2.5
142
0.0
143
0.03937007874016
144
1.0
145
0.0
146
1.0
147
0.625
 71
     0
 72
     0
 73
     0
 74
     0
 75
     0
 76
     0
 77
     1
 78
     8
170
     0
171
     3
172
     1
173
     0
174
     0
175
     0
176
     0
177
     0
178
     0
270
     2
271
     2
272
     2
273
     2
274
     3
340
71
275
     0
280
     0
281
     0
282
     0
283
     0
284
     8
285
     0
286
     0
287
     3
288
     0
  0
ENDTAB
  0
TABLE
  2
BLOCK_RECORD
  5
A01
330
0
100
AcDbSymbolTable
  70
5
  0
BLOCK_RECORD
  5
A02
330
A01
100
AcDbSymbolTableRecord
100
AcDbBlockTableRecord
  2
*MODEL_SPACE
  0
BLOCK_RECORD
  5
A03
330
A01
100
AcDbSymbolTableRecord
100
AcDbBlockTableRecord
  2
*PAPER_SPACE
  0
ENDTAB
  0
ENDSEC
  0
SECTION
  2
BLOCKS
  0
BLOCK
  5
A04
330
A02
100
AcDbEntity
  8
0
100
AcDbBlockBegin
  2
*MODEL_SPACE
 70
   0
 10
0
 20
0
 30
0
  3
*MODEL_SPACE
  1
 
  0
ENDBLK
  5
A05
330
A02
100
AcDbEntity
  8
0
100
AcDbBlockEnd
  0
BLOCK
  5
A06
330
A03
100
AcDbEntity
 67
1
  8
0
100
AcDbBlockBegin
  2
*PAPER_SPACE
 70
   0
 10
0
 20
0
 30
0
  3
*PAPER_SPACE
  1
 
  0
ENDBLK
  5
A07
330
A03
100
AcDbEntity
 67
    1
  8
0
100
AcDbBlockEnd
  0
ENDSEC
  0
SECTION
  2
ENTITIES
  0
LINE
  5
A08
330
A02
100
AcDbEntity
  8
Shape2DView001
100
AcDbLine
 10
-1130
 20
-320.962
 30
0
 11
-1130
 21
-340
 31
0
  0
LINE
  5
A09
330
A02
100
AcDbEntity
  8
Shape2DView001
100
AcDbLine
 10
-1130
 20
-320.962
 30
0
 11
-1116.54
 21
-307.5
 31
0
  0
LINE
  5
A0A
330
A02
100
AcDbEntity
  8
Shape2DView001
100
AcDbLine
 10
-1130
 20
-340
 30
0
 11
-1123.39
 21
-340
 31
0
  0
LINE
  5
A0B
330
A02
100
AcDbEntity
  8
Shape2DView001
100
AcDbLine
 10
-220
 20
-307.5
 30
0
 11
-1116.54
 21
-307.5
 31
0
  0
LINE
  5
A0C
330
A02
100
AcDbEntity
  8
Shape2DView001
100
AcDbLine
 10
-195
 20
-332.5
 30
0
 11
-220
 21
-307.5
 31
0
  0
LINE
  5
A0D
330
A02
100
AcDbEntity
  8
Shape2DView001
100
AcDbLine
 10
-195
 20
-332.5
 30
0
 11
-195
 21
-350
 31
0
  0
LINE
  5
A0E
330
A02
100
AcDbEntity
  8
Shape2DView001
100
AcDbLine
 10
-195
 20
-350
 30
0
 11
-195
 21
-356.7
 31
0
  0
ARC
  5
A0F
330
A02
100
AcDbEntity
  8
Shape2DView001
100
AcDbCircle
 10
-197
 20
-356.7
 30
0
 40
2
100
AcDbArc
 50
-90
 51
0
  0
LINE
  5
A10
330
A02
100
AcDbEntity
  8
Shape2DView001
100
AcDbLine
 10
-197
 20
-358.7
 30
0
 11
-263
 21
-358.7
 31
0
  0
ARC
  5
A11
330
A02
100
AcDbEntity
  8
Shape2DView001
100
AcDbCircle
 10
-263
 20
-356.7
 30
0
 40
2
100
AcDbArc
 50
180
 51
-90
  0
LINE
  5
A12
330
A02
100
AcDbEntity
  8
Shape2DView001
100
AcDbLine
 10
-265
 20
-356.7
 30
0
 11
-265
 21
-350
 31
0
  0
LINE
  5
A13
330
A02
100
AcDbEntity
  8
Shape2DView001
100
AcDbLine
 10
-265
 20
-350
 30
0
 11
-460
 21
-350
 31
0
  0
LINE
  5
A14
330
A02
100
AcDbEntity
  8
Shape2DView001
100
AcDbLine
 10
-460
 20
-350
 30
0
 11
-470
 21
-340
 31
0
  0
LINE
  5
A15
330
A02
100
AcDbEntity
  8
Shape2DView001
100
AcDbLine
 10
-470
 20
-340
 30
0
 11
-470
 21
-332
 31
0
  0
ARC
  5
A16
330
A02
100
AcDbEntity
  8
Shape2DView001
100
AcDbCircle
 10
-472
 20
-332
 30
0
 40
2
100
AcDbArc
 50
0
 51
90
  0
LINE
  5
A17
330
A02
100
AcDbEntity
  8
Shape2DView001
100
AcDbLine
 10
-478
 20
-330
 30
0
 11
-472
 21
-330
 31
0
  0
ARC
  5
A18
330
A02
100
AcDbEntity
  8
Shape2DView001
100
AcDbCircle
 10
-478
 20
-332
 30
0
 40
2
100
AcDbArc
 50
90
 51
158
  0
LINE
  5
A19
330
A02
100
AcDbEntity
  8
Shape2DView001
100
AcDbLine
 10
-483.389
 20
-340
 30
0
 11
-479.854
 21
-331.251
 31
0
  0
LINE
  5
A1A
330
A02
100
AcDbEntity
  8
Shape2DView001
100
AcDbLine
 10
-490
 20
-340
 30
0
 11
-483.389
 21
-340
 31
0
  0
LINE
  5
A1B
330
A02
100
AcDbEntity
  8
Shape2DView001
100
AcDbLine
 10
-490
 20
-340
 30
0
 11
-490
 21
-332
 31
0
  0
ARC
  5
A1C
330
A02
100
AcDbEntity
  8
Shape2DView001
100
AcDbCircle
 10
-492
 20
-332
 30
0
 40
2
100
AcDbArc
 50
0
 51
90
  0
LINE
  5
A1D
330
A02
100
AcDbEntity
  8
Shape2DView001
100
AcDbLine
 10
-498
 20
-330
 30
0
 11
-492
 21
-330
 31
0
  0
ARC
  5
A1E
330
A02
100
AcDbEntity
  8
Shape2DView001
100
AcDbCircle
 10
-498
 20
-332
 30
0
 40
2
100
AcDbArc
 50
90
 51
158
  0
LINE
  5
A1F
330
A02
100
AcDbEntity
  8
Shape2DView001
100
AcDbLine
 10
-503.389
 20
-340
 30
0
 11
-499.854
 21
-331.251
 31
0
  0
LINE
  5
A20
330
A02
100
AcDbEntity
  8
Shape2DView001
100
AcDbLine
 10
-510
 20
-340
 30
0
 11
-503.389
 21
-340
 31
0
  0
LINE
  5
A21
330
A02
100
AcDbEntity
  8
Shape2DView001
100
AcDbLine
 10
-510
 20
-340
 30
0
 11
-510
 21
-332
 31
0
  0
ARC
  5
A22
330
A02
100
AcDbEntity
  8
Shape2DView001
100
AcDbCircle
 10
-512
 20
-332
 30
0
 40
2
100
AcDbArc
 50
0
 51
90
  0
LINE
  5
A23
330
A02
100
AcDbEntity
  8
Shape2DView001
100
AcDbLine
 10
-518
 20
-330
 30
0
 11
-512
 21
-330
 31
0
  0
ARC
  5
A24
330
A02
100
AcDbEntity
  8
Shape2DView001
100
AcDbCircle
 10
-518
 20
-332
 30
0
 40
2
100
AcDbArc
 50
90
 51
158
  0
LINE
  5
A25
330
A02
100
AcDbEntity
  8
Shape2DView001
100
AcDbLine
 10
-523.389
 20
-340
 30
0
 11
-519.854
 21
-331.251
 31
0
  0
LINE
  5
A26
330
A02
100
AcDbEntity
  8
Shape2DView001
100
AcDbLine
 10
-530
 20
-340
 30
0
 11
-523.389
 21
-340
 31
0
  0
LINE
  5
A27
330
A02
100
AcDbEntity
  8
Shape2DView001
100
AcDbLine
 10
-530
 20
-340
 30
0
 11
-530
 21
-332
 31
0
  0
ARC
  5
A28
330
A02
100
AcDbEntity
  8
Shape2DView001
100
AcDbCircle
 10
-532
 20
-332
 30
0
 40
2
100
AcDbArc
 50
0
 51
90
  0
LINE
  5
A29
330
A02
100
AcDbEntity
  8
Shape2DView001
100
AcDbLine
 10
-538
 20
-330
 30
0
 11
-532
 21
-330
 31
0
  0
ARC
  5
A2A
330
A02
100
AcDbEntity
  8
Shape2DView001
100
AcDbCircle
 10
-538
 20
-332
 30
0
 40
2
100
AcDbArc
 50
90
 51
158
  0
LINE
  5
A2B
330
A02
100
AcDbEntity
  8
Shape2DView001
100
AcDbLine
 10
-543.389
 20
-340
 30
0
 11
-539.854
 21
-331.251
 31
0
  0
LINE
  5
A2C
330
A02
100
AcDbEntity
  8
Shape2DView001
100
AcDbLine
 10
-550
 20
-340
 30
0
 11
-543.389
 21
-340
 31
0
  0
LINE
  5
A2D
330
A02
100
AcDbEntity
  8
Shape2DView001
100
AcDbLine
 10
-550
 20
-340
 30
0
 11
-550
 21
-332
 31
0
  0
ARC
  5
A2E
330
A02
100
AcDbEntity
  8
Shape2DView001
100
AcDbCircle
 10
-552
 20
-332
 30
0
 40
2
100
AcDbArc
 50
0
 51
90
  0
LINE
  5
A2F
330
A02
100
AcDbEntity
  8
Shape2DView001
100
AcDbLine
 10
-558
 20
-330
 30
0
 11
-552
 21
-330
 31
0
  0
ARC
  5
A30
330
A02
100
AcDbEntity
  8
Shape2DView001
100
AcDbCircle
 10
-558
 20
-332
 30
0
 40
2
100
AcDbArc
 50
90
 51
158
  0
LINE
  5
A31
330
A02
100
AcDbEntity
  8
Shape2DView001
100
AcDbLine
 10
-563.389
 20
-340
 30
0
 11
-559.854
 21
-331.251
 31
0
  0
LINE
  5
A32
330
A02
100
AcDbEntity
  8
Shape2DView001
100
AcDbLine
 10
-570
 20
-340
 30
0
 11
-563.389
 21
-340
 31
0
  0
LINE
  5
A33
330
A02
100
AcDbEntity
  8
Shape2DView001
100
AcDbLine
 10
-570
 20
-340
 30
0
 11
-570
 21
-332
 31
0
  0
ARC
  5
A34
330
A02
100
AcDbEntity
  8
Shape2DView001
100
AcDbCircle
 10
-572
 20
-332
 30
0
 40
2
100
AcDbArc
 50
0
 51
90
  0
LINE
  5
A35
330
A02
100
AcDbEntity
  8
Shape2DView001
100
AcDbLine
 10
-578
 20
-330
 30
0
 11
-572
 21
-330
 31
0
  0
ARC
  5
A36
330
A02
100
AcDbEntity
  8
Shape2DView001
100
AcDbCircle
 10
-578
 20
-332
 30
0
 40
2
100
AcDbArc
 50
90
 51
158
  0
LINE
  5
A37
330
A02
100
AcDbEntity
  8
Shape2DView001
100
AcDbLine
 10
-583.389
 20
-340
 30
0
 11
-579.854
 21
-331.251
 31
0
  0
LINE
  5
A38
330
A02
100
AcDbEntity
  8
Shape2DView001
100
AcDbLine
 10
-590
 20
-340
 30
0
 11
-583.389
 21
-340
 31
0
  0
LINE
  5
A39
330
A02
100
AcDbEntity
  8
Shape2DView001
100
AcDbLine
 10
-590
 20
-340
 30
0
 11
-590
 21
-332
 31
0
  0
ARC
  5
A3A
330
A02
100
AcDbEntity
  8
Shape2DView001
100
AcDbCircle
 10
-592
 20
-332
 30
0
 40
2
100
AcDbArc
 50
0
 51
90
  0
LINE
  5
A3B
330
A02
100
AcDbEntity
  8
Shape2DView001
100
AcDbLine
 10
-598
 20
-330
 30
0
 11
-592
 21
-330
 31
0
  0
ARC
  5
A3C
330
A02
100
AcDbEntity
  8
Shape2DView001
100
AcDbCircle
 10
-598
 20
-332
 30
0
 40
2
100
AcDbArc
 50
90
 51
158
  0
LINE
  5
A3D
330
A02
100
AcDbEntity
  8
Shape2DView001
100
AcDbLine
 10
-603.389
 20
-340
 30
0
 11
-599.854
 21
-331.251
 31
0
  0
LINE
  5
A3E
330
A02
100
AcDbEntity
  8
Shape2DView001
100
AcDbLine
 10
-610
 20
-340
 30
0
 11
-603.389
 21
-340
 31
0
  0
LINE
  5
A3F
330
A02
100
AcDbEntity
  8
Shape2DView001
100
AcDbLine
 10
-610
 20
-340
 30
0
 11
-610
 21
-332
 31
0
  0
ARC
  5
A40
330
A02
100
AcDbEntity
  8
Shape2DView001
100
AcDbCircle
 10
-612
 20
-332
 30
0
 40
2
100
AcDbArc
 50
0
 51
90
  0
LINE
  5
A41
330
A02
100
AcDbEntity
  8
Shape2DView001
100
AcDbLine
 10
-618
 20
-330
 30
0
 11
-612
 21
-330
 31
0
  0
ARC
  5
A42
330
A02
100
AcDbEntity
  8
Shape2DView001
100
AcDbCircle
 10
-618
 20
-332
 30
0
 40
2
100
AcDbArc
 50
90
 51
158
  0
LINE
  5
A43
330
A02
100
AcDbEntity
  8
Shape2DView001
100
AcDbLine
 10
-623.389
 20
-340
 30
0
 11
-619.854
 21
-331.251
 31
0
  0
LINE
  5
A44
330
A02
100
AcDbEntity
  8
Shape2DView001
100
AcDbLine
 10
-630
 20
-340
 30
0
 11
-623.389
 21
-340
 31
0
  0
LINE
  5
A45
330
A02
100
AcDbEntity
  8
Shape2DView001
100
AcDbLine
 10
-630
 20
-340
 30
0
 11
-630
 21
-332
 31
0
  0
ARC
  5
A46
330
A02
100
AcDbEntity
  8
Shape2DView001
100
AcDbCircle
 10
-632
 20
-332
 30
0
 40
2
100
AcDbArc
 50
0
 51
90
  0
LINE
  5
A47
330
A02
100
AcDbEntity
  8
Shape2DView001
100
AcDbLine
 10
-638
 20
-330
 30
0
 11
-632
 21
-330
 31
0
  0
ARC
  5
A48
330
A02
100
AcDbEntity
  8
Shape2DView001
100
AcDbCircle
 10
-638
 20
-332
 30
0
 40
2
100
AcDbArc
 50
90
 51
158
  0
LINE
  5
A49
330
A02
100
AcDbEntity
  8
Shape2DView001
100
AcDbLine
 10
-643.389
 20
-340
 30
0
 11
-639.854
 21
-331.251
 31
0
  0
LINE
  5
A4A
330
A02
100
AcDbEntity
  8
Shape2DView001
100
AcDbLine
 10
-650
 20
-340
 30
0
 11
-643.389
 21
-340
 31
0
  0
LINE
  5
A4B
330
A02
100
AcDbEntity
  8
Shape2DView001
100
AcDbLine
 10
-650
 20
-340
 30
0
 11
-650
 21
-332
 31
0
  0
ARC
  5
A4C
330
A02
100
AcDbEntity
  8
Shape2DView001
100
AcDbCircle
 10
-652
 20
-332
 30
0
 40
2
100
AcDbArc
 50
0
 51
90
  0
LINE
  5
A4D
330
A02
100
AcDbEntity
  8
Shape2DView001
100
AcDbLine
 10
-658
 20
-330
 30
0
 11
-652
 21
-330
 31
0
  0
ARC
  5
A4E
330
A02
100
AcDbEntity
  8
Shape2DView001
100
AcDbCircle
 10
-658
 20
-332
 30
0
 40
2
100
AcDbArc
 50
90
 51
158
  0
LINE
  5
A4F
330
A02
100
AcDbEntity
  8
Shape2DView001
100
AcDbLine
 10
-663.389
 20
-340
 30
0
 11
-659.854
 21
-331.251
 31
0
  0
LINE
  5
A50
330
A02
100
AcDbEntity
  8
Shape2DView001
100
AcDbLine
 10
-670
 20
-340
 30
0
 11
-663.389
 21
-340
 31
0
  0
LINE
  5
A51
330
A02
100
AcDbEntity
  8
Shape2DView001
100
AcDbLine
 10
-670
 20
-340
 30
0
 11
-670
 21
-332
 31
0
  0
ARC
  5
A52
330
A02
100
AcDbEntity
  8
Shape2DView001
100
AcDbCircle
 10
-672
 20
-332
 30
0
 40
2
100
AcDbArc
 50
0
 51
90
  0
LINE
  5
A53
330
A02
100
AcDbEntity
  8
Shape2DView001
100
AcDbLine
 10
-678
 20
-330
 30
0
 11
-672
 21
-330
 31
0
  0
ARC
  5
A54
330
A02
100
AcDbEntity
  8
Shape2DView001
100
AcDbCircle
 10
-678
 20
-332
 30
0
 40
2
100
AcDbArc
 50
90
 51
158
  0
LINE
  5
A55
330
A02
100
AcDbEntity
  8
Shape2DView001
100
AcDbLine
 10
-683.389
 20
-340
 30
0
 11
-679.854
 21
-331.251
 31
0
  0
LINE
  5
A56
330
A02
100
AcDbEntity
  8
Shape2DView001
100
AcDbLine
 10
-690
 20
-340
 30
0
 11
-683.389
 21
-340
 31
0
  0
LINE
  5
A57
330
A02
100
AcDbEntity
  8
Shape2DView001
100
AcDbLine
 10
-690
 20
-340
 30
0
 11
-690
 21
-332
 31
0
  0
ARC
  5
A58
330
A02
100
AcDbEntity
  8
Shape2DView001
100
AcDbCircle
 10
-692
 20
-332
 30
0
 40
2
100
AcDbArc
 50
0
 51
90
  0
LINE
  5
A59
330
A02
100
AcDbEntity
  8
Shape2DView001
100
AcDbLine
 10
-698
 20
-330
 30
0
 11
-692
 21
-330
 31
0
  0
ARC
  5
A5A
330
A02
100
AcDbEntity
  8
Shape2DView001
100
AcDbCircle
 10
-698
 20
-332
 30
0
 40
2
100
AcDbArc
 50
90
 51
158
  0
LINE
  5
A5B
330
A02
100
AcDbEntity
  8
Shape2DView001
100
AcDbLine
 10
-703.389
 20
-340
 30
0
 11
-699.854
 21
-331.251
 31
0
  0
LINE
  5
A5C
330
A02
100
AcDbEntity
  8
Shape2DView001
100
AcDbLine
 10
-710
 20
-340
 30
0
 11
-703.389
 21
-340
 31
0
  0
LINE
  5
A5D
330
A02
100
AcDbEntity
  8
Shape2DView001
100
AcDbLine
 10
-710
 20
-340
 30
0
 11
-710
 21
-332
 31
0
  0
ARC
  5
A5E
330
A02
100
AcDbEntity
  8
Shape2DView001
100
AcDbCircle
 10
-712
 20
-332
 30
0
 40
2
100
AcDbArc
 50
0
 51
90
  0
LINE
  5
A5F
330
A02
100
AcDbEntity
  8
Shape2DView001
100
AcDbLine
 10
-718
 20
-330
 30
0
 11
-712
 21
-330
 31
0
  0
ARC
  5
A60
330
A02
100
AcDbEntity
  8
Shape2DView001
100
AcDbCircle
 10
-718
 20
-332
 30
0
 40
2
100
AcDbArc
 50
90
 51
158
  0
LINE
  5
A61
330
A02
100
AcDbEntity
  8
Shape2DView001
100
AcDbLine
 10
-723.389
 20
-340
 30
0
 11
-719.854
 21
-331.251
 31
0
  0
LINE
  5
A62
330
A02
100
AcDbEntity
  8
Shape2DView001
100
AcDbLine
 10
-730
 20
-340
 30
0
 11
-723.389
 21
-340
 31
0
  0
LINE
  5
A63
330
A02
100
AcDbEntity
  8
Shape2DView001
100
AcDbLine
 10
-730
 20
-340
 30
0
 11
-730
 21
-332
 31
0
  0
ARC
  5
A64
330
A02
100
AcDbEntity
  8
Shape2DView001
100
AcDbCircle
 10
-732
 20
-332
 30
0
 40
2
100
AcDbArc
 50
0
 51
90
  0
LINE
  5
A65
330
A02
100
AcDbEntity
  8
Shape2DView001
100
AcDbLine
 10
-738
 20
-330
 30
0
 11
-732
 21
-330
 31
0
  0
ARC
  5
A66
330
A02
100
AcDbEntity
  8
Shape2DView001
100
AcDbCircle
 10
-738
 20
-332
 30
0
 40
2
100
AcDbArc
 50
90
 51
158
  0
LINE
  5
A67
330
A02
100
AcDbEntity
  8
Shape2DView001
100
AcDbLine
 10
-743.389
 20
-340
 30
0
 11
-739.854
 21
-331.251
 31
0
  0
LINE
  5
A68
330
A02
100
AcDbEntity
  8
Shape2DView001
100
AcDbLine
 10
-750
 20
-340
 30
0
 11
-743.389
 21
-340
 31
0
  0
LINE
  5
A69
330
A02
100
AcDbEntity
  8
Shape2DView001
100
AcDbLine
 10
-750
 20
-340
 30
0
 11
-750
 21
-332
 31
0
  0
ARC
  5
A6A
330
A02
100
AcDbEntity
  8
Shape2DView001
100
AcDbCircle
 10
-752
 20
-332
 30
0
 40
2
100
AcDbArc
 50
0
 51
90
  0
LINE
  5
A6B
330
A02
100
AcDbEntity
  8
Shape2DView001
100
AcDbLine
 10
-758
 20
-330
 30
0
 11
-752
 21
-330
 31
0
  0
ARC
  5
A6C
330
A02
100
AcDbEntity
  8
Shape2DView001
100
AcDbCircle
 10
-758
 20
-332
 30
0
 40
2
100
AcDbArc
 50
90
 51
158
  0
LINE
  5
A6D
330
A02
100
AcDbEntity
  8
Shape2DView001
100
AcDbLine
 10
-763.389
 20
-340
 30
0
 11
-759.854
 21
-331.251
 31
0
  0
LINE
  5
A6E
330
A02
100
AcDbEntity
  8
Shape2DView001
100
AcDbLine
 10
-770
 20
-340
 30
0
 11
-763.389
 21
-340
 31
0
  0
LINE
  5
A6F
330
A02
100
AcDbEntity
  8
Shape2DView001
100
AcDbLine
 10
-770
 20
-340
 30
0
 11
-770
 21
-332
 31
0
  0
ARC
  5
A70
330
A02
100
AcDbEntity
  8
Shape2DView001
100
AcDbCircle
 10
-772
 20
-332
 30
0
 40
2
100
AcDbArc
 50
0
 51
90
  0
LINE
  5
A71
330
A02
100
AcDbEntity
  8
Shape2DView001
100
AcDbLine
 10
-778
 20
-330
 30
0
 11
-772
 21
-330
 31
0
  0
ARC
  5
A72
330
A02
100
AcDbEntity
  8
Shape2DView001
100
AcDbCircle
 10
-778
 20
-332
 30
0
 40
2
100
AcDbArc
 50
90
 51
158
  0
LINE
  5
A73
330
A02
100
AcDbEntity
  8
Shape2DView001
100
AcDbLine
 10
-783.389
 20
-340
 30
0
 11
-779.854
 21
-331.251
 31
0
  0
LINE
  5
A74
330
A02
100
AcDbEntity
  8
Shape2DView001
100
AcDbLine
 10
-790
 20
-340
 30
0
 11
-783.389
 21
-340
 31
0
  0
LINE
  5
A75
330
A02
100
AcDbEntity
  8
Shape2DView001
100
AcDbLine
 10
-790
 20
-340
 30
0
 11
-790
 21
-332
 31
0
  0
ARC
  5
A76
330
A02
100
AcDbEntity
  8
Shape2DView001
100
AcDbCircle
 10
-792
 20
-332
 30
0
 40
2
100
AcDbArc
 50
0
 51
90
  0
LINE
  5
A77
330
A02
100
AcDbEntity
  8
Shape2DView001
100
AcDbLine
 10
-798
 20
-330
 30
0
 11
-792
 21
-330
 31
0
  0
ARC
  5
A78
330
A02
100
AcDbEntity
  8
Shape2DView001
100
AcDbCircle
 10
-798
 20
-332
 30
0
 40
2
100
AcDbArc
 50
90
 51
158
  0
LINE
  5
A79
330
A02
100
AcDbEntity
  8
Shape2DView001
100
AcDbLine
 10
-803.389
 20
-340
 30
0
 11
-799.854
 21
-331.251
 31
0
  0
LINE
  5
A7A
330
A02
100
AcDbEntity
  8
Shape2DView001
100
AcDbLine
 10
-810
 20
-340
 30
0
 11
-803.389
 21
-340
 31
0
  0
LINE
  5
A7B
330
A02
100
AcDbEntity
  8
Shape2DView001
100
AcDbLine
 10
-810
 20
-340
 30
0
 11
-810
 21
-332
 31
0
  0
ARC
  5
A7C
330
A02
100
AcDbEntity
  8
Shape2DView001
100
AcDbCircle
 10
-812
 20
-332
 30
0
 40
2
100
AcDbArc
 50
0
 51
90
  0
LINE
  5
A7D
330
A02
100
AcDbEntity
  8
Shape2DView001
100
AcDbLine
 10
-818
 20
-330
 30
0
 11
-812
 21
-330
 31
0
  0
ARC
  5
A7E
330
A02
100
AcDbEntity
  8
Shape2DView001
100
AcDbCircle
 10
-818
 20
-332
 30
0
 40
2
100
AcDbArc
 50
90
 51
158
  0
LINE
  5
A7F
330
A02
100
AcDbEntity
  8
Shape2DView001
100
AcDbLine
 10
-823.389
 20
-340
 30
0
 11
-819.854
 21
-331.251
 31
0
  0
LINE
  5
A80
330
A02
100
AcDbEntity
  8
Shape2DView001
100
AcDbLine
 10
-830
 20
-340
 30
0
 11
-823.389
 21
-340
 31
0
  0
LINE
  5
A81
330
A02
100
AcDbEntity
  8
Shape2DView001
100
AcDbLine
 10
-830
 20
-340
 30
0
 11
-830
 21
-332
 31
0
  0
ARC
  5
A82
330
A02
100
AcDbEntity
  8
Shape2DView001
100
AcDbCircle
 10
-832
 20
-332
 30
0
 40
2
100
AcDbArc
 50
0
 51
90
  0
LINE
  5
A83
330
A02
100
AcDbEntity
  8
Shape2DView001
100
AcDbLine
 10
-838
 20
-330
 30
0
 11
-832
 21
-330
 31
0
  0
ARC
  5
A84
330
A02
100
AcDbEntity
  8
Shape2DView001
100
AcDbCircle
 10
-838
 20
-332
 30
0
 40
2
100
AcDbArc
 50
90
 51
158
  0
LINE
  5
A85
330
A02
100
AcDbEntity
  8
Shape2DView001
100
AcDbLine
 10
-843.389
 20
-340
 30
0
 11
-839.854
 21
-331.251
 31
0
  0
LINE
  5
A86
330
A02
100
AcDbEntity
  8
Shape2DView001
100
AcDbLine
 10
-850
 20
-340
 30
0
 11
-843.389
 21
-340
 31
0
  0
LINE
  5
A87
330
A02
100
AcDbEntity
  8
Shape2DView001
100
AcDbLine
 10
-850
 20
-340
 30
0
 11
-850
 21
-332
 31
0
  0
ARC
  5
A88
330
A02
100
AcDbEntity
  8
Shape2DView001
100
AcDbCircle
 10
-852
 20
-332
 30
0
 40
2
100
AcDbArc
 50
0
 51
90
  0
LINE
  5
A89
330
A02
100
AcDbEntity
  8
Shape2DView001
100
AcDbLine
 10
-858
 20
-330
 30
0
 11
-852
 21
-330
 31
0
  0
ARC
  5
A8A
330
A02
100
AcDbEntity
  8
Shape2DView001
100
AcDbCircle
 10
-858
 20
-332
 30
0
 40
2
100
AcDbArc
 50
90
 51
158
  0
LINE
  5
A8B
330
A02
100
AcDbEntity
  8
Shape2DView001
100
AcDbLine
 10
-863.389
 20
-340
 30
0
 11
-859.854
 21
-331.251
 31
0
  0
LINE
  5
A8C
330
A02
100
AcDbEntity
  8
Shape2DView001
100
AcDbLine
 10
-870
 20
-340
 30
0
 11
-863.389
 21
-340
 31
0
  0
LINE
  5
A8D
330
A02
100
AcDbEntity
  8
Shape2DView001
100
AcDbLine
 10
-870
 20
-340
 30
0
 11
-870
 21
-332
 31
0
  0
ARC
  5
A8E
330
A02
100
AcDbEntity
  8
Shape2DView001
100
AcDbCircle
 10
-872
 20
-332
 30
0
 40
2
100
AcDbArc
 50
0
 51
90
  0
LINE
  5
A8F
330
A02
100
AcDbEntity
  8
Shape2DView001
100
AcDbLine
 10
-878
 20
-330
 30
0
 11
-872
 21
-330
 31
0
  0
ARC
  5
A90
330
A02
100
AcDbEntity
  8
Shape2DView001
100
AcDbCircle
 10
-878
 20
-332
 30
0
 40
2
100
AcDbArc
 50
90
 51
158
  0
LINE
  5
A91
330
A02
100
AcDbEntity
  8
Shape2DView001
100
AcDbLine
 10
-883.389
 20
-340
 30
0
 11
-879.854
 21
-331.251
 31
0
  0
LINE
  5
A92
330
A02
100
AcDbEntity
  8
Shape2DView001
100
AcDbLine
 10
-890
 20
-340
 30
0
 11
-883.389
 21
-340
 31
0
  0
LINE
  5
A93
330
A02
100
AcDbEntity
  8
Shape2DView001
100
AcDbLine
 10
-890
 20
-340
 30
0
 11
-890
 21
-332
 31
0
  0
ARC
  5
A94
330
A02
100
AcDbEntity
  8
Shape2DView001
100
AcDbCircle
 10
-892
 20
-332
 30
0
 40
2
100
AcDbArc
 50
0
 51
90
  0
LINE
  5
A95
330
A02
100
AcDbEntity
  8
Shape2DView001
100
AcDbLine
 10
-898
 20
-330
 30
0
 11
-892
 21
-330
 31
0
  0
ARC
  5
A96
330
A02
100
AcDbEntity
  8
Shape2DView001
100
AcDbCircle
 10
-898
 20
-332
 30
0
 40
2
100
AcDbArc
 50
90
 51
158
  0
LINE
  5
A97
330
A02
100
AcDbEntity
  8
Shape2DView001
100
AcDbLine
 10
-903.389
 20
-340
 30
0
 11
-899.854
 21
-331.251
 31
0
  0
LINE
  5
A98
330
A02
100
AcDbEntity
  8
Shape2DView001
100
AcDbLine
 10
-910
 20
-340
 30
0
 11
-903.389
 21
-340
 31
0
  0
LINE
  5
A99
330
A02
100
AcDbEntity
  8
Shape2DView001
100
AcDbLine
 10
-910
 20
-340
 30
0
 11
-910
 21
-332
 31
0
  0
ARC
  5
A9A
330
A02
100
AcDbEntity
  8
Shape2DView001
100
AcDbCircle
 10
-912
 20
-332
 30
0
 40
2
100
AcDbArc
 50
0
 51
90
  0
LINE
  5
A9B
330
A02
100
AcDbEntity
  8
Shape2DView001
100
AcDbLine
 10
-918
 20
-330
 30
0
 11
-912
 21
-330
 31
0
  0
ARC
  5
A9C
330
A02
100
AcDbEntity
  8
Shape2DView001
100
AcDbCircle
 10
-918
 20
-332
 30
0
 40
2
100
AcDbArc
 50
90
 51
158
  0
LINE
  5
A9D
330
A02
100
AcDbEntity
  8
Shape2DView001
100
AcDbLine
 10
-923.389
 20
-340
 30
0
 11
-919.854
 21
-331.251
 31
0
  0
LINE
  5
A9E
330
A02
100
AcDbEntity
  8
Shape2DView001
100
AcDbLine
 10
-930
 20
-340
 30
0
 11
-923.389
 21
-340
 31
0
  0
LINE
  5
A9F
330
A02
100
AcDbEntity
  8
Shape2DView001
100
AcDbLine
 10
-930
 20
-340
 30
0
 11
-930
 21
-332
 31
0
  0
ARC
  5
AA0
330
A02
100
AcDbEntity
  8
Shape2DView001
100
AcDbCircle
 10
-932
 20
-332
 30
0
 40
2
100
AcDbArc
 50
0
 51
90
  0
LINE
  5
AA1
330
A02
100
AcDbEntity
  8
Shape2DView001
100
AcDbLine
 10
-938
 20
-330
 30
0
 11
-932
 21
-330
 31
0
  0
ARC
  5
AA2
330
A02
100
AcDbEntity
  8
Shape2DView001
100
AcDbCircle
 10
-938
 20
-332
 30
0
 40
2
100
AcDbArc
 50
90
 51
158
  0
LINE
  5
AA3
330
A02
100
AcDbEntity
  8
Shape2DView001
100
AcDbLine
 10
-943.389
 20
-340
 30
0
 11
-939.854
 21
-331.251
 31
0
  0
LINE
  5
AA4
330
A02
100
AcDbEntity
  8
Shape2DView001
100
AcDbLine
 10
-950
 20
-340
 30
0
 11
-943.389
 21
-340
 31
0
  0
LINE
  5
AA5
330
A02
100
AcDbEntity
  8
Shape2DView001
100
AcDbLine
 10
-950
 20
-340
 30
0
 11
-950
 21
-332
 31
0
  0
ARC
  5
AA6
330
A02
100
AcDbEntity
  8
Shape2DView001
100
AcDbCircle
 10
-952
 20
-332
 30
0
 40
2
100
AcDbArc
 50
0
 51
90
  0
LINE
  5
AA7
330
A02
100
AcDbEntity
  8
Shape2DView001
100
AcDbLine
 10
-958
 20
-330
 30
0
 11
-952
 21
-330
 31
0
  0
ARC
  5
AA8
330
A02
100
AcDbEntity
  8
Shape2DView001
100
AcDbCircle
 10
-958
 20
-332
 30
0
 40
2
100
AcDbArc
 50
90
 51
158
  0
LINE
  5
AA9
330
A02
100
AcDbEntity
  8
Shape2DView001
100
AcDbLine
 10
-963.389
 20
-340
 30
0
 11
-959.854
 21
-331.251
 31
0
  0
LINE
  5
AAA
330
A02
100
AcDbEntity
  8
Shape2DView001
100
AcDbLine
 10
-970
 20
-340
 30
0
 11
-963.389
 21
-340
 31
0
  0
LINE
  5
AAB
330
A02
100
AcDbEntity
  8
Shape2DView001
100
AcDbLine
 10
-970
 20
-340
 30
0
 11
-970
 21
-332
 31
0
  0
ARC
  5
AAC
330
A02
100
AcDbEntity
  8
Shape2DView001
100
AcDbCircle
 10
-972
 20
-332
 30
0
 40
2
100
AcDbArc
 50
0
 51
90
  0
LINE
  5
AAD
330
A02
100
AcDbEntity
  8
Shape2DView001
100
AcDbLine
 10
-978
 20
-330
 30
0
 11
-972
 21
-330
 31
0
  0
ARC
  5
AAE
330
A02
100
AcDbEntity
  8
Shape2DView001
100
AcDbCircle
 10
-978
 20
-332
 30
0
 40
2
100
AcDbArc
 50
90
 51
158
  0
LINE
  5
AAF
330
A02
100
AcDbEntity
  8
Shape2DView001
100
AcDbLine
 10
-983.389
 20
-340
 30
0
 11
-979.854
 21
-331.251
 31
0
  0
LINE
  5
AB0
330
A02
100
AcDbEntity
  8
Shape2DView001
100
AcDbLine
 10
-990
 20
-340
 30
0
 11
-983.389
 21
-340
 31
0
  0
LINE
  5
AB1
330
A02
100
AcDbEntity
  8
Shape2DView001
100
AcDbLine
 10
-990
 20
-340
 30
0
 11
-990
 21
-332
 31
0
  0
ARC
  5
AB2
330
A02
100
AcDbEntity
  8
Shape2DView001
100
AcDbCircle
 10
-992
 20
-332
 30
0
 40
2
100
AcDbArc
 50
0
 51
90
  0
LINE
  5
AB3
330
A02
100
AcDbEntity
  8
Shape2DView001
100
AcDbLine
 10
-998
 20
-330
 30
0
 11
-992
 21
-330
 31
0
  0
ARC
  5
AB4
330
A02
100
AcDbEntity
  8
Shape2DView001
100
AcDbCircle
 10
-998
 20
-332
 30
0
 40
2
100
AcDbArc
 50
90
 51
158
  0
LINE
  5
AB5
330
A02
100
AcDbEntity
  8
Shape2DView001
100
AcDbLine
 10
-1003.39
 20
-340
 30
0
 11
-999.854
 21
-331.251
 31
0
  0
LINE
  5
AB6
330
A02
100
AcDbEntity
  8
Shape2DView001
100
AcDbLine
 10
-1010
 20
-340
 30
0
 11
-1003.39
 21
-340
 31
0
  0
LINE
  5
AB7
330
A02
100
AcDbEntity
  8
Shape2DView001
100
AcDbLine
 10
-1010
 20
-340
 30
0
 11
-1010
 21
-332
 31
0
  0
ARC
  5
AB8
330
A02
100
AcDbEntity
  8
Shape2DView001
100
AcDbCircle
 10
-1012
 20
-332
 30
0
 40
2
100
AcDbArc
 50
0
 51
90
  0
LINE
  5
AB9
330
A02
100
AcDbEntity
  8
Shape2DView001
100
AcDbLine
 10
-1018
 20
-330
 30
0
 11
-1012
 21
-330
 31
0
  0
ARC
  5
ABA
330
A02
100
AcDbEntity
  8
Shape2DView001
100
AcDbCircle
 10
-1018
 20
-332
 30
0
 40
2
100
AcDbArc
 50
90
 51
158
  0
LINE
  5
ABB
330
A02
100
AcDbEntity
  8
Shape2DView001
100
AcDbLine
 10
-1023.39
 20
-340
 30
0
 11
-1019.85
 21
-331.251
 31
0
  0
LINE
  5
ABC
330
A02
100
AcDbEntity
  8
Shape2DView001
100
AcDbLine
 10
-1030
 20
-340
 30
0
 11
-1023.39
 21
-340
 31
0
  0
LINE
  5
ABD
330
A02
100
AcDbEntity
  8
Shape2DView001
100
AcDbLine
 10
-1030
 20
-340
 30
0
 11
-1030
 21
-332
 31
0
  0
ARC
  5
ABE
330
A02
100
AcDbEntity
  8
Shape2DView001
100
AcDbCircle
 10
-1032
 20
-332
 30
0
 40
2
100
AcDbArc
 50
0
 51
90
  0
LINE
  5
ABF
330
A02
100
AcDbEntity
  8
Shape2DView001
100
AcDbLine
 10
-1038
 20
-330
 30
0
 11
-1032
 21
-330
 31
0
  0
ARC
  5
AC0
330
A02
100
AcDbEntity
  8
Shape2DView001
100
AcDbCircle
 10
-1038
 20
-332
 30
0
 40
2
100
AcDbArc
 50
90
 51
158
  0
LINE
  5
AC1
330
A02
100
AcDbEntity
  8
Shape2DView001
100
AcDbLine
 10
-1043.39
 20
-340
 30
0
 11
-1039.85
 21
-331.251
 31
0
  0
LINE
  5
AC2
330
A02
100
AcDbEntity
  8
Shape2DView001
100
AcDbLine
 10
-1050
 20
-340
 30
0
 11
-1043.39
 21
-340
 31
0
  0
LINE
  5
AC3
330
A02
100
AcDbEntity
  8
Shape2DView001
100
AcDbLine
 10
-1050
 20
-340
 30
0
 11
-1050
 21
-332
 31
0
  0
ARC
  5
AC4
330
A02
100
AcDbEntity
  8
Shape2DView001
100
AcDbCircle
 10
-1052
 20
-332
 30
0
 40
2
100
AcDbArc
 50
0
 51
90
  0
LINE
  5
AC5
330
A02
100
AcDbEntity
  8
Shape2DView001
100
AcDbLine
 10
-1058
 20
-330
 30
0
 11
-1052
 21
-330
 31
0
  0
ARC
  5
AC6
330
A02
100
AcDbEntity
  8
Shape2DView001
100
AcDbCircle
 10
-1058
 20
-332
 30
0
 40
2
100
AcDbArc
 50
90
 51
158
  0
LINE
  5
AC7
330
A02
100
AcDbEntity
  8
Shape2DView001
100
AcDbLine
 10
-1063.39
 20
-340
 30
0
 11
-1059.85
 21
-331.251
 31
0
  0
LINE
  5
AC8
330
A02
100
AcDbEntity
  8
Shape2DView001
100
AcDbLine
 10
-1070
 20
-340
 30
0
 11
-1063.39
 21
-340
 31
0
  0
LINE
  5
AC9
330
A02
100
AcDbEntity
  8
Shape2DView001
100
AcDbLine
 10
-1070
 20
-340
 30
0
 11
-1070
 21
-332
 31
0
  0
ARC
  5
ACA
330
A02
100
AcDbEntity
  8
Shape2DView001
100
AcDbCircle
 10
-1072
 20
-332
 30
0
 40
2
100
AcDbArc
 50
0
 51
90
  0
LINE
  5
ACB
330
A02
100
AcDbEntity
  8
Shape2DView001
100
AcDbLine
 10
-1078
 20
-330
 30
0
 11
-1072
 21
-330
 31
0
  0
ARC
  5
ACC
330
A02
100
AcDbEntity
  8
Shape2DView001
100
AcDbCircle
 10
-1078
 20
-332
 30
0
 40
2
100
AcDbArc
 50
90
 51
158
  0
LINE
  5
ACD
330
A02
100
AcDbEntity
  8
Shape2DView001
100
AcDbLine
 10
-1083.39
 20
-340
 30
0
 11
-1079.85
 21
-331.251
 31
0
  0
LINE
  5
ACE
330
A02
100
AcDbEntity
  8
Shape2DView001
100
AcDbLine
 10
-1090
 20
-340
 30
0
 11
-1083.39
 21
-340
 31
0
  0
LINE
  5
ACF
330
A02
100
AcDbEntity
  8
Shape2DView001
100
AcDbLine
 10
-1090
 20
-340
 30
0
 11
-1090
 21
-332
 31
0
  0
ARC
  5
AD0
330
A02
100
AcDbEntity
  8
Shape2DView001
100
AcDbCircle
 10
-1092
 20
-332
 30
0
 40
2
100
AcDbArc
 50
0
 51
90
  0
LINE
  5
AD1
330
A02
100
AcDbEntity
  8
Shape2DView001
100
AcDbLine
 10
-1098
 20
-330
 30
0
 11
-1092
 21
-330
 31
0
  0
ARC
  5
AD2
330
A02
100
AcDbEntity
  8
Shape2DView001
100
AcDbCircle
 10
-1098
 20
-332
 30
0
 40
2
100
AcDbArc
 50
90
 51
158
  0
LINE
  5
AD3
330
A02
100
AcDbEntity
  8
Shape2DView001
100
AcDbLine
 10
-1103.39
 20
-340
 30
0
 11
-1099.85
 21
-331.251
 31
0
  0
LINE
  5
AD4
330
A02
100
AcDbEntity
  8
Shape2DView001
100
AcDbLine
 10
-1110
 20
-340
 30
0
 11
-1103.39
 21
-340
 31
0
  0
LINE
  5
AD5
330
A02
100
AcDbEntity
  8
Shape2DView001
100
AcDbLine
 10
-1110
 20
-340
 30
0
 11
-1110
 21
-332
 31
0
  0
ARC
  5
AD6
330
A02
100
AcDbEntity
  8
Shape2DView001
100
AcDbCircle
 10
-1112
 20
-332
 30
0
 40
2
100
AcDbArc
 50
0
 51
90
  0
LINE
  5
AD7
330
A02
100
AcDbEntity
  8
Shape2DView001
100
AcDbLine
 10
-1118
 20
-330
 30
0
 11
-1112
 21
-330
 31
0
  0
ARC
  5
AD8
330
A02
100
AcDbEntity
  8
Shape2DView001
100
AcDbCircle
 10
-1118
 20
-332
 30
0
 40
2
100
AcDbArc
 50
90
 51
158
  0
LINE
  5
AD9
330
A02
100
AcDbEntity
  8
Shape2DView001
100
AcDbLine
 10
-1123.39
 20
-340
 30
0
 11
-1119.85
 21
-331.251
 31
0
  0
CIRCLE
  5
ADA
330
A02
100
AcDbEntity
  8
Shape2DView001
100
AcDbCircle
 10
-1045
 20
-319.5
 40
2.43125
  0
CIRCLE
  5
ADB
330
A02
100
AcDbEntity
  8
Shape2DView001
100
AcDbCircle
 10
-910
 20
-319.5
 40
2.43125
  0
CIRCLE
  5
ADC
330
A02
100
AcDbEntity
  8
Shape2DView001
100
AcDbCircle
 10
-775
 20
-319.5
 40
2.43125
  0
CIRCLE
  5
ADD
330
A02
100
AcDbEntity
  8
Shape2DView001
100
AcDbCircle
 10
-640
 20
-319.5
 40
2.43125
  0
CIRCLE
  5
ADE
330
A02
100
AcDbEntity
  8
Shape2DView001
100
AcDbCircle
 10
-505
 20
-319.5
 40
2.43125
  0
CIRCLE
  5
ADF
330
A02
100
AcDbEntity
  8
Shape2DView001
100
AcDbCircle
 10
-370
 20
-319.5
 40
2.43125
  0
CIRCLE
  5
AE0
330
A02
100
AcDbEntity
  8
Shape2DView001
100
AcDbCircle
 10
-672.5
 20
-319.5
 40
2.43125
  0
ENDSEC
  0
SECTION
  2
OBJECTS
  0
DICTIONARY
  5
F000
330
0
100
AcDbDictionary
  3
ACAD_GROUP
350
F001
  0
DICTIONARY
  5
F001
330
F000
100
AcDbDictionary
  0
ENDSEC
  0
EOF