999
FreeCAD v0.19 
  0
SECTION
  2
HEADER
  9
$ACADVER
  1
AC1014
  9
$ACADMAINTVER
 70
     9
  9
$DWGCODEPAGE
  3
ANSI_1252
  9
$TEXTSTYLE
  7
STANDARD
  9
$DIMSTYLE
  2
STANDARD
  9
$DIMTXSTY
  7
STANDARD
  9
$CMLSTYLE
  2
STANDARD
  9
$PEXTMAX
 10
50
 20
50
 30
50
  9
$PEXTMIN
 10
0
 20
0
 30
0
  9
$HANDSEED
  5
FFFF
  0
ENDSEC
  0
SECTION
  2
CLASSES
  0
CLASS
  1
ACDBDICTIONARYWDFLT
  2
AcDbDictionaryWithDefault
  3
ObjectDBX Classes
 90
        0
280
     0
281
     0
  0
CLASS
  1
XRECORD
  2
AcDbXrecord
  3
ObjectDBX Classes
 90
        0
280
     0
281
     0
  0
CLASS
  1
LWPOLYLINE
  2
AcDbPolyline
  3
ObjectDBX Classes
 90
        0
280
     0
281
     1
  0
ENDSEC
  0
SECTION
  2
TABLES
  0
TABLE
  2
VPORT
  5
20
330
0
100
AcDbSymbolTable
 70
     1
  0
VPORT
  5
21
330
20
100
AcDbSymbolTableRecord
100
AcDbViewportTableRecord
  2
*ACTIVE
 70
     0
  0
ENDTAB
  0
TABLE
  2
LTYPE
  5
22
330
0
100
AcDbSymbolTable
 70
     1
  0
LTYPE
  5
23
330
21
100
AcDbSymbolTableRecord
100
AcDbLinetypeTableRecord
  2
BYBLOCK
 70
     0
  3

 72
    65
 73
     0
 40
0.0
  0
LTYPE
  5
24
330
21
100
AcDbSymbolTableRecord
100
AcDbLinetypeTableRecord
  2
BYLAYER
 70
     0
  3

 72
    65
 73
     0
 40
0.0
  0
LTYPE
  5
25
330
21
100
AcDbSymbolTableRecord
100
AcDbLinetypeTableRecord
  2
CONTINUOUS
 70
     0
  3
Solid line
 72
    65
 73
     0
 40
0.0
  0
ENDTAB
  0
TABLE
  2
LAYER
  5
A78
330
0
100
AcDbSymbolTable
 70
3
  0
LAYER
  5
A79
330
A78
100
AcDbSymbolTableRecord
100
AcDbLayerTableRecord
  2
0
 70
   0
 62
   7
  6
CONTINUOUS
  0
LAYER
  5
A7A
330
A78
100
AcDbSymbolTableRecord
100
AcDbLayerTableRecord
  2
none
 70
    0
 62
    7
  6
CONTINUOUS
  0
LAYER
  5
A7B
330
A78
100
AcDbSymbolTableRecord
100
AcDbLayerTableRecord
  2
Shape2DView
 70
    0
 62
    7
  6
CONTINUOUS
  0
ENDTAB
  0
TABLE
  2
STYLE
  5
70
330
0
100
AcDbSymbolTable
 70
     2
  0
STYLE
  5
71
330
70
100
AcDbSymbolTableRecord
100
AcDbTextStyleTableRecord
  2
STANDARD
 70
     0
 40
0.0
 41
1.0
 50
0.0
 71
     0
 42
2.5
  3
arial.ttf
  4

  0
STYLE
  5
72
330
70
100
AcDbSymbolTableRecord
100
AcDbTextStyleTableRecord
  2
ANNOTATIVE
 70
     0
 40
0.0
 41
1.0
 50
0.0
 71
     0
 42
2.5
  3
arial.ttf
  4

  0
ENDTAB
  0
TABLE
  2
VIEW
  5
73
330
0
100
AcDbSymbolTable
 70
     0
  0
ENDTAB
  0
TABLE
  2
UCS
  5
74
330
0
100
AcDbSymbolTable
 70
     0
  0
ENDTAB
  0
TABLE
  2
APPID
  5
75
330
0
100
AcDbSymbolTable
 70
     2
  0
APPID
  5
76
330
75
100
AcDbSymbolTableRecord
100
AcDbRegAppTableRecord
  2
ACAD
 70
     0
  0
APPID
  5
77
330
75
100
AcDbSymbolTableRecord
100
AcDbRegAppTableRecord
  2
ACADANNOTATIVE
 70
     0
  0
ENDTAB
  0
TABLE
  2
DIMSTYLE
  5
78
330
0
100
AcDbSymbolTable
 70
     2
  0
DIMSTYLE
105
79
330
78
100
AcDbSymbolTableRecord
100
AcDbDimStyleTableRecord
  2
STANDARD
 70
     0
  3

  4

  5

  6

  7

 40
0.0
 41
2.5
 42
0.625
 43
3.75
 44
1.25
 45
0.0
 46
0.0
 47
0.0
 48
0.0
140
2.5
141
2.5
142
0.0
143
0.03937007874016
144
1.0
145
0.0
146
1.0
147
0.625
 71
     0
 72
     0
 73
     0
 74
     0
 75
     0
 76
     0
 77
     1
 78
     8
170
     0
171
     3
172
     1
173
     0
174
     0
175
     0
176
     0
177
     0
178
     0
270
     2
271
     2
272
     2
273
     2
274
     3
340
71
275
     0
280
     0
281
     0
282
     0
283
     0
284
     8
285
     0
286
     0
287
     3
288
     0
  0
ENDTAB
  0
TABLE
  2
BLOCK_RECORD
  5
A01
330
0
100
AcDbSymbolTable
  70
5
  0
BLOCK_RECORD
  5
A02
330
A01
100
AcDbSymbolTableRecord
100
AcDbBlockTableRecord
  2
*MODEL_SPACE
  0
BLOCK_RECORD
  5
A03
330
A01
100
AcDbSymbolTableRecord
100
AcDbBlockTableRecord
  2
*PAPER_SPACE
  0
ENDTAB
  0
ENDSEC
  0
SECTION
  2
BLOCKS
  0
BLOCK
  5
A04
330
A02
100
AcDbEntity
  8
0
100
AcDbBlockBegin
  2
*MODEL_SPACE
 70
   0
 10
0
 20
0
 30
0
  3
*MODEL_SPACE
  1
 
  0
ENDBLK
  5
A05
330
A02
100
AcDbEntity
  8
0
100
AcDbBlockEnd
  0
BLOCK
  5
A06
330
A03
100
AcDbEntity
 67
1
  8
0
100
AcDbBlockBegin
  2
*PAPER_SPACE
 70
   0
 10
0
 20
0
 30
0
  3
*PAPER_SPACE
  1
 
  0
ENDBLK
  5
A07
330
A03
100
AcDbEntity
 67
    1
  8
0
100
AcDbBlockEnd
  0
ENDSEC
  0
SECTION
  2
ENTITIES
  0
LINE
  5
A08
330
A02
100
AcDbEntity
  8
Shape2DView
100
AcDbLine
 10
45.5
 20
350
 30
0
 11
30.5
 21
350
 31
0
  0
LINE
  5
A09
330
A02
100
AcDbEntity
  8
Shape2DView
100
AcDbLine
 10
45.5
 20
350
 30
0
 11
45.5
 21
363
 31
0
  0
LINE
  5
A0A
330
A02
100
AcDbEntity
  8
Shape2DView
100
AcDbLine
 10
30.5
 20
350
 30
0
 11
30.5
 21
297.5
 31
0
  0
ARC
  5
A0B
330
A02
100
AcDbEntity
  8
Shape2DView
100
AcDbCircle
 10
47
 20
363
 30
0
 40
1.5
100
AcDbArc
 50
90
 51
180
  0
LINE
  5
A0C
330
A02
100
AcDbEntity
  8
Shape2DView
100
AcDbLine
 10
47
 20
364.5
 30
0
 11
74
 21
364.5
 31
0
  0
ARC
  5
A0D
330
A02
100
AcDbEntity
  8
Shape2DView
100
AcDbCircle
 10
74
 20
363
 30
0
 40
1.5
100
AcDbArc
 50
0
 51
90
  0
LINE
  5
A0E
330
A02
100
AcDbEntity
  8
Shape2DView
100
AcDbLine
 10
75.5
 20
363
 30
0
 11
75.5
 21
350
 31
0
  0
LINE
  5
A0F
330
A02
100
AcDbEntity
  8
Shape2DView
100
AcDbLine
 10
89.775
 20
350
 30
0
 11
75.5
 21
350
 31
0
  0
LINE
  5
A10
330
A02
100
AcDbEntity
  8
Shape2DView
100
AcDbLine
 10
89.775
 20
350
 30
0
 11
89.775
 21
324.287
 31
0
  0
LINE
  5
A11
330
A02
100
AcDbEntity
  8
Shape2DView
100
AcDbLine
 10
89.775
 20
324.287
 30
0
 11
86
 21
324.287
 31
0
  0
LINE
  5
A12
330
A02
100
AcDbEntity
  8
Shape2DView
100
AcDbLine
 10
86
 20
324.287
 30
0
 11
86
 21
318.787
 31
0
  0
LINE
  5
A13
330
A02
100
AcDbEntity
  8
Shape2DView
100
AcDbLine
 10
86
 20
318.787
 30
0
 11
81
 21
318.787
 31
0
  0
LINE
  5
A14
330
A02
100
AcDbEntity
  8
Shape2DView
100
AcDbLine
 10
81
 20
318.787
 30
0
 11
81
 21
305.787
 31
0
  0
ARC
  5
A15
330
A02
100
AcDbEntity
  8
Shape2DView
100
AcDbCircle
 10
86
 20
305.787
 30
0
 40
5
100
AcDbArc
 50
180
 51
-90
  0
LINE
  5
A16
330
A02
100
AcDbEntity
  8
Shape2DView
100
AcDbLine
 10
86
 20
300.787
 30
0
 11
100
 21
300.787
 31
0
  0
ARC
  5
A17
330
A02
100
AcDbEntity
  8
Shape2DView
100
AcDbCircle
 10
100
 20
305.787
 30
0
 40
5
100
AcDbArc
 50
-90
 51
0
  0
LINE
  5
A18
330
A02
100
AcDbEntity
  8
Shape2DView
100
AcDbLine
 10
105
 20
305.787
 30
0
 11
105
 21
318.787
 31
0
  0
LINE
  5
A19
330
A02
100
AcDbEntity
  8
Shape2DView
100
AcDbLine
 10
105
 20
318.787
 30
0
 11
100
 21
318.787
 31
0
  0
LINE
  5
A1A
330
A02
100
AcDbEntity
  8
Shape2DView
100
AcDbLine
 10
100
 20
318.787
 30
0
 11
100
 21
324.287
 31
0
  0
LINE
  5
A1B
330
A02
100
AcDbEntity
  8
Shape2DView
100
AcDbLine
 10
100
 20
324.287
 30
0
 11
96.225
 21
324.287
 31
0
  0
LINE
  5
A1C
330
A02
100
AcDbEntity
  8
Shape2DView
100
AcDbLine
 10
96.225
 20
324.287
 30
0
 11
96.225
 21
350
 31
0
  0
LINE
  5
A1D
330
A02
100
AcDbEntity
  8
Shape2DView
100
AcDbLine
 10
110.5
 20
350
 30
0
 11
96.225
 21
350
 31
0
  0
LINE
  5
A1E
330
A02
100
AcDbEntity
  8
Shape2DView
100
AcDbLine
 10
110.5
 20
350
 30
0
 11
110.5
 21
363
 31
0
  0
ARC
  5
A1F
330
A02
100
AcDbEntity
  8
Shape2DView
100
AcDbCircle
 10
112
 20
363
 30
0
 40
1.5
100
AcDbArc
 50
90
 51
180
  0
LINE
  5
A20
330
A02
100
AcDbEntity
  8
Shape2DView
100
AcDbLine
 10
112
 20
364.5
 30
0
 11
139
 21
364.5
 31
0
  0
ARC
  5
A21
330
A02
100
AcDbEntity
  8
Shape2DView
100
AcDbCircle
 10
139
 20
363
 30
0
 40
1.5
100
AcDbArc
 50
0
 51
90
  0
LINE
  5
A22
330
A02
100
AcDbEntity
  8
Shape2DView
100
AcDbLine
 10
140.5
 20
363
 30
0
 11
140.5
 21
350
 31
0
  0
LINE
  5
A23
330
A02
100
AcDbEntity
  8
Shape2DView
100
AcDbLine
 10
164.5
 20
350
 30
0
 11
140.5
 21
350
 31
0
  0
LINE
  5
A24
330
A02
100
AcDbEntity
  8
Shape2DView
100
AcDbLine
 10
164.5
 20
350
 30
0
 11
164.5
 21
-115
 31
0
  0
LINE
  5
A25
330
A02
100
AcDbEntity
  8
Shape2DView
100
AcDbLine
 10
164.5
 20
-115
 30
0
 11
155.5
 21
-124
 31
0
  0
LINE
  5
A26
330
A02
100
AcDbEntity
  8
Shape2DView
100
AcDbLine
 10
155.5
 20
-124
 30
0
 11
155.5
 21
-195
 31
0
  0
LINE
  5
A27
330
A02
100
AcDbEntity
  8
Shape2DView
100
AcDbLine
 10
155.5
 20
-195
 30
0
 11
162.7
 21
-195
 31
0
  0
ARC
  5
A28
330
A02
100
AcDbEntity
  8
Shape2DView
100
AcDbCircle
 10
162.7
 20
-196.5
 30
0
 40
1.5
100
AcDbArc
 50
0
 51
90
  0
LINE
  5
A29
330
A02
100
AcDbEntity
  8
Shape2DView
100
AcDbLine
 10
164.2
 20
-196.5
 30
0
 11
164.2
 21
-273.5
 31
0
  0
ARC
  5
A2A
330
A02
100
AcDbEntity
  8
Shape2DView
100
AcDbCircle
 10
162.7
 20
-273.5
 30
0
 40
1.5
100
AcDbArc
 50
-90
 51
0
  0
LINE
  5
A2B
330
A02
100
AcDbEntity
  8
Shape2DView
100
AcDbLine
 10
162.7
 20
-275
 30
0
 11
155.5
 21
-275
 31
0
  0
LINE
  5
A2C
330
A02
100
AcDbEntity
  8
Shape2DView
100
AcDbLine
 10
155.5
 20
-275
 30
0
 11
155.5
 21
-317.569
 31
0
  0
LINE
  5
A2D
330
A02
100
AcDbEntity
  8
Shape2DView
100
AcDbLine
 10
146.1
 20
-317.569
 30
0
 11
155.5
 21
-317.569
 31
0
  0
LINE
  5
A2E
330
A02
100
AcDbEntity
  8
Shape2DView
100
AcDbLine
 10
146.1
 20
-315.375
 30
0
 11
146.1
 21
-317.569
 31
0
  0
LINE
  5
A2F
330
A02
100
AcDbEntity
  8
Shape2DView
100
AcDbLine
 10
141.6
 20
-315.375
 30
0
 11
146.1
 21
-315.375
 31
0
  0
LINE
  5
A30
330
A02
100
AcDbEntity
  8
Shape2DView
100
AcDbLine
 10
141.6
 20
-317.569
 30
0
 11
141.6
 21
-315.375
 31
0
  0
LINE
  5
A31
330
A02
100
AcDbEntity
  8
Shape2DView
100
AcDbLine
 10
137.1
 20
-317.569
 30
0
 11
141.6
 21
-317.569
 31
0
  0
LINE
  5
A32
330
A02
100
AcDbEntity
  8
Shape2DView
100
AcDbLine
 10
137.1
 20
-322.431
 30
0
 11
137.1
 21
-317.569
 31
0
  0
LINE
  5
A33
330
A02
100
AcDbEntity
  8
Shape2DView
100
AcDbLine
 10
141.6
 20
-322.431
 30
0
 11
137.1
 21
-322.431
 31
0
  0
LINE
  5
A34
330
A02
100
AcDbEntity
  8
Shape2DView
100
AcDbLine
 10
141.6
 20
-324.625
 30
0
 11
141.6
 21
-322.431
 31
0
  0
LINE
  5
A35
330
A02
100
AcDbEntity
  8
Shape2DView
100
AcDbLine
 10
146.1
 20
-324.625
 30
0
 11
141.6
 21
-324.625
 31
0
  0
LINE
  5
A36
330
A02
100
AcDbEntity
  8
Shape2DView
100
AcDbLine
 10
146.1
 20
-322.431
 30
0
 11
146.1
 21
-324.625
 31
0
  0
LINE
  5
A37
330
A02
100
AcDbEntity
  8
Shape2DView
100
AcDbLine
 10
155.5
 20
-322.431
 30
0
 11
146.1
 21
-322.431
 31
0
  0
LINE
  5
A38
330
A02
100
AcDbEntity
  8
Shape2DView
100
AcDbLine
 10
155.5
 20
-322.431
 30
0
 11
155.5
 21
-395
 31
0
  0
LINE
  5
A39
330
A02
100
AcDbEntity
  8
Shape2DView
100
AcDbLine
 10
155.5
 20
-395
 30
0
 11
162.7
 21
-395
 31
0
  0
ARC
  5
A3A
330
A02
100
AcDbEntity
  8
Shape2DView
100
AcDbCircle
 10
162.7
 20
-396.5
 30
0
 40
1.5
100
AcDbArc
 50
0
 51
90
  0
LINE
  5
A3B
330
A02
100
AcDbEntity
  8
Shape2DView
100
AcDbLine
 10
164.2
 20
-396.5
 30
0
 11
164.2
 21
-473.5
 31
0
  0
ARC
  5
A3C
330
A02
100
AcDbEntity
  8
Shape2DView
100
AcDbCircle
 10
162.7
 20
-473.5
 30
0
 40
1.5
100
AcDbArc
 50
-90
 51
0
  0
LINE
  5
A3D
330
A02
100
AcDbEntity
  8
Shape2DView
100
AcDbLine
 10
162.7
 20
-475
 30
0
 11
155.5
 21
-475
 31
0
  0
LINE
  5
A3E
330
A02
100
AcDbEntity
  8
Shape2DView
100
AcDbLine
 10
155.5
 20
-475
 30
0
 11
155.5
 21
-484
 31
0
  0
LINE
  5
A3F
330
A02
100
AcDbEntity
  8
Shape2DView
100
AcDbLine
 10
-335.5
 20
-484
 30
0
 11
155.5
 21
-484
 31
0
  0
LINE
  5
A40
330
A02
100
AcDbEntity
  8
Shape2DView
100
AcDbLine
 10
-410.5
 20
-409
 30
0
 11
-335.5
 21
-484
 31
0
  0
LINE
  5
A41
330
A02
100
AcDbEntity
  8
Shape2DView
100
AcDbLine
 10
-488.938
 20
-409
 30
0
 11
-410.5
 21
-409
 31
0
  0
LINE
  5
A42
330
A02
100
AcDbEntity
  8
Shape2DView
100
AcDbLine
 10
-488.938
 20
-409
 30
0
 11
-509.938
 21
-430
 31
0
  0
LINE
  5
A43
330
A02
100
AcDbEntity
  8
Shape2DView
100
AcDbLine
 10
-509.938
 20
-430
 30
0
 11
-659.938
 21
-430
 31
0
  0
LINE
  5
A44
330
A02
100
AcDbEntity
  8
Shape2DView
100
AcDbLine
 10
-659.938
 20
-430
 30
0
 11
-680.938
 21
-409
 31
0
  0
LINE
  5
A45
330
A02
100
AcDbEntity
  8
Shape2DView
100
AcDbLine
 10
-820.062
 20
-409
 30
0
 11
-680.938
 21
-409
 31
0
  0
LINE
  5
A46
330
A02
100
AcDbEntity
  8
Shape2DView
100
AcDbLine
 10
-820.062
 20
-409
 30
0
 11
-841.062
 21
-430
 31
0
  0
LINE
  5
A47
330
A02
100
AcDbEntity
  8
Shape2DView
100
AcDbLine
 10
-841.062
 20
-430
 30
0
 11
-991.062
 21
-430
 31
0
  0
LINE
  5
A48
330
A02
100
AcDbEntity
  8
Shape2DView
100
AcDbLine
 10
-991.062
 20
-430
 30
0
 11
-1012.06
 21
-409
 31
0
  0
LINE
  5
A49
330
A02
100
AcDbEntity
  8
Shape2DView
100
AcDbLine
 10
-1079.5
 20
-409
 30
0
 11
-1012.06
 21
-409
 31
0
  0
LINE
  5
A4A
330
A02
100
AcDbEntity
  8
Shape2DView
100
AcDbLine
 10
-1079.5
 20
-295
 30
0
 11
-1079.5
 21
-409
 31
0
  0
LINE
  5
A4B
330
A02
100
AcDbEntity
  8
Shape2DView
100
AcDbLine
 10
-1009.5
 20
-225
 30
0
 11
-1079.5
 21
-295
 31
0
  0
LINE
  5
A4C
330
A02
100
AcDbEntity
  8
Shape2DView
100
AcDbLine
 10
-396.51
 20
-225
 30
0
 11
-1009.5
 21
-225
 31
0
  0
LINE
  5
A4D
330
A02
100
AcDbEntity
  8
Shape2DView
100
AcDbLine
 10
-280.51
 20
-341
 30
0
 11
-396.51
 21
-225
 31
0
  0
LINE
  5
A4E
330
A02
100
AcDbEntity
  8
Shape2DView
100
AcDbLine
 10
-280.51
 20
-341
 30
0
 11
-280.51
 21
-349.8
 31
0
  0
LINE
  5
A4F
330
A02
100
AcDbEntity
  8
Shape2DView
100
AcDbLine
 10
-322
 20
-349.8
 30
0
 11
-280.51
 21
-349.8
 31
0
  0
LINE
  5
A50
330
A02
100
AcDbEntity
  8
Shape2DView
100
AcDbLine
 10
-322
 20
-359.2
 30
0
 11
-322
 21
-349.8
 31
0
  0
LINE
  5
A51
330
A02
100
AcDbEntity
  8
Shape2DView
100
AcDbLine
 10
30.5
 20
-359.2
 30
0
 11
-322
 21
-359.2
 31
0
  0
LINE
  5
A52
330
A02
100
AcDbEntity
  8
Shape2DView
100
AcDbLine
 10
30.5
 20
-350
 30
0
 11
30.5
 21
-359.2
 31
0
  0
LINE
  5
A53
330
A02
100
AcDbEntity
  8
Shape2DView
100
AcDbLine
 10
30.5
 20
-297.5
 30
0
 11
30.5
 21
-350
 31
0
  0
LINE
  5
A54
330
A02
100
AcDbEntity
  8
Shape2DView
100
AcDbLine
 10
97.5
 20
-230.5
 30
0
 11
30.5
 21
-297.5
 31
0
  0
LINE
  5
A55
330
A02
100
AcDbEntity
  8
Shape2DView
100
AcDbLine
 10
97.5
 20
230.5
 30
0
 11
97.5
 21
-230.5
 31
0
  0
LINE
  5
A56
330
A02
100
AcDbEntity
  8
Shape2DView
100
AcDbLine
 10
30.5
 20
297.5
 30
0
 11
97.5
 21
230.5
 31
0
  0
CIRCLE
  5
A57
330
A02
100
AcDbEntity
  8
Shape2DView
100
AcDbCircle
 10
-980.5
 20
-404.5
 40
3.225
  0
LINE
  5
A58
330
A02
100
AcDbEntity
  8
Shape2DView
100
AcDbLine
 10
-870.35
 20
-399.9
 30
0
 11
-950.65
 21
-399.9
 31
0
  0
LINE
  5
A59
330
A02
100
AcDbEntity
  8
Shape2DView
100
AcDbLine
 10
-870.35
 20
-409.1
 30
0
 11
-870.35
 21
-399.9
 31
0
  0
LINE
  5
A5A
330
A02
100
AcDbEntity
  8
Shape2DView
100
AcDbLine
 10
-950.65
 20
-399.9
 30
0
 11
-950.65
 21
-409.1
 31
0
  0
LINE
  5
A5B
330
A02
100
AcDbEntity
  8
Shape2DView
100
AcDbLine
 10
-950.65
 20
-409.1
 30
0
 11
-870.35
 21
-409.1
 31
0
  0
LINE
  5
A5C
330
A02
100
AcDbEntity
  8
Shape2DView
100
AcDbLine
 10
-550.35
 20
-399.9
 30
0
 11
-630.65
 21
-399.9
 31
0
  0
LINE
  5
A5D
330
A02
100
AcDbEntity
  8
Shape2DView
100
AcDbLine
 10
-550.35
 20
-409.1
 30
0
 11
-550.35
 21
-399.9
 31
0
  0
LINE
  5
A5E
330
A02
100
AcDbEntity
  8
Shape2DView
100
AcDbLine
 10
-630.65
 20
-399.9
 30
0
 11
-630.65
 21
-409.1
 31
0
  0
LINE
  5
A5F
330
A02
100
AcDbEntity
  8
Shape2DView
100
AcDbLine
 10
-630.65
 20
-409.1
 30
0
 11
-550.35
 21
-409.1
 31
0
  0
CIRCLE
  5
A60
330
A02
100
AcDbEntity
  8
Shape2DView
100
AcDbCircle
 10
-520.5
 20
-404.5
 40
3.225
  0
CIRCLE
  5
A61
330
A02
100
AcDbEntity
  8
Shape2DView
100
AcDbCircle
 10
-980.5
 20
-354.5
 40
2.43125
  0
LINE
  5
A62
330
A02
100
AcDbEntity
  8
Shape2DView
100
AcDbLine
 10
-870.35
 20
-349.9
 30
0
 11
-950.65
 21
-349.9
 31
0
  0
LINE
  5
A63
330
A02
100
AcDbEntity
  8
Shape2DView
100
AcDbLine
 10
-870.35
 20
-359.1
 30
0
 11
-870.35
 21
-349.9
 31
0
  0
LINE
  5
A64
330
A02
100
AcDbEntity
  8
Shape2DView
100
AcDbLine
 10
-950.65
 20
-349.9
 30
0
 11
-950.65
 21
-359.1
 31
0
  0
LINE
  5
A65
330
A02
100
AcDbEntity
  8
Shape2DView
100
AcDbLine
 10
-950.65
 20
-359.1
 30
0
 11
-870.35
 21
-359.1
 31
0
  0
CIRCLE
  5
A66
330
A02
100
AcDbEntity
  8
Shape2DView
100
AcDbCircle
 10
-750.5
 20
-354.5
 40
2.43125
  0
LINE
  5
A67
330
A02
100
AcDbEntity
  8
Shape2DView
100
AcDbLine
 10
-550.35
 20
-349.9
 30
0
 11
-630.65
 21
-349.9
 31
0
  0
LINE
  5
A68
330
A02
100
AcDbEntity
  8
Shape2DView
100
AcDbLine
 10
-550.35
 20
-359.1
 30
0
 11
-550.35
 21
-349.9
 31
0
  0
LINE
  5
A69
330
A02
100
AcDbEntity
  8
Shape2DView
100
AcDbLine
 10
-630.65
 20
-349.9
 30
0
 11
-630.65
 21
-359.1
 31
0
  0
LINE
  5
A6A
330
A02
100
AcDbEntity
  8
Shape2DView
100
AcDbLine
 10
-630.65
 20
-359.1
 30
0
 11
-550.35
 21
-359.1
 31
0
  0
CIRCLE
  5
A6B
330
A02
100
AcDbEntity
  8
Shape2DView
100
AcDbCircle
 10
-520.5
 20
-354.5
 40
2.43125
  0
CIRCLE
  5
A6C
330
A02
100
AcDbEntity
  8
Shape2DView
100
AcDbCircle
 10
115.5
 20
-354.5
 40
2.43125
  0
CIRCLE
  5
A6D
330
A02
100
AcDbEntity
  8
Shape2DView
100
AcDbCircle
 10
-1045
 20
-319.5
 40
2.48125
  0
CIRCLE
  5
A6E
330
A02
100
AcDbEntity
  8
Shape2DView
100
AcDbCircle
 10
-910
 20
-319.5
 40
2.48125
  0
CIRCLE
  5
A6F
330
A02
100
AcDbEntity
  8
Shape2DView
100
AcDbCircle
 10
-775
 20
-319.5
 40
2.48125
  0
CIRCLE
  5
A70
330
A02
100
AcDbEntity
  8
Shape2DView
100
AcDbCircle
 10
-672.5
 20
-319.5
 40
2.48125
  0
CIRCLE
  5
A71
330
A02
100
AcDbEntity
  8
Shape2DView
100
AcDbCircle
 10
-640
 20
-319.5
 40
2.48125
  0
CIRCLE
  5
A72
330
A02
100
AcDbEntity
  8
Shape2DView
100
AcDbCircle
 10
-505
 20
-319.5
 40
2.48125
  0
ARC
  5
A73
330
A02
100
AcDbEntity
  8
Shape2DView
100
AcDbCircle
 10
-990
 20
-247.5
 30
0
 40
4.01875
100
AcDbArc
 50
90
 51
-90
  0
LINE
  5
A74
330
A02
100
AcDbEntity
  8
Shape2DView
100
AcDbLine
 10
-990
 20
-251.519
 30
0
 11
-425
 21
-251.519
 31
0
  0
LINE
  5
A75
330
A02
100
AcDbEntity
  8
Shape2DView
100
AcDbLine
 10
-990
 20
-243.481
 30
0
 11
-425
 21
-243.481
 31
0
  0
ARC
  5
A76
330
A02
100
AcDbEntity
  8
Shape2DView
100
AcDbCircle
 10
-425
 20
-247.5
 30
0
 40
4.01875
100
AcDbArc
 50
-90
 51
90
  0
CIRCLE
  5
A77
330
A02
100
AcDbEntity
  8
Shape2DView
100
AcDbCircle
 10
-370
 20
-319.5
 40
2.48125
  0
ENDSEC
  0
SECTION
  2
OBJECTS
  0
DICTIONARY
  5
F000
330
0
100
AcDbDictionary
  3
ACAD_GROUP
350
F001
  0
DICTIONARY
  5
F001
330
F000
100
AcDbDictionary
  0
ENDSEC
  0
EOF