<?xml version="1.0" encoding="UTF-8" standalone="no"?>
<svg
   viewBox="0 0 3178.5826 4493.8584"
   width="841mm"
   height="1189mm"
   version="1.1"
   id="svg1450"
   sodipodi:docname="Column-Rack_w_pattern.svg"
   inkscape:version="1.1 (1:1.1+202105261517+ce6663b3b7)"
   xmlns:inkscape="http://www.inkscape.org/namespaces/inkscape"
   xmlns:sodipodi="http://sodipodi.sourceforge.net/DTD/sodipodi-0.dtd"
   xmlns="http://www.w3.org/2000/svg"
   xmlns:svg="http://www.w3.org/2000/svg">
  <sodipodi:namedview
     id="namedview1452"
     pagecolor="#ffffff"
     bordercolor="#666666"
     borderopacity="1.0"
     inkscape:pageshadow="2"
     inkscape:pageopacity="0.0"
     inkscape:pagecheckerboard="0"
     showgrid="false"
     units="mm"
     inkscape:zoom="0.10330822"
     inkscape:cx="953.45749"
     inkscape:cy="1156.7327"
     inkscape:window-width="1280"
     inkscape:window-height="964"
     inkscape:window-x="0"
     inkscape:window-y="0"
     inkscape:window-maximized="1"
     inkscape:current-layer="g1448"
     inkscape:document-units="mm" />
  <desc
     id="desc994">Column-Rack_w_pattern.dxf - scale = 1.0, origin = (0.0, 0.0), method = manual</desc>
  <defs
     id="defs1008">
    <marker
       id="DistanceX"
       orient="auto"
       refX="0"
       refY="0"
       style="overflow:visible">
      <path
         d="M 3,-3 -3,3 M 0,-5 V 5"
         style="stroke:#000000;stroke-width:0.5"
         id="path996" />
    </marker>
    <pattern
       id="Hatch"
       patternUnits="userSpaceOnUse"
       width="8"
       height="8"
       x="0"
       y="0">
      <path
         d="M8 4 l-4,4"
         stroke="#000000"
         stroke-width="0.25"
         linecap="square"
         id="path999" />
      <path
         d="M6 2 l-4,4"
         stroke="#000000"
         stroke-width="0.25"
         linecap="square"
         id="path1001" />
      <path
         d="M4 0 l-4,4"
         stroke="#000000"
         stroke-width="0.25"
         linecap="square"
         id="path1003" />
    </pattern>
    <symbol
       id="*MODEL_SPACE" />
    <symbol
       id="*PAPER_SPACE" />
  </defs>
  <g
     inkscape:groupmode="layer"
     inkscape:label="0"
     id="g1010" />
  <g
     inkscape:groupmode="layer"
     inkscape:label="none"
     id="g1012" />
  <g
     inkscape:groupmode="layer"
     inkscape:label="Shape2DView001"
     id="g1448">
    <g
       id="g1811"
       transform="rotate(90,-390.04842,4360.8179)">
      <path
         id="path1432"
         style="fill:none;stroke:#000000"
         d="m -4225.5109,2369.7619 h 22.6786 c 4.1724,0 7.5567,3.3862 7.5545,7.5595 v 30.2386 h 24.99 l 13.3701,-33.0694 c 1.1443,-2.8564 3.9172,-4.7268 6.9993,-4.7287 h 22.6786 c 4.1726,0 7.557,3.3862 7.5545,7.5595 v 30.2386 h 24.99 l 13.3704,-33.0694 c 1.1446,-2.8564 3.9175,-4.7268 6.9993,-4.7287 h 22.6785 c 4.173,0 7.5573,3.3862 7.5596,7.5595 v 30.2386 h 24.98 l 13.3706,-33.0694 c 1.1449,-2.8564 3.9178,-4.7268 6.9993,-4.7287 h 22.6786 c 4.1732,0 7.5576,3.3862 7.5596,7.5595 v 30.2386 h 24.98 l 13.3709,-33.0694 c 1.1452,-2.8564 3.9181,-4.7268 6.9993,-4.7287 h 22.6786 c 4.1735,0 7.5578,3.3862 7.5595,7.5595 v 30.2386 h 24.98 l 13.3711,-33.0694 c 1.1455,-2.8564 3.9184,-4.7268 6.9993,-4.7287 h 22.6786 c 4.1738,0 7.5582,3.3862 7.5596,7.5595 v 30.2386 h 24.98 l 13.3615,-33.0694 c 1.1557,-2.8564 3.9286,-4.7268 7.0092,-4.7287 h 22.6786 c 4.1741,0 7.5584,3.3862 7.5595,7.5595 v 30.2386 h 24.98 l 13.3617,-33.0694 c 1.156,-2.8564 3.9289,-4.7268 7.0093,-4.7287 h 22.6786 c 4.1743,0 7.5587,3.3862 7.5595,7.5595 l 9e-4,30.2386 h 24.98 l 13.367,-33.0694 c 1.1513,-2.8564 3.9242,-4.7268 7.0043,-4.7287 h 22.6786 c 4.1746,0 7.5589,3.3862 7.5595,7.5595 l 6e-4,30.2386 h 24.99 l 13.3572,-33.0694 c 1.1516,-2.8564 3.9246,-4.7268 7.0044,-4.7287 h 22.6785 c 4.1749,0 7.5593,3.3862 7.5596,7.5595 l 3e-4,30.2386 h 24.99 l 13.3575,-33.0694 c 1.1519,-2.8564 3.9248,-4.7268 7.0043,-4.7287 h 22.6786 c 4.1752,0 7.5595,3.3862 7.5595,7.5595 l 10e-5,30.2386 h 24.99 l 13.3578,-33.0694 c 1.1521,-2.8564 3.9251,-4.7268 7.0043,-4.7287 h 22.6786 c 4.1754,0 7.5598,3.3862 7.5595,7.5595 l -2e-4,30.2386 h 24.99 l 13.3581,-33.0694 c 1.1524,-2.8564 3.9253,-4.7268 7.0043,-4.7287 h 22.6786 c 4.1757,0 7.56,3.3862 7.5595,7.5595 l -5e-4,30.2386 h 24.99 l 13.3583,-33.0694 c 1.1527,-2.8564 3.9257,-4.7268 7.0094,-4.7287 h 22.6735 c 4.176,0 7.5604,3.3862 7.5596,7.5595 l -8e-4,30.2386 h 24.99 l 13.3586,-33.0694 c 1.153,-2.8564 3.9259,-4.7268 7.0093,-4.7287 h 22.6736 c 4.1763,0 7.5606,3.3862 7.5595,7.5595 v 30.2386 h 24.99 l 13.3589,-33.0694 c 1.1532,-2.8564 3.9262,-4.7268 7.0093,-4.7287 h 22.6736 c 4.1765,0 7.5609,3.3862 7.5595,7.5595 v 30.2386 h 24.99 l 13.3592,-33.0694 c 1.1535,-2.8564 3.9264,-4.7268 7.0093,-4.7287 h 22.6736 c 4.1768,0 7.5611,3.3862 7.5595,7.5595 v 30.2386 h 24.99 l 13.3594,-33.0694 c 1.1538,-2.8564 3.9268,-4.7268 7.0094,-4.7287 h 22.6735 c 4.1771,0 7.5615,3.3862 7.5596,7.5595 v 30.2386 h 24.99 l 13.3597,-33.0694 c 1.1541,-2.8564 3.927,-4.7268 7.0093,-4.7287 h 22.6786 c 4.1724,0 7.5567,3.3862 7.5545,7.5595 v 30.2386 h 24.99 l 13.36,-33.0694 c 1.1543,-2.8564 3.9273,-4.7268 7.0093,-4.7287 h 22.6786 c 4.1726,0 7.557,3.3862 7.5545,7.5595 v 30.2386 h 24.99 l 13.3603,-33.0694 c 1.1546,-2.8564 3.9275,-4.7268 7.0093,-4.7287 h 22.6786 c 4.1729,0 7.5572,3.3862 7.5595,7.5595 v 30.2386 h 24.98 l 13.3605,-33.0694 c 1.1549,-2.8564 3.9279,-4.7268 7.0094,-4.7287 h 22.6785 c 4.1732,0 7.5576,3.3862 7.5596,7.5595 v 30.2386 h 24.98 l 13.3608,-33.0694 c 1.1552,-2.8564 3.9281,-4.7268 7.0093,-4.7287 h 22.6786 c 4.1735,0 7.5578,3.3862 7.5595,7.5595 v 30.2386 h 24.98 l 13.3611,-33.0694 c 1.1554,-2.8564 3.9284,-4.7268 7.0093,-4.7287 h 22.6786 c 4.1737,0 7.5581,3.3862 7.5595,7.5595 v 30.2386 h 24.98 l 13.3614,-33.0694 c 1.1557,-2.8564 3.9286,-4.7268 7.0093,-4.7287 h 22.6786 c 4.174,0 7.5583,3.3862 7.5595,7.5595 v 30.2386 h 24.98 l 13.3616,-33.0694 c 1.156,-2.8564 3.929,-4.7268 7.0094,-4.7287 h 22.6785 c 4.1743,0 7.5587,3.3862 7.5596,7.5595 l 9e-4,30.2386 h 24.98 l 13.3669,-33.0694 c 1.1513,-2.8564 3.9242,-4.7268 7.0043,-4.7287 h 22.6786 c 4.1746,0 7.5589,3.3862 7.5595,7.5595 l 7e-4,30.2386 h 24.99 l 13.3572,-33.0694 c 1.1515,-2.8564 3.9245,-4.7268 7.0043,-4.7287 h 22.6786 c 4.1748,0 7.5592,3.3862 7.5595,7.5595 l 4e-4,30.2386 h 24.99 l 13.3575,-33.0694 c 1.1518,-2.8564 3.9247,-4.7268 7.0043,-4.7287 h 22.6786 c 4.1751,0 7.5594,3.3862 7.5595,7.5595 l 10e-5,30.2386 h 24.99 l 13.3577,-33.0694 c 1.1521,-2.8564 3.9251,-4.7268 7.0044,-4.7287 h 22.6785 c 4.1754,0 7.5598,3.3862 7.5596,7.5595 l -2e-4,30.2386 h 24.99 l 13.358,-33.0694 c 1.1524,-2.8564 3.9253,-4.7268 7.0043,-4.7287 h 22.6786 c 4.1757,0 7.56,3.3862 7.5595,7.5595 l -4e-4,30.2386 h 24.99 l 13.3583,-33.0694 c 1.1526,-2.8564 3.9256,-4.7268 7.0093,-4.7287 h 22.6736 c 4.1759,0 7.5603,3.3862 7.5595,7.5595 l -7e-4,30.2386 h 24.99 l 13.3586,-33.0694 c 1.1529,-2.8564 3.9258,-4.7268 7.0093,-4.7287 h 22.6736 c 4.1762,0 7.5605,3.3862 7.5595,7.5595 v 30.2386 l 37.8,37.79 h 737.01 v 25.3286 c 0,4.1733 3.38432,7.5576 7.55892,7.5576 h 249.44891 c 4.17477,0 7.55907,-3.3843 7.55903,-7.5576 l -6e-5,-25.3286 v -66.14 l -94.488,-94.49 H -4219.99 l -50.88,50.88 v 71.96 h 24.99 l 13.3698,-33.0694 c 1.1441,-2.8564 3.917,-4.7268 6.9993,-4.7287 z"
         sodipodi:nodetypes="ccccccccccccccccccccccccccccccccccccccccccccccccccccccccccccccccccccccccccccccccccccccccccccccccccccccccccccccccccccccccccccccccccccccccccccccccccccccccccccccccccccccccccccccccccccccccccccccccccccccccccccccccccc" />
      <path
         d="m -3940.4173,2330.0567 a 9.189,9.189 0 1 0 -18.378,0 9.189,9.189 0 1 0 18.378,0 z"
         style="fill:none;stroke:#000000"
         id="path1434" />
      <path
         d="m -3430.1811,2330.0567 a 9.189,9.189 0 1 0 -18.378,0 9.189,9.189 0 1 0 18.378,0 z"
         style="fill:none;stroke:#000000"
         id="path1436" />
      <path
         d="m -2919.9449,2330.0567 a 9.1889765,9.1889765 0 1 0 -18.3779,0 9.1889765,9.1889765 0 1 0 18.3779,0 z"
         style="fill:none;stroke:#000000"
         id="path1438" />
      <path
         d="m -2409.7087,2330.0567 a 9.1889765,9.1889765 0 1 0 -18.3779,0 9.1889765,9.1889765 0 1 0 18.3779,0 z"
         style="fill:none;stroke:#000000"
         id="path1440" />
      <path
         d="m -1899.4724,2330.0567 a 9.189,9.189 0 1 0 -18.378,0 9.189,9.189 0 1 0 18.378,0 z"
         style="fill:none;stroke:#000000"
         id="path1442" />
      <path
         d="m -1389.2362,2330.0567 a 9.189,9.189 0 1 0 -18.378,0 9.189,9.189 0 1 0 18.378,0 z"
         style="fill:none;stroke:#000000"
         id="path1444" />
      <path
         d="m -2532.5433,2330.0567 a 9.189,9.189 0 1 0 -18.378,0 9.189,9.189 0 1 0 18.378,0 z"
         style="fill:none;stroke:#000000"
         id="path1446" />
    </g>
  </g>
</svg>
